<svg width="215" height="191" viewBox="0 0 215 191" fill="none" xmlns="http://www.w3.org/2000/svg">
<path d="M190.071 134.754L214.517 69.1053C216.36 64.1564 212.702 58.8745 207.428 58.8745H52.3003L46.1455 13.554C45.7194 10.4156 43.3909 7.87363 40.3066 7.17951L9.22611 0.185263C5.14876 -0.730121 1.10119 1.83551 0.185657 5.92015C-0.730353 10.0053 1.8323 14.061 5.90966 14.9783L31.8596 20.8179L49.3021 149.431C49.8176 153.597 53.6202 156.557 57.7841 156.016L143.523 144.876L172.332 162.767C178.38 166.523 175.731 175.838 168.617 175.838H57.7902C53.6117 175.838 50.2238 179.232 50.2238 183.419C50.2238 187.606 53.6117 191 57.7902 191H168.616C190.891 191 199.281 161.666 180.304 149.88L167.276 141.789L183.955 139.622C186.737 139.261 189.091 137.388 190.071 134.754Z" fill="#696464"/>
</svg>
