<svg width="75" height="63" viewBox="0 0 75 63" fill="none" xmlns="http://www.w3.org/2000/svg">
<rect width="75" height="63" fill="white"/>
<g clip-path="url(#clip0_496_1459)">
<path d="M44.1776 37.8443C42.6362 37.8428 41.3855 39.0912 41.3839 40.6326C41.3824 42.174 42.6308 43.4247 44.1722 43.4262C45.7136 43.4277 46.9643 42.1794 46.9659 40.638V40.6353C46.9644 39.0955 45.7173 37.8473 44.1776 37.8443Z" fill="#696464"/>
<path d="M49.1278 24.4797C49.061 24.4668 48.9932 24.4602 48.9251 24.4601H31.9318L31.6627 22.6596C31.495 21.4638 30.4722 20.5741 29.2647 20.5738H27.0766C26.482 20.5738 26 21.0557 26 21.6503C26 22.2449 26.482 22.7269 27.0766 22.7269H29.2673C29.4042 22.7259 29.5201 22.8278 29.5365 22.9637L31.1944 34.3267C31.4217 35.7706 32.6636 36.8358 34.1253 36.8405H45.3241C46.7313 36.8423 47.9454 35.8533 48.2281 34.4747L49.9802 25.7412C50.0931 25.1575 49.7115 24.5927 49.1278 24.4797Z" fill="#696464"/>
<path d="M37.3405 40.5158C37.2749 39.0196 36.0401 37.8418 34.5425 37.847C33.0023 37.9092 31.8042 39.2082 31.8665 40.7484C31.9262 42.2262 33.1283 43.4007 34.6071 43.4262H34.6744C36.2143 43.3587 37.4079 42.0557 37.3405 40.5158Z" fill="#696464"/>
</g>
<circle cx="50" cy="25" r="6" fill="#C4C4C4" stroke="#FAFEFC" stroke-width="2"/>
<defs>
<clipPath id="clip0_496_1459">
<rect width="24" height="24" fill="white" transform="translate(26 20)"/>
</clipPath>
</defs>
</svg>
