<svg width="28" height="26" viewBox="0 0 28 26" fill="none" xmlns="http://www.w3.org/2000/svg">
<path d="M21.8573 19.4858C20.0733 16.5109 18.9999 15.212 18.9999 12C18.9981 10.3176 18.3908 8.69203 17.2891 7.42049C16.1874 6.14896 14.6649 5.31639 12.9999 5.075V5C12.9999 4.73478 12.8945 4.48043 12.707 4.29289C12.5195 4.10536 12.2651 4 11.9999 4C11.7347 4 11.4803 4.10536 11.2928 4.29289C11.1052 4.48043 10.9999 4.73478 10.9999 5V5.0792C9.32456 5.39644 7.81101 6.28462 6.717 7.59247C5.62298 8.90033 5.01616 10.547 4.99988 12.252C4.99988 15.212 3.73788 16.826 2.14248 19.4859C2.05154 19.6376 2.00247 19.8108 2.00029 19.9876C1.9981 20.1645 2.04288 20.3388 2.13005 20.4928C2.21721 20.6467 2.34365 20.7747 2.49646 20.8638C2.64927 20.953 2.82299 20.9999 2.99988 21H20.9999C21.1768 21 21.3505 20.953 21.5034 20.8639C21.6562 20.7747 21.7826 20.6467 21.8698 20.4927C21.957 20.3388 22.0017 20.1645 21.9995 19.9876C21.9973 19.8107 21.9483 19.6375 21.8573 19.4858Z" fill="#384144"/>
<path d="M14 22H10C9.73478 22 9.48043 22.1054 9.29289 22.2929C9.10536 22.4805 9 22.7348 9 23C9 23.2652 9.10536 23.5196 9.29289 23.7071C9.48043 23.8947 9.73478 24 10 24H14C14.2652 24 14.5196 23.8947 14.7071 23.7071C14.8946 23.5196 15 23.2652 15 23C15 22.7348 14.8946 22.4805 14.7071 22.2929C14.5196 22.1054 14.2652 22 14 22Z" fill="#384144"/>
<circle cx="21" cy="7" r="6" fill="#FEC54B" stroke="#FAFEFC" stroke-width="2"/>
</svg>
