<svg width="21" height="19" viewBox="0 0 21 19" fill="none" xmlns="http://www.w3.org/2000/svg">
<path d="M19.3406 1.65876C18.2744 0.596464 16.8307 0 15.3256 0C13.8205 0 12.3767 0.596464 11.3105 1.65876L10.5 2.46927L9.6895 1.65876C8.62329 0.596464 7.17954 0 5.67445 0C4.16937 0 2.72562 0.596464 1.65941 1.65876C0.596654 2.72625 0 4.17124 0 5.67756C0 7.18387 0.596654 8.62886 1.65941 9.69635L9.96717 18.0041C10.0369 18.0745 10.1199 18.1303 10.2114 18.1684C10.3028 18.2065 10.4009 18.2261 10.5 18.2261C10.5991 18.2261 10.6972 18.2065 10.7886 18.1684C10.8801 18.1303 10.9631 18.0745 11.0328 18.0041L19.3406 9.69635C20.4034 8.62886 21 7.18387 21 5.67756C21 4.17124 20.4034 2.72625 19.3406 1.65876Z" fill="#F2F2F2"/>
</svg>
