<svg width="72" height="72" viewBox="0 0 72 72" fill="none" xmlns="http://www.w3.org/2000/svg">
<path d="M66.7324 50.5531C69.6368 50.5531 72 47.4372 72 43.6059C72 41.7508 71.4519 40.0044 70.4566 38.6931L60.5276 25.5937C59.2502 23.907 57.5501 22.9787 55.742 22.9787C53.9338 22.9787 52.2337 23.907 50.9563 25.5937L48.758 28.4936C48.6767 26.3933 47.9683 24.4095 46.771 23.0063L29.2169 2.42349C27.885 0.860935 26.1697 0 24.3871 0C22.6046 0 20.8893 0.860935 19.5573 2.42349L2.0033 23.0063C0.730527 24.4984 7.65651e-05 26.6446 7.65651e-05 28.8904C7.65651e-05 33.2333 2.67801 36.7659 5.97026 36.7659H17.4194V40.3215C17.4194 42.9089 17.1581 45.4856 16.6425 47.9811L14.1934 59.8243C14.0226 60.6515 13.9355 61.5048 13.9355 62.3627C13.9355 64.9041 14.6904 67.2127 15.9144 68.9361H4.64523V71.9999H21.2424H27.5331H67.3548V68.9361H64.6177C64.8755 68.2299 65.0323 67.4486 65.0323 66.6137C65.0323 65.9274 64.9347 65.2549 64.7408 64.613C63.3925 60.1705 62.7097 55.492 62.7097 50.7063V50.5531H66.7324ZM36.8269 15.4448L42.0097 21.5218C41.3582 22.4303 40.4513 22.9787 39.4839 22.9787C37.5631 22.9787 36 20.9167 36 18.383C36 17.2968 36.3043 16.2659 36.8269 15.4448ZM15.0515 11.8049C15.0632 11.9566 15.0968 12.1021 15.0968 12.2553C15.0968 14.7891 13.5337 16.851 11.613 16.851C11.3575 16.851 11.1066 16.7928 10.8593 16.7208L15.0515 11.8049ZM5.54175 33.6699C3.7313 33.3896 2.32265 31.3537 2.32265 28.8904C2.32265 27.5178 2.76859 26.2064 3.54665 25.2934L8.90252 19.0141C9.73516 19.5962 10.6642 19.9149 11.613 19.9149C14.8146 19.9149 17.4194 16.4788 17.4194 12.2553C17.4194 11.3071 17.2789 10.3711 17.0223 9.4948L21.1007 4.71217C22.9135 2.58434 25.862 2.58434 27.6736 4.71217L35.0826 13.3996C34.1861 14.7799 33.6775 16.5416 33.6775 18.383C33.6775 22.6064 36.2822 26.0425 39.4839 26.0425C41.119 26.0425 42.66 25.1127 43.7482 23.5593L45.2276 25.295C46.0057 26.2064 46.4516 27.5193 46.4516 28.8904C46.4516 31.5222 44.8421 33.6669 42.8528 33.7021C39.1529 33.673 35.9246 32.3096 32.5069 30.8635C30.9995 30.2262 29.4678 29.5843 27.8652 29.0359C27.8362 24.8461 25.2477 21.4468 22.0646 21.4468C19.1881 21.4468 16.8097 24.2287 16.3545 27.8563C10.2519 28.8597 6.69026 32.3494 5.54175 33.6699ZM31.6092 33.7021H31.3549V33.5964C31.4397 33.6316 31.5244 33.6669 31.6092 33.7021ZM25.4892 28.3297C23.7055 27.8732 21.8161 27.5744 19.742 27.5744C19.4145 27.5744 19.1033 27.5928 18.7874 27.6066C19.2612 25.8112 20.5433 24.5106 22.0646 24.5106C23.7844 24.5106 25.207 26.1651 25.4892 28.3297ZM9.68871 33.7021C11.4492 32.4796 14.0226 31.2127 17.4194 30.793V33.7021H9.68871ZM27.5319 68.9361H21.2424C18.4936 68.9361 16.2581 65.9872 16.2581 62.3627C16.2581 61.7775 16.3174 61.1953 16.4335 60.6316L18.8826 48.7868C19.4528 46.0309 19.742 43.1831 19.742 40.323V30.6383C23.2108 30.6383 26.2057 31.5421 29.0323 32.6451V40.3215C29.0323 43.1816 29.3215 46.0309 29.8917 48.7853L32.3408 60.6316C32.4569 61.1953 32.5162 61.7775 32.5162 62.3627C32.5162 65.9872 30.2807 68.9361 27.5319 68.9361ZM32.8599 68.9361C34.0839 67.2127 34.8387 64.9041 34.8387 62.3627C34.8387 61.5048 34.7517 60.6515 34.5809 59.8273L32.1318 47.9826C31.6162 45.4871 31.3549 42.9104 31.3549 40.323V36.7659H42.487L41.0261 38.6931C40.032 40.0044 39.4839 41.7508 39.4839 43.6059C39.4839 47.4372 41.8471 50.5531 44.7515 50.5531H48.7742V50.7063C48.7742 55.492 48.0914 60.172 46.742 64.6161C46.5492 65.2564 46.4516 65.9274 46.4516 66.6137C46.4516 67.4486 46.6084 68.2299 46.8662 68.9361H32.8599ZM60.3871 50.5531V50.7063C60.3871 55.8842 61.1269 60.9456 62.5831 65.7497C62.6667 66.027 62.7097 66.3181 62.7097 66.6137C62.7097 67.8944 61.92 68.9361 60.9492 68.9361H50.5347C49.5639 68.9361 48.7742 67.8944 48.7742 66.6137C48.7742 66.3181 48.8172 66.0255 48.8996 65.7513C50.3571 60.9441 51.0968 55.8827 51.0968 50.7063V50.5531H55.742V47.4893H44.7515C43.128 47.4893 41.8065 45.746 41.8065 43.6059C41.8065 42.5688 42.1131 41.5945 42.6693 40.8592L52.5983 27.7598C54.2776 25.5462 57.2063 25.5462 58.8856 27.7598L68.8146 40.8592C69.3708 41.593 69.6774 42.5688 69.6774 43.6059C69.6774 45.746 68.3559 47.4893 66.7324 47.4893H58.0645V50.5531H60.3871Z" fill="#E67F1E"/>
<path d="M58.2225 55.0003L55.9116 55.299C56.1519 58.5222 56.6513 61.7208 57.3934 64.8046L59.6068 63.8778C58.9123 60.9978 58.4467 58.0121 58.2225 55.0003Z" fill="#E67F1E"/>
<path d="M71.9999 68.9361H69.6773V71.9999H71.9999V68.9361Z" fill="#E67F1E"/>
<path d="M2.32258 68.9361H0V71.9999H2.32258V68.9361Z" fill="#E67F1E"/>
<path d="M6.96759 27.5745H4.64501V30.6383H6.96759V27.5745Z" fill="#E67F1E"/>
<path d="M24.387 9.19149H22.0645V12.2553H24.387V9.19149Z" fill="#E67F1E"/>
<path d="M30.1936 18.383H27.871V21.4468H30.1936V18.383Z" fill="#E67F1E"/>
<path d="M44.1291 27.5745H41.8065V30.6383H44.1291V27.5745Z" fill="#E67F1E"/>
<path d="M46.4515 41.3617H44.1289V44.4255H46.4515V41.3617Z" fill="#E67F1E"/>
<path d="M53.4196 36.7659H51.097V39.8298H53.4196V36.7659Z" fill="#E67F1E"/>
<path d="M58.0646 41.3617H55.742V44.4255H58.0646V41.3617Z" fill="#E67F1E"/>
<path d="M65.032 38.2979H62.7094V41.3617H65.032V38.2979Z" fill="#E67F1E"/>
<path d="M56.9031 29.1064H54.5805V32.1702H56.9031V29.1064Z" fill="#E67F1E"/>
</svg>
