<svg width="40" height="40" viewBox="0 0 40 40" fill="none" xmlns="http://www.w3.org/2000/svg">
<path d="M37.0735 28.0851C38.6871 28.0851 40 26.354 40 24.2255C40 23.1949 39.6955 22.2247 39.1426 21.4962L33.6264 14.2187C32.9167 13.2817 31.9722 12.7659 30.9677 12.7659C29.9632 12.7659 29.0187 13.2817 28.309 14.2187L27.0877 15.8298C27.0426 14.663 26.649 13.5608 25.9839 12.7813L16.2316 1.34638C15.4916 0.478297 14.5387 0 13.5484 0C12.5581 0 11.6052 0.478297 10.8652 1.34638L1.1129 12.7813C0.405806 13.6102 0 14.8025 0 16.0502C0 18.463 1.48774 20.4255 3.31677 20.4255H9.67741V22.4008C9.67741 23.8383 9.53225 25.2698 9.2458 26.6561L7.88515 33.2357C7.79032 33.6953 7.74193 34.1693 7.74193 34.6459C7.74193 36.0578 8.16128 37.3404 8.84128 38.2978H2.58064V40H11.8013H15.2961H37.4193V38.2978H35.8987C36.0419 37.9055 36.129 37.4715 36.129 37.0076C36.129 36.6264 36.0748 36.2527 35.9671 35.8961C35.218 33.4281 34.8387 30.8289 34.8387 28.1702V28.0851H37.0735ZM20.4593 8.58042L23.3387 11.9566C22.9768 12.4613 22.4729 12.7659 21.9355 12.7659C20.8684 12.7659 20 11.6204 20 10.2128C20 9.60935 20.169 9.03659 20.4593 8.58042ZM8.36193 6.55829C8.36838 6.64255 8.38709 6.7234 8.38709 6.80851C8.38709 8.21616 7.5187 9.36169 6.45161 9.36169C6.30967 9.36169 6.17032 9.32936 6.0329 9.28936L8.36193 6.55829ZM3.07871 18.7055C2.0729 18.5498 1.29032 17.4187 1.29032 16.0502C1.29032 15.2876 1.53806 14.5591 1.97032 14.0519L4.9458 10.5634C5.40838 10.8868 5.92451 11.0638 6.45161 11.0638C8.23032 11.0638 9.67741 9.15489 9.67741 6.80851C9.67741 6.2817 9.59935 5.7617 9.45677 5.27489L11.7226 2.61787C12.7297 1.43574 14.3677 1.43574 15.3742 2.61787L19.4903 7.44425C18.9922 8.21106 18.7097 9.18978 18.7097 10.2128C18.7097 12.5591 20.1568 14.4681 21.9355 14.4681C22.8439 14.4681 23.7 13.9515 24.3045 13.0885L25.1264 14.0528C25.5587 14.5591 25.8064 15.2885 25.8064 16.0502C25.8064 17.5123 24.9122 18.7038 23.8071 18.7234C21.7516 18.7072 19.958 17.9498 18.0593 17.1464C17.2219 16.7923 16.371 16.4357 15.4806 16.1311C15.4645 13.8034 14.0264 11.9149 12.2581 11.9149C10.66 11.9149 9.3387 13.4604 9.0858 15.4757C5.69548 16.0332 3.71677 17.9719 3.07871 18.7055ZM17.5606 18.7234H17.4193V18.6647C17.4664 18.6842 17.5135 18.7038 17.5606 18.7234ZM14.1606 15.7387C13.1697 15.4851 12.12 15.3191 10.9677 15.3191C10.7858 15.3191 10.6129 15.3294 10.4374 15.337C10.7006 14.3396 11.4129 13.617 12.2581 13.617C13.2135 13.617 14.0039 14.5362 14.1606 15.7387ZM5.38258 18.7234C6.36064 18.0442 7.79032 17.3404 9.67741 17.1072V18.7234H5.38258ZM15.2955 38.2978H11.8013C10.2742 38.2978 9.03225 36.6595 9.03225 34.6459C9.03225 34.3208 9.06515 33.9974 9.12967 33.6842L10.4903 27.1038C10.8071 25.5727 10.9677 23.9906 10.9677 22.4017V17.0213C12.8948 17.0213 14.5587 17.5234 16.129 18.1362V22.4008C16.129 23.9898 16.2897 25.5727 16.6064 27.103L17.9671 33.6842C18.0316 33.9974 18.0645 34.3208 18.0645 34.6459C18.0645 36.6595 16.8226 38.2978 15.2955 38.2978ZM18.2555 38.2978C18.9355 37.3404 19.3548 36.0578 19.3548 34.6459C19.3548 34.1693 19.3064 33.6953 19.2116 33.2374L17.851 26.657C17.5645 25.2706 17.4193 23.8391 17.4193 22.4017V20.4255H23.6039L22.7922 21.4962C22.24 22.2247 21.9355 23.1949 21.9355 24.2255C21.9355 26.354 23.2484 28.0851 24.8619 28.0851H27.0968V28.1702C27.0968 30.8289 26.7174 33.4289 25.9677 35.8978C25.8606 36.2536 25.8064 36.6264 25.8064 37.0076C25.8064 37.4715 25.8935 37.9055 26.0368 38.2978H18.2555ZM33.5484 28.0851V28.1702C33.5484 31.0468 33.9593 33.8587 34.7684 36.5276C34.8148 36.6817 34.8387 36.8434 34.8387 37.0076C34.8387 37.7191 34.4 38.2978 33.8606 38.2978H28.0748C27.5355 38.2978 27.0968 37.7191 27.0968 37.0076C27.0968 36.8434 27.1206 36.6808 27.1664 36.5285C27.9761 33.8578 28.3871 31.0459 28.3871 28.1702V28.0851H30.9677V26.383H24.8619C23.96 26.383 23.2258 25.4144 23.2258 24.2255C23.2258 23.6493 23.3961 23.1081 23.7051 22.6996L29.2213 15.4221C30.1542 14.1923 31.7813 14.1923 32.7142 15.4221L38.2303 22.6996C38.5393 23.1072 38.7096 23.6493 38.7096 24.2255C38.7096 25.4144 37.9755 26.383 37.0735 26.383H32.258V28.0851H33.5484Z" fill="#41033D"/>
<path d="M32.3459 30.5557L31.062 30.7217C31.1955 32.5123 31.473 34.2893 31.8852 36.0025L33.1149 35.4876C32.7291 33.8876 32.4704 32.2289 32.3459 30.5557Z" fill="#41033D"/>
<path d="M40 38.2978H38.7097V40H40V38.2978Z" fill="#41033D"/>
<path d="M1.29032 38.2978H0V40H1.29032V38.2978Z" fill="#41033D"/>
<path d="M3.87089 15.3191H2.58056V17.0213H3.87089V15.3191Z" fill="#41033D"/>
<path d="M13.5484 5.10638H12.258V6.80851H13.5484V5.10638Z" fill="#41033D"/>
<path d="M16.7742 10.2128H15.4839V11.9149H16.7742V10.2128Z" fill="#41033D"/>
<path d="M24.5161 15.3191H23.2258V17.0213H24.5161V15.3191Z" fill="#41033D"/>
<path d="M25.8064 22.9787H24.5161V24.6808H25.8064V22.9787Z" fill="#41033D"/>
<path d="M29.6775 20.4255H28.3872V22.1276H29.6775V20.4255Z" fill="#41033D"/>
<path d="M32.2581 22.9787H30.9677V24.6808H32.2581V22.9787Z" fill="#41033D"/>
<path d="M36.1289 21.2766H34.8386V22.9787H36.1289V21.2766Z" fill="#41033D"/>
<path d="M31.6128 16.1702H30.3225V17.8723H31.6128V16.1702Z" fill="#41033D"/>
</svg>
