<svg width="125" height="105" viewBox="0 0 125 105" fill="none" xmlns="http://www.w3.org/2000/svg">
<path d="M111.572 14.6484H87.1123L84.7336 7.5122C83.2356 3.0188 79.0469 0 74.3108 0H50.6892C45.9531 0 41.7644 3.0188 40.2666 7.5122L37.8877 14.6484H31.9824V8.54492C31.9824 3.83325 28.1492 0 23.4375 0H18.5547C13.843 0 10.0098 3.83325 10.0098 8.54492V15.0908C4.25586 16.6064 0 21.853 0 28.0762V91.5527C0 98.9568 6.02368 104.98 13.4277 104.98H111.572C118.976 104.98 125 98.9568 125 91.5527V28.0762C125 20.6721 118.976 14.6484 111.572 14.6484ZM17.334 8.54492C17.334 7.87182 17.8816 7.32422 18.5547 7.32422H23.4375C24.1106 7.32422 24.6582 7.87182 24.6582 8.54492V14.6484H17.334V8.54492ZM117.676 91.5527C117.676 94.9182 114.938 97.6562 111.572 97.6562H13.4277C10.0623 97.6562 7.32422 94.9182 7.32422 91.5527V28.0762C7.32422 24.7107 10.0623 21.9727 13.4277 21.9727H40.5273C42.1035 21.9727 43.5029 20.9641 44.0015 19.4685L47.2148 9.82837C47.7143 8.33057 49.1103 7.32422 50.6892 7.32422H74.3108C75.8896 7.32422 77.2859 8.33056 77.7849 9.82812L80.9983 19.4685C81.4971 20.9641 82.8965 21.9727 84.4726 21.9727H111.572C114.938 21.9727 117.676 24.7107 117.676 28.0762V91.5527Z" fill="#696464"/>
<path d="M106.445 36.6211C108.468 36.6211 110.107 34.9815 110.107 32.959C110.107 30.9364 108.468 29.2969 106.445 29.2969C104.423 29.2969 102.783 30.9364 102.783 32.959C102.783 34.9815 104.423 36.6211 106.445 36.6211Z" fill="#696464"/>
<path d="M25.8789 29.2969H18.5547C16.5322 29.2969 14.8926 30.9365 14.8926 32.959C14.8926 34.9814 16.5322 36.6211 18.5547 36.6211H25.8789C27.9014 36.6211 29.541 34.9814 29.541 32.959C29.541 30.9365 27.9014 29.2969 25.8789 29.2969Z" fill="#696464"/>
<path d="M62.5 90.332C44.3264 90.332 29.541 75.5466 29.541 57.373C29.541 39.1994 44.3264 24.414 62.5 24.414C80.6736 24.414 95.459 39.1994 95.459 57.373C95.459 75.5466 80.6736 90.332 62.5 90.332ZM62.5 31.7383C48.365 31.7383 36.8653 43.238 36.8653 57.373C36.8653 71.508 48.365 83.0078 62.5 83.0078C76.635 83.0078 88.1348 71.508 88.1348 57.373C88.1348 43.238 76.635 31.7383 62.5 31.7383Z" fill="#696464"/>
<path d="M62.5 75.6836C52.4036 75.6836 44.1895 67.4695 44.1895 57.373C44.1895 47.2766 52.4036 39.0625 62.5 39.0625C72.5965 39.0625 80.8106 47.2766 80.8106 57.373C80.8106 67.4695 72.5965 75.6836 62.5 75.6836ZM62.5 46.3867C56.4422 46.3867 51.5137 51.3152 51.5137 57.373C51.5137 63.4309 56.4422 68.3594 62.5 68.3594C68.5579 68.3594 73.4863 63.4309 73.4863 57.373C73.4863 51.3152 68.5579 46.3867 62.5 46.3867Z" fill="#696464"/>
</svg>
