<svg width="260" height="338" viewBox="0 0 260 338" fill="none" xmlns="http://www.w3.org/2000/svg">
<path d="M20.9136 151.424C19.8675 152.647 18.0396 152.802 16.8343 151.77C15.6291 150.739 15.4998 148.909 16.5459 147.687C17.592 146.464 19.4199 146.309 20.6252 147.34C21.8304 148.372 21.9597 150.202 20.9136 151.424Z" fill="#5186F2"/>
<path d="M34.7892 247.834C33.7802 248.706 32.2626 248.607 31.4025 247.612C30.5424 246.617 30.6633 245.101 31.6723 244.229C32.6813 243.356 34.1989 243.456 35.059 244.45C35.9191 245.445 35.7982 246.961 34.7892 247.834Z" fill="#5186F2"/>
<path d="M96.0418 271.318C95.0096 271.883 93.7194 271.516 93.1624 270.498C92.6054 269.48 92.9912 268.196 94.0233 267.631C95.0555 267.066 96.3457 267.433 96.9027 268.451C97.4597 269.468 97.0739 270.753 96.0418 271.318Z" fill="#5186F2"/>
<path d="M125.838 242.87C124.357 243.686 122.501 243.163 121.696 241.703C120.891 240.243 121.44 238.394 122.922 237.578C124.403 236.762 126.259 237.285 127.063 238.745C127.868 240.205 127.319 242.054 125.838 242.87Z" fill="#5186F2"/>
<path d="M137.979 268.221C136.646 269.262 134.731 269.041 133.704 267.727C132.678 266.413 132.926 264.501 134.259 263.46C135.591 262.418 137.507 262.64 138.533 263.953C139.56 265.267 139.311 267.179 137.979 268.221Z" fill="#5186F2"/>
<path d="M227.618 300.302C226.389 301.464 224.461 301.424 223.316 300.213C222.17 299.002 222.237 297.075 223.465 295.913C224.694 294.751 226.621 294.79 227.767 296.001C228.913 297.213 228.846 299.14 227.618 300.302Z" fill="#5186F2"/>
<path d="M63.3974 307.2C61.837 307.852 60.0482 307.133 59.4054 305.594C58.7626 304.056 59.5076 302.277 61.068 301.625C62.6284 300.973 64.4172 301.693 65.06 303.232C65.7028 304.77 64.9578 306.548 63.3974 307.2Z" fill="#5186F2"/>
<path d="M92.0168 290.14C90.6661 291.158 88.7549 290.903 87.7516 289.571C86.7483 288.239 87.0303 286.332 88.381 285.314C89.7317 284.297 91.6429 284.552 92.6462 285.883C93.6495 287.215 93.3675 289.122 92.0168 290.14Z" fill="#5186F2"/>
<path d="M13.0106 246.329C11.3863 246.8 9.6907 245.882 9.22666 244.28C8.76262 242.679 9.70467 240.996 11.329 240.526C12.9533 240.055 14.6489 240.973 15.1129 242.575C15.577 244.176 14.6349 245.858 13.0106 246.329Z" fill="#5186F2"/>
<path d="M12.0086 218.919C10.3861 218.442 9.45037 216.756 9.92044 215.157C10.3905 213.557 12.0895 212.645 13.7121 213.122C15.3346 213.599 16.2703 215.285 15.8002 216.884C15.3301 218.484 13.6311 219.396 12.0086 218.919Z" fill="#5186F2"/>
<path d="M47.1446 263.815C45.4589 263.68 44.1986 262.221 44.3321 260.559C44.4656 258.897 45.9426 257.657 47.6283 257.793C49.314 257.928 50.5743 259.387 50.4408 261.049C50.3073 262.711 48.8303 263.951 47.1446 263.815Z" fill="#5186F2"/>
<path d="M241.581 204.435C240.028 205.103 238.232 204.402 237.573 202.87C236.914 201.339 237.64 199.553 239.194 198.884C240.747 198.216 242.544 198.917 243.203 200.449C243.861 201.98 243.135 203.766 241.581 204.435Z" fill="#5186F2"/>
<path d="M242.206 130.974C240.855 131.992 238.944 131.737 237.94 130.405C236.937 129.074 237.219 127.166 238.57 126.149C239.92 125.131 241.832 125.386 242.835 126.718C243.838 128.049 243.556 129.957 242.206 130.974Z" fill="#5186F2"/>
<path d="M195.576 29.3259C194.989 30.9122 193.244 31.731 191.68 31.1532C190.116 30.5754 189.322 28.8182 189.908 27.2319C190.494 25.6456 192.24 24.8268 193.804 25.4046C195.368 25.9824 196.162 27.7396 195.576 29.3259Z" fill="#5186F2"/>
<path d="M180.486 83.3727C179.684 84.6295 178.026 85.0078 176.787 84.2168C175.548 83.4259 175.193 81.7633 175.995 80.5064C176.798 79.2496 178.455 78.8713 179.694 79.6623C180.933 80.4532 181.288 82.1158 180.486 83.3727Z" fill="#5186F2"/>
<path d="M101.372 169.047C100.686 169.89 99.4536 170.025 98.6223 169.348C97.791 168.671 97.6734 167.437 98.36 166.594C99.0465 165.751 100.279 165.616 101.11 166.293C101.941 166.969 102.059 168.204 101.372 169.047Z" fill="#5186F2"/>
<path d="M121.895 1.31863C122.258 2.3435 121.733 3.46636 120.722 3.82446C119.712 4.18257 118.596 3.64121 118.233 2.61635C117.87 1.59149 118.395 0.468622 119.406 0.110518C120.416 -0.247587 121.532 0.293769 121.895 1.31863Z" fill="#5186F2"/>
<path d="M149.205 86.2034C148.902 87.2476 147.82 87.8528 146.79 87.5539C145.761 87.255 145.171 86.1645 145.474 85.1203C145.777 84.0761 146.859 83.471 147.889 83.7698C148.918 84.0687 149.508 85.1592 149.205 86.2034Z" fill="#5186F2"/>
<path d="M163.589 89.4331C162.837 90.2184 161.597 90.2539 160.823 89.5124C160.049 88.7709 160.031 87.5313 160.783 86.746C161.535 85.9607 162.774 85.9252 163.549 86.6667C164.323 87.4082 164.341 88.6478 163.589 89.4331Z" fill="#5186F2"/>
<path d="M217.299 98.0191C216.468 98.7203 215.232 98.6243 214.541 97.805C213.85 96.9857 213.963 95.7512 214.794 95.05C215.625 94.3488 216.861 94.4447 217.552 95.264C218.244 96.0833 218.13 97.3179 217.299 98.0191Z" fill="#5186F2"/>
<path d="M120.702 173.595C120.15 174.531 118.952 174.85 118.028 174.306C117.104 173.762 116.803 172.559 117.355 171.623C117.907 170.686 119.105 170.367 120.028 170.911C120.952 171.455 121.254 172.658 120.702 173.595Z" fill="#5186F2"/>
<path d="M121.51 175.025C121.013 175.4 120.309 175.306 119.94 174.815C119.57 174.325 119.674 173.622 120.171 173.247C120.669 172.873 121.373 172.967 121.742 173.457C122.112 173.947 122.008 174.65 121.51 175.025Z" fill="#5186F2"/>
<path d="M121.952 98.4746C121.924 99.0968 121.403 99.5792 120.789 99.551C120.176 99.5229 119.701 98.9949 119.729 98.3727C119.758 97.7505 120.279 97.2681 120.893 97.2963C121.506 97.3244 121.981 97.8524 121.952 98.4746Z" fill="#5186F2"/>
<path d="M77.8767 227.363C77.6818 227.954 77.05 228.279 76.4668 228.087C75.8835 227.894 75.5682 227.258 75.7631 226.666C75.958 226.075 76.5898 225.751 77.1731 225.943C77.7563 226.135 78.0716 226.771 77.8767 227.363Z" fill="#5186F2"/>
<path d="M15.2329 250.021C14.6947 250.334 14.0067 250.158 13.6977 249.627C13.3886 249.096 13.5747 248.411 14.1129 248.098C14.6511 247.784 15.3391 247.96 15.6481 248.491C15.9572 249.022 15.7711 249.707 15.2329 250.021Z" fill="#5186F2"/>
<path d="M131.696 293.622C131.198 293.997 130.494 293.903 130.125 293.413C129.755 292.922 129.859 292.22 130.356 291.845C130.854 291.47 131.558 291.564 131.927 292.054C132.297 292.545 132.193 293.247 131.696 293.622Z" fill="#5186F2"/>
<path d="M163.768 252.926C163.471 253.474 162.792 253.681 162.252 253.388C161.712 253.095 161.515 252.413 161.812 251.866C162.109 251.318 162.788 251.111 163.328 251.404C163.868 251.696 164.065 252.379 163.768 252.926Z" fill="#5186F2"/>
<path d="M170.361 146.456C170.621 147.022 170.38 147.69 169.822 147.947C169.264 148.204 168.6 147.953 168.339 147.387C168.079 146.821 168.32 146.153 168.878 145.896C169.436 145.64 170.1 145.89 170.361 146.456Z" fill="#5186F2"/>
<path d="M208.787 210.392C208.789 211.015 208.292 211.522 207.677 211.524C207.063 211.526 206.563 211.022 206.561 210.399C206.559 209.776 207.056 209.269 207.671 209.267C208.285 209.265 208.785 209.769 208.787 210.392Z" fill="#5186F2"/>
<path d="M212.828 152.671C213.088 153.237 212.847 153.905 212.289 154.161C211.731 154.418 211.067 154.167 210.807 153.602C210.546 153.036 210.787 152.368 211.345 152.111C211.903 151.854 212.567 152.105 212.828 152.671Z" fill="#5186F2"/>
<path d="M116.073 72.8273C115.987 73.4441 115.422 73.8754 114.814 73.7899C114.206 73.7044 113.783 73.1342 113.87 72.5174C113.956 71.9006 114.52 71.4693 115.129 71.5548C115.737 71.6403 116.16 72.2105 116.073 72.8273Z" fill="#5186F2"/>
<path d="M116.001 54.2191C115.764 54.7952 115.111 55.0737 114.543 54.8404C113.975 54.6071 113.705 53.9499 113.942 53.3738C114.179 52.7976 114.832 52.5192 115.4 52.7524C115.968 52.9857 116.237 53.6429 116.001 54.2191Z" fill="#5186F2"/>
<path d="M204.493 101.862C204.054 102.303 203.344 102.311 202.908 101.878C202.473 101.445 202.475 100.735 202.914 100.293C203.354 99.8511 204.064 99.8439 204.499 100.277C204.935 100.71 204.932 101.42 204.493 101.862Z" fill="#5186F2"/>
<path d="M206.191 60.7355C206.127 61.355 205.578 61.8062 204.967 61.7425C204.357 61.6788 203.913 61.124 203.978 60.5045C204.043 59.885 204.591 59.4338 205.202 59.4975C205.813 59.5613 206.256 60.116 206.191 60.7355Z" fill="#5186F2"/>
<path d="M70.8545 25.409C70.8398 26.0317 70.3295 26.5255 69.7155 26.5111C69.1016 26.4966 68.6151 25.9793 68.6298 25.3566C68.6444 24.7339 69.1548 24.2401 69.7687 24.2546C70.3826 24.269 70.8692 24.7864 70.8545 25.409Z" fill="#5186F2"/>
<path d="M82.1796 64.5717C81.9637 65.156 81.3207 65.4576 80.7447 65.2447C80.1687 65.0319 79.8763 64.3847 80.0921 63.8005C80.308 63.2162 80.9509 62.9146 81.527 63.1275C82.103 63.3403 82.3954 63.9875 82.1796 64.5717Z" fill="#5186F2"/>
<path d="M168.74 124.356C168.301 125.078 167.368 125.312 166.656 124.88C165.945 124.447 165.724 123.51 166.162 122.789C166.601 122.067 167.535 121.833 168.246 122.265C168.957 122.698 169.179 123.635 168.74 124.356Z" fill="#5186F2"/>
<path d="M227.4 127.828C227.468 128.724 226.807 129.506 225.925 129.573C225.042 129.641 224.269 128.969 224.201 128.073C224.132 127.178 224.793 126.396 225.676 126.329C226.559 126.261 227.331 126.933 227.4 127.828Z" fill="#5186F2"/>
<path d="M237.788 215.392C237.375 216.304 236.309 216.714 235.409 216.306C234.51 215.899 234.115 214.827 234.528 213.915C234.942 213.003 236.008 212.593 236.907 213C237.807 213.408 238.201 214.479 237.788 215.392Z" fill="#5186F2"/>
<path d="M62.9709 126.422C63.4523 128.043 62.5454 129.745 60.9471 130.219C59.3487 130.694 57.6601 129.763 57.1787 128.142C56.6973 126.521 57.6042 124.819 59.2025 124.344C60.8009 123.87 62.4895 124.801 62.9709 126.422Z" fill="#5186F2"/>
<path d="M158.603 256.792C157.043 257.444 155.254 256.725 154.611 255.186C153.968 253.648 154.713 251.869 156.274 251.217C157.834 250.565 159.623 251.285 160.266 252.823C160.909 254.362 160.164 256.14 158.603 256.792Z" fill="#5186F2"/>
<path d="M82.573 100.801C81.946 102.186 80.3288 102.808 78.9641 102.189C77.5993 101.571 77.0003 99.9453 77.6273 98.5611C78.2543 97.1768 79.8715 96.5548 81.2362 97.173C82.601 97.7912 83.2 99.417 82.573 100.801Z" fill="#5186F2"/>
<path d="M194.323 122.053C193.266 123.373 191.351 123.599 190.049 122.557C188.748 121.515 188.549 119.597 189.607 118.277C190.664 116.957 192.579 116.731 193.88 117.773C195.181 118.815 195.38 120.733 194.323 122.053Z" fill="#5186F2"/>
<path d="M170.908 196.606C169.522 197.574 167.621 197.251 166.666 195.885C165.711 194.518 166.061 192.622 167.447 191.653C168.833 190.684 170.734 191.008 171.689 192.374C172.644 193.741 172.294 195.637 170.908 196.606Z" fill="#5186F2"/>
<path d="M132.604 140.486L127.921 141.461L123.237 142.437L124.734 137.893L126.231 133.349L129.418 136.917L132.604 140.486Z" fill="#F1BD42"/>
<path d="M129.072 224.694L125.512 221.497L121.953 218.301L126.501 216.816L131.049 215.332L130.06 220.013L129.072 224.694Z" fill="#F1BD42"/>
<path d="M60.435 104.382L56.6306 101.481L52.8262 98.5802L57.2405 96.7358L61.6548 94.8914L61.0449 99.6365L60.435 104.382Z" fill="#F1BD42"/>
<path d="M145.086 72.1283L140.461 70.9042L135.837 69.6801L139.209 66.287L142.582 62.8938L143.834 67.5111L145.086 72.1283Z" fill="#F1BD42"/>
<path d="M233.77 80.6827L229.591 78.3529L225.413 76.0232L229.519 73.5694L233.626 71.1156L233.698 75.8992L233.77 80.6827Z" fill="#F1BD42"/>
<path d="M76.0399 206.274L71.3941 207.416L66.7483 208.558L68.0821 203.964L69.4159 199.369L72.7279 202.822L76.0399 206.274Z" fill="#F1BD42"/>
<path d="M124.638 286.658L119.938 285.767L115.238 284.876L118.36 281.251L121.481 277.626L123.06 282.142L124.638 286.658Z" fill="#F1BD42"/>
<path d="M18.7656 271.724L15.5302 268.2L12.2948 264.676L16.9645 263.636L21.6342 262.596L20.1999 267.16L18.7656 271.724Z" fill="#F1BD42"/>
<path d="M46.0355 167.059L48.8147 170.953L51.594 174.847L46.8321 175.307L42.0702 175.767L44.0528 171.413L46.0355 167.059Z" fill="#F1BD42"/>
<path d="M101.466 118.954L99.3354 114.671L97.2047 110.387L101.98 110.684L106.755 110.98L104.11 114.967L101.466 118.954Z" fill="#F1BD42"/>
<path d="M35.7893 41.4562L31.0404 40.8767L26.2916 40.2971L29.1679 36.4743L32.0443 32.6514L33.9168 37.0538L35.7893 41.4562Z" fill="#F1BD42"/>
<path d="M230.481 243.957L229.602 239.254L228.723 234.551L233.235 236.142L237.747 237.732L234.114 240.844L230.481 243.957Z" fill="#F1BD42"/>
<path d="M177.478 304.907L179.372 300.514L181.267 296.121L184.124 299.958L186.982 303.795L182.23 304.351L177.478 304.907Z" fill="#F1BD42"/>
<path d="M173.797 51.5142L169.032 51.9346L164.266 52.355L166.285 48.0177L168.304 43.6804L171.05 47.5973L173.797 51.5142Z" fill="#F1BD42"/>
<path d="M232.367 121.19L227.586 121.368L222.805 121.546L225.042 117.316L227.278 113.087L229.823 117.139L232.367 121.19Z" fill="#F1BD42"/>
<path d="M99.3521 83.7489L94.9526 85.6283L90.5531 87.5076L91.1253 82.7579L91.6974 78.0081L95.5247 80.8785L99.3521 83.7489Z" fill="#F1BD42"/>
<path d="M53.9389 265.65L49.4342 264.039L44.9295 262.429L48.5769 259.333L52.2242 256.237L53.0816 260.944L53.9389 265.65Z" fill="#F1BD42"/>
<path d="M229.019 192.045L227.607 187.474L226.194 182.904L230.859 183.966L235.523 185.028L232.271 188.536L229.019 192.045Z" fill="#F1BD42"/>
<path d="M91.0538 259.571L94.3984 258.956C94.3984 258.956 88.4119 254.501 89.7297 249.707C91.6109 242.863 87.8201 238.526 87.8201 238.526L84.2854 239.158C84.2854 239.158 86.4712 242.853 85.5176 249.687C84.524 256.809 91.0538 259.571 91.0538 259.571Z" fill="#58A55C"/>
<path d="M219.124 105.38L220.08 101.5C220.08 101.5 212.417 105.761 207.918 102.033C201.496 96.7125 195.02 98.6781 195.02 98.6781L193.989 102.769C193.989 102.769 199.003 102.213 205.863 106.536C213.011 111.04 219.124 105.38 219.124 105.38Z" fill="#58A55C"/>
<path d="M61.5061 115.126L64.1462 111.794C64.1462 111.794 54.848 112.531 52.1412 106.935C48.2778 98.9487 41.1423 97.9892 41.1423 97.9892L38.3367 101.493C38.3367 101.493 43.4348 103.17 48.1629 110.385C53.0901 117.902 61.5061 115.126 61.5061 115.126Z" fill="#58A55C"/>
<path d="M202.428 261.517L204.98 259.269C204.98 259.269 197.555 258.528 196.219 253.738C194.311 246.902 188.83 245.133 188.83 245.133L186.123 247.493C186.123 247.493 189.899 249.538 192.597 255.889C195.408 262.507 202.428 261.517 202.428 261.517Z" fill="#58A55C"/>
<path d="M142.152 178.089L145.497 177.474C145.497 177.474 139.511 173.02 140.828 168.225C142.71 161.381 138.919 157.044 138.919 157.044L135.384 157.676C135.384 157.676 137.57 161.372 136.616 168.206C135.623 175.328 142.152 178.089 142.152 178.089Z" fill="#58A55C"/>
<path d="M221.52 15.9141L222.216 12.5853C222.216 12.5853 215.828 16.4421 211.888 13.4083C206.264 9.07808 200.816 10.9467 200.816 10.9467L200.063 14.4577C200.063 14.4577 204.311 13.8323 210.277 17.3002C216.493 20.9141 221.52 15.9141 221.52 15.9141Z" fill="#58A55C"/>
<path d="M258.185 195.894L260 193.018C260 193.018 252.667 194.399 250.035 190.18C246.279 184.158 240.522 184.005 240.522 184.005L238.59 187.031C238.59 187.031 242.788 187.93 247.166 193.264C251.728 198.822 258.185 195.894 258.185 195.894Z" fill="#58A55C"/>
<path d="M58.6251 324.899L61.6695 323.384C61.6695 323.384 54.6851 320.757 54.6267 315.785C54.5433 308.688 49.7018 305.568 49.7018 305.568L46.4792 307.151C46.4792 307.151 49.6011 310.099 50.5733 316.931C51.5864 324.05 58.6251 324.899 58.6251 324.899Z" fill="#58A55C"/>
<path d="M125.549 275.299L128.918 272.707C128.918 272.707 119.719 271.166 118.451 265.081C116.64 256.396 109.951 253.734 109.951 253.734L106.379 256.452C106.379 256.452 110.918 259.316 113.754 267.462C116.711 275.951 125.549 275.299 125.549 275.299Z" fill="#58A55C"/>
<path d="M2.96383 336.477L7.07562 337.556C7.07562 337.556 2.66406 329.338 6.70013 324.611C12.461 317.863 10.4721 310.944 10.4721 310.944L6.13645 309.783C6.13645 309.783 6.64904 315.125 1.94311 322.354C-2.96087 329.887 2.96383 336.477 2.96383 336.477Z" fill="#58A55C"/>
<path d="M228.442 129.526C228.442 129.526 231.055 129.526 231.86 132.192C232.566 134.528 233.635 134.433 233.635 134.433C233.635 134.433 235.206 131.118 237.317 129.266C238.918 127.86 241.355 127.802 241.355 127.802C241.355 127.802 239.938 127.689 238.291 124.639C237.783 123.7 237.481 121.887 237.481 121.887C237.481 121.887 234.462 123.18 232.45 124.742C230.438 126.303 228.442 129.526 228.442 129.526Z" fill="#D9503F"/>
<path d="M127.338 189.704C127.338 189.704 129.489 191.188 128.638 193.84C127.892 196.165 128.826 196.692 128.826 196.692C128.826 196.692 132.001 194.857 134.791 194.53C136.907 194.283 138.946 195.619 138.946 195.619C138.946 195.619 137.843 194.721 138.22 191.276C138.335 190.214 139.116 188.55 139.116 188.55C139.116 188.55 135.897 187.9 133.354 188.043C130.811 188.186 127.338 189.704 127.338 189.704Z" fill="#D9503F"/>
<path d="M84.0093 158.139C84.0093 158.139 86.5348 157.47 87.9966 159.84C89.278 161.918 90.2859 161.552 90.2859 161.552C90.2859 161.552 90.956 157.946 92.5211 155.614C93.7084 153.845 96.0496 153.164 96.0496 153.164C96.0496 153.164 94.6505 153.418 92.2769 150.892C91.5458 150.114 90.7889 148.439 90.7889 148.439C90.7889 148.439 88.2023 150.463 86.6578 152.488C85.1133 154.513 84.0093 158.139 84.0093 158.139Z" fill="#D9503F"/>
<path d="M3.23386 100.661C3.23386 100.661 5.61989 101.725 5.27021 104.488C4.96363 106.91 5.97822 107.257 5.97822 107.257C5.97822 107.257 8.76334 104.87 11.4454 104.038C13.4799 103.406 15.7297 104.345 15.7297 104.345C15.7297 104.345 14.481 103.665 14.2186 100.209C14.1378 99.1442 14.6 97.3651 14.6 97.3651C14.6 97.3651 11.3164 97.3166 8.84286 97.9239C6.36929 98.5312 3.23386 100.661 3.23386 100.661Z" fill="#D9503F"/>
<path d="M80.3099 51.5809C80.3099 51.5809 77.7687 50.9744 77.6034 48.1946C77.4586 45.7577 76.3974 45.6031 76.3974 45.6031C76.3974 45.6031 74.0996 48.4622 71.6169 49.775C69.7336 50.7708 67.3493 50.2617 67.3493 50.2617C67.3493 50.2617 68.7019 50.7003 69.5965 54.0491C69.872 55.0806 69.7455 56.9144 69.7455 56.9144C69.7455 56.9144 72.9818 56.3571 75.3012 55.3045C77.6205 54.252 80.3099 51.5809 80.3099 51.5809Z" fill="#D9503F"/>
<path d="M31.9212 171.302C31.9212 171.302 31.326 168.758 33.7379 167.366C35.8522 166.145 35.5155 165.127 35.5155 165.127C35.5155 165.127 31.9303 164.352 29.6451 162.72C27.9116 161.481 27.2997 159.121 27.2997 159.121C27.2997 159.121 27.513 160.527 24.9187 162.826C24.1197 163.534 22.4232 164.242 22.4232 164.242C22.4232 164.242 24.3701 166.886 26.3495 168.489C28.3288 170.092 31.9212 171.302 31.9212 171.302Z" fill="#D9503F"/>
<path d="M74.5467 183.494C74.5467 183.494 73.9515 180.95 76.3634 179.558C78.4778 178.338 78.141 177.32 78.141 177.32C78.141 177.32 74.5558 176.545 72.2707 174.912C70.5371 173.674 69.9252 171.314 69.9252 171.314C69.9252 171.314 70.1385 172.72 67.5442 175.019C66.7452 175.727 65.0487 176.434 65.0487 176.434C65.0487 176.434 66.9956 179.079 68.975 180.682C70.9544 182.285 74.5467 183.494 74.5467 183.494Z" fill="#D9503F"/>
<path d="M144.342 182.901C144.342 182.901 141.731 182.998 140.826 180.365C140.033 178.056 138.969 178.192 138.969 178.192C138.969 178.192 137.523 181.563 135.483 183.493C133.936 184.958 131.502 185.107 131.502 185.107C131.502 185.107 132.923 185.167 134.683 188.153C135.225 189.072 135.596 190.873 135.596 190.873C135.596 190.873 138.564 189.468 140.516 187.832C142.468 186.196 144.342 182.901 144.342 182.901Z" fill="#D9503F"/>
<path d="M158.287 205.828C158.287 205.828 157.692 203.284 160.104 201.892C162.218 200.672 161.881 199.653 161.881 199.653C161.881 199.653 158.296 198.878 156.011 197.246C154.277 196.008 153.665 193.647 153.665 193.647C153.665 193.647 153.879 195.053 151.284 197.352C150.485 198.06 148.789 198.768 148.789 198.768C148.789 198.768 150.736 201.413 152.715 203.015C154.695 204.618 158.287 205.828 158.287 205.828Z" fill="#D9503F"/>
<path d="M185.383 126.927C185.383 126.927 183.86 124.804 185.556 122.595C187.042 120.659 186.341 119.847 186.341 119.847C186.341 119.847 182.732 120.503 179.996 119.869C177.921 119.388 176.453 117.442 176.453 117.442C176.453 117.442 177.188 118.659 175.67 121.776C175.203 122.736 173.907 124.039 173.907 124.039C173.907 124.039 176.717 125.737 179.159 126.461C181.602 127.184 185.383 126.927 185.383 126.927Z" fill="#D9503F"/>
<path d="M42.752 101.73C42.752 101.73 40.1472 101.528 39.5497 98.8081C39.026 96.4237 37.9536 96.4368 37.9536 96.4368C37.9536 96.4368 36.1308 99.6198 33.8836 101.304C32.179 102.582 29.7444 102.452 29.7444 102.452C29.7444 102.452 31.1489 102.674 32.5557 105.842C32.989 106.817 33.1505 108.648 33.1505 108.648C33.1505 108.648 36.26 107.592 38.3865 106.19C40.5129 104.788 42.752 101.73 42.752 101.73Z" fill="#D9503F"/>
<path d="M168.714 169.055C168.714 169.055 166.402 167.838 166.93 165.104C167.392 162.707 166.402 162.295 166.402 162.295C166.402 162.295 163.468 164.497 160.738 165.154C158.667 165.654 156.483 164.57 156.483 164.57C156.483 164.57 157.685 165.33 157.723 168.796C157.735 169.864 157.159 171.609 157.159 171.609C157.159 171.609 160.432 171.87 162.94 171.424C165.448 170.977 168.714 169.055 168.714 169.055Z" fill="#D9503F"/>
<path d="M198.905 188.053C198.905 188.053 196.953 189.79 194.579 188.335C192.498 187.059 191.764 187.841 191.764 187.841C191.764 187.841 192.793 191.361 192.449 194.148C192.188 196.263 190.406 197.927 190.406 197.927C190.406 197.927 191.539 197.068 194.798 198.251C195.801 198.616 197.233 199.769 197.233 199.769C197.233 199.769 198.628 196.796 199.092 194.292C199.556 191.787 198.905 188.053 198.905 188.053Z" fill="#D9503F"/>
<path d="M218.249 270.176C218.249 270.176 217.696 267.623 220.131 266.271C222.265 265.087 221.946 264.063 221.946 264.063C221.946 264.063 218.374 263.228 216.116 261.558C214.404 260.291 213.831 257.921 213.831 257.921C213.831 257.921 214.021 259.33 211.389 261.585C210.578 262.28 208.87 262.959 208.87 262.959C208.87 262.959 210.772 265.636 212.725 267.272C214.677 268.907 218.249 270.176 218.249 270.176Z" fill="#D9503F"/>
<path d="M245.983 189.946C245.983 189.946 245.388 187.402 247.8 186.01C249.914 184.79 249.578 183.771 249.578 183.771C249.578 183.771 245.992 182.996 243.707 181.364C241.974 180.125 241.362 177.765 241.362 177.765C241.362 177.765 241.575 179.171 238.981 181.47C238.182 182.178 236.485 182.886 236.485 182.886C236.485 182.886 238.432 185.531 240.412 187.133C242.391 188.736 245.983 189.946 245.983 189.946Z" fill="#D9503F"/>
<path d="M107.934 113.665C107.934 113.665 105.5 114.617 103.779 112.427C102.27 110.508 101.311 110.986 101.311 110.986C101.311 110.986 101.054 114.645 99.7629 117.14C98.7839 119.032 96.5349 119.973 96.5349 119.973C96.5349 119.973 97.8961 119.562 100.541 121.803C101.355 122.493 102.297 124.071 102.297 124.071C102.297 124.071 104.638 121.768 105.943 119.581C107.248 117.393 107.934 113.665 107.934 113.665Z" fill="#D9503F"/>
<path d="M77.4172 159.8C77.4172 159.8 75.2481 158.344 76.0648 155.682C76.7807 153.348 75.8404 152.832 75.8404 152.832C75.8404 152.832 72.6884 154.708 69.9034 155.07C67.7909 155.345 65.7348 154.035 65.7348 154.035C65.7348 154.035 66.8489 154.918 66.5167 158.369C66.4144 159.431 65.655 161.105 65.655 161.105C65.655 161.105 68.882 161.714 71.423 161.539C73.9639 161.363 77.4172 159.8 77.4172 159.8Z" fill="#D9503F"/>
<path d="M38.8346 142.822C38.8346 142.822 36.2733 142.306 36.009 139.534C35.7774 137.104 34.7113 136.987 34.7113 136.987C34.7113 136.987 32.517 139.927 30.0827 141.327C28.2361 142.39 25.8351 141.966 25.8351 141.966C25.8351 141.966 27.2026 142.356 28.216 145.671C28.5282 146.692 28.4672 148.529 28.4672 148.529C28.4672 148.529 31.6815 147.856 33.9619 146.722C36.2422 145.587 38.8346 142.822 38.8346 142.822Z" fill="#D9503F"/>
<path d="M46.695 247.099C46.695 247.099 44.7553 245.349 45.9425 242.83C46.9833 240.622 46.1259 239.977 46.1259 239.977C46.1259 239.977 42.739 241.386 39.9309 241.348C37.8007 241.319 35.952 239.73 35.952 239.73C35.952 239.73 36.929 240.763 36.1092 244.131C35.8567 245.168 34.8668 246.717 34.8668 246.717C34.8668 246.717 37.9743 247.779 40.5144 247.967C43.0545 248.155 46.695 247.099 46.695 247.099Z" fill="#D9503F"/>
<path d="M38.1358 328.05C38.1358 328.05 37.5406 325.507 39.9525 324.114C42.0668 322.894 41.7301 321.876 41.7301 321.876C41.7301 321.876 38.1449 321.101 35.8598 319.468C34.1262 318.23 33.5143 315.87 33.5143 315.87C33.5143 315.87 33.7276 317.276 31.1333 319.575C30.3343 320.283 28.6378 320.991 28.6378 320.991C28.6378 320.991 30.5847 323.635 32.5641 325.238C34.5435 326.841 38.1358 328.05 38.1358 328.05Z" fill="#D9503F"/>
<path d="M153.453 330.812C153.453 330.812 152.858 328.269 155.27 326.877C157.384 325.656 157.048 324.638 157.048 324.638C157.048 324.638 153.462 323.863 151.177 322.231C149.444 320.992 148.832 318.632 148.832 318.632C148.832 318.632 149.045 320.038 146.451 322.337C145.652 323.045 143.955 323.753 143.955 323.753C143.955 323.753 145.902 326.397 147.882 328C149.861 329.603 153.453 330.812 153.453 330.812Z" fill="#D9503F"/>
<path d="M61.0672 201.303C61.0672 201.303 63.6779 201.204 64.5842 203.837C65.3786 206.146 66.4423 206.009 66.4423 206.009C66.4423 206.009 67.8871 202.638 69.9257 200.706C71.4721 199.241 73.9056 199.091 73.9056 199.091C73.9056 199.091 72.4848 199.032 70.7232 196.046C70.1806 195.127 69.8096 193.327 69.8096 193.327C69.8096 193.327 66.8421 194.733 64.891 196.37C62.9398 198.007 61.0672 201.303 61.0672 201.303Z" fill="#D9503F"/>
<path d="M69.4801 191.774C69.4801 191.774 71.1151 189.736 73.6986 190.776C75.9633 191.687 76.5569 190.794 76.5569 190.794C76.5569 190.794 74.9552 187.494 74.8305 184.688C74.7357 182.56 76.2158 180.622 76.2158 180.622C76.2158 180.622 75.2408 181.658 71.8311 181.034C70.7809 180.842 69.1774 179.943 69.1774 179.943C69.1774 179.943 68.2969 183.107 68.2564 185.654C68.2159 188.2 69.4801 191.774 69.4801 191.774Z" fill="#D9503F"/>
<path d="M236.991 261.274C236.991 261.274 239.602 261.175 240.508 263.808C241.302 266.116 242.366 265.98 242.366 265.98C242.366 265.98 243.811 262.609 245.849 260.677C247.396 259.212 249.829 259.061 249.829 259.061C249.829 259.061 248.408 259.002 246.647 256.017C246.104 255.098 245.733 253.297 245.733 253.297C245.733 253.297 242.766 254.704 240.815 256.341C238.863 257.978 236.991 261.274 236.991 261.274Z" fill="#D9503F"/>
<path d="M158.065 249.407C158.065 249.407 156.394 247.399 157.928 245.074C159.272 243.037 158.516 242.277 158.516 242.277C158.516 242.277 154.963 243.189 152.188 242.752C150.084 242.42 148.48 240.584 148.48 240.584C148.48 240.584 149.3 241.745 148.01 244.962C147.612 245.953 146.412 247.345 146.412 247.345C146.412 247.345 149.336 248.839 151.824 249.386C154.311 249.934 158.065 249.407 158.065 249.407Z" fill="#D9503F"/>
<path d="M191.178 322.115C191.178 322.115 190.141 319.717 192.268 317.919C194.132 316.343 193.62 315.401 193.62 315.401C193.62 315.401 189.954 315.275 187.415 314.074C185.489 313.163 184.468 310.949 184.468 310.949C184.468 310.949 184.927 312.295 182.783 315.018C182.122 315.856 180.578 316.854 180.578 316.854C180.578 316.854 182.963 319.111 185.196 320.337C187.428 321.563 191.178 322.115 191.178 322.115Z" fill="#D9503F"/>
<path d="M142.899 229.66C142.899 229.66 144.438 227.549 147.067 228.468C149.371 229.274 149.923 228.354 149.923 228.354C149.923 228.354 148.17 225.132 147.916 222.335C147.723 220.213 149.112 218.21 149.112 218.21C149.112 218.21 148.186 219.289 144.751 218.823C143.693 218.68 142.05 217.856 142.05 217.856C142.05 217.856 141.317 221.057 141.394 223.603C141.471 226.149 142.899 229.66 142.899 229.66Z" fill="#D9503F"/>
</svg>
