<svg width="72" height="72" viewBox="0 0 72 72" fill="none" xmlns="http://www.w3.org/2000/svg">
<path d="M71.527 45.8353C71.8505 42.93 70.3547 39.537 67.3071 37.3723C71.6467 33.7571 73.9795 27.9086 69.8278 22.7524C72.3361 17.6799 71.5494 10.9956 67.9786 6.80627C63.93 1.89665 57.1389 -0.105179 51.1322 0.0042393C42.9753 0.121606 35.5751 3.70417 27.4963 4.00874C19.1484 4.11867 3.80898 6.84719 5.17141 20.6506C5.34354 21.8466 5.68556 22.943 6.19718 23.9521C4.90449 26.1359 4.79086 27.9629 4.9734 29.6253C-1.87997 33.9805 -1.31688 41.8105 4.61972 46.6888C4.89578 48.2382 5.56223 49.7692 6.5458 51.167C2.90585 56.5484 5.76741 62.4038 10.3992 65.738C13.8599 68.1754 17.87 69.2464 21.3569 70.0588C32.3711 72.6999 44.7018 72.5937 55.5308 70.0588C59.0179 69.2462 63.028 68.1752 66.4885 65.738C71.3371 62.2534 74.1916 56.0139 69.886 50.5678C70.8163 49.074 71.3908 47.453 71.527 45.8353ZM12.2481 26.7623C9.78777 25.2883 7.60095 23.2231 7.24853 20.219C6.86827 17.5742 7.62036 14.7869 9.21118 12.9445C11.6065 10.1703 15.8564 6.93564 27.5551 6.54261C31.5648 6.408 35.4787 5.45063 39.2638 4.52489C48.4108 1.93233 59.8244 0.852358 66.4892 8.59991C70.6449 13.4097 69.8489 21.5622 65.0047 25.2504C55.3515 33.4453 37.0013 32.7139 25.24 30.9896C21.967 30.5805 19.1483 29.9084 16.623 28.9351C16.0689 28.7214 15.4754 29.0887 15.2978 29.7552C15.1202 30.4217 15.4255 31.1352 15.9798 31.3488C18.645 32.3758 21.6027 33.083 25.0219 33.5109C37.7189 35.3084 55.8115 35.9841 66.1575 27.372C67.0737 26.6526 67.8851 25.8006 68.5777 24.8466C69.5509 26.1275 69.9821 27.522 69.8575 29.0026C68.9833 36.0461 60.1462 38.7669 55.1302 39.8247C44.5563 42.2987 32.5177 42.4044 21.7583 39.8247C18.4423 39.0522 14.6388 38.0407 11.4649 35.8053C8.22015 33.4514 5.88582 29.672 7.58928 26.0179C8.59001 27.1959 9.98071 28.1978 11.2742 29.0101C12.5332 29.7337 13.4632 27.5886 12.2481 26.7623ZM6.54482 45.1556C1.40883 41.3868 0.24792 35.7828 5.61679 32.0974C8.15996 38.66 16.0615 41.1742 21.3575 42.3131C32.3727 44.9542 44.7017 44.8481 55.5312 42.3131C58.4777 41.6265 61.7965 40.752 64.8428 39.028C63.3598 45.6809 55.1604 48.087 50.2103 49.1751C39.6371 51.6493 27.5969 51.7545 16.8384 49.1753C13.5222 48.4024 9.71858 47.391 6.54482 45.1556ZM69.857 56.7483C68.9806 63.7922 60.1475 66.5121 55.1299 67.5706C44.556 70.0446 32.517 70.1501 21.7579 67.5708C16.7461 66.5167 7.89445 63.7873 7.03055 56.7483C6.91763 55.4064 7.26245 54.1355 8.05252 52.9554C11.6476 56.5158 16.8012 57.9311 20.9298 58.8909C28.9905 60.799 37.5317 61.2862 45.7405 60.4374C46.3205 60.3791 46.7512 59.7662 46.7026 59.0688C46.6541 58.3712 46.144 57.8533 45.5644 57.9119C37.5424 58.741 29.2096 58.2672 21.3308 56.4025C16.7707 55.321 10.4756 53.6817 7.60264 48.6424C10.5158 50.1942 13.6439 51.0129 16.4371 51.6639C27.4507 54.3046 39.7823 54.1989 50.6109 51.6639C56.1973 50.5201 65.0656 47.4984 66.8061 40.0126C71.3621 43.769 69.4948 49.1672 64.996 52.3831C60.3784 55.4933 55.3815 56.2904 50.4088 57.2624C49.8323 57.3594 49.4304 58 49.5111 58.693C49.5918 59.386 50.1236 59.8697 50.7008 59.7725C56.4885 58.6394 63.7569 57.4688 68.4641 52.4475C69.517 53.7677 69.9863 55.2116 69.857 56.7483Z" fill="#E67F1E"/>
<path d="M14.6384 15.1795C15.1245 15.5643 15.778 15.4023 16.098 14.818C16.3641 14.332 16.8112 14.0419 17.294 14.0419C17.7801 14.0419 18.229 14.3353 18.4945 14.8266C18.8136 15.4181 19.4712 15.5768 19.9525 15.1988C20.4405 14.8175 20.5791 14.0328 20.262 13.4459C19.6061 12.2324 18.4966 11.5078 17.294 11.5078C16.1 11.5078 14.9949 12.2244 14.3378 13.4246C14.0177 14.0089 14.1523 14.7946 14.6384 15.1795Z" fill="#E67F1E"/>
<path d="M19.9195 21.6544C19.1932 23.0871 20.8726 24.4169 21.6801 23.0477C21.946 22.5619 22.3931 22.2718 22.8759 22.2718C23.3622 22.2718 23.8109 22.5651 24.0765 23.0565C24.3955 23.6481 25.0531 23.8069 25.5342 23.4286C26.0224 23.0473 26.1609 22.2626 25.8438 21.6759C25.188 20.4624 24.0786 19.7377 22.8759 19.7377C21.6819 19.7377 20.5767 20.4543 19.9195 21.6544Z" fill="#E67F1E"/>
<path d="M45.1868 19.0507C45.6728 19.4354 46.3265 19.2736 46.6464 18.6891C46.9124 18.2031 47.3594 17.9131 47.8422 17.9131C48.3285 17.9131 48.7773 18.2065 49.0428 18.6979C49.3617 19.2895 50.0195 19.4483 50.5006 19.07C50.9887 18.6889 51.1272 17.904 50.8101 17.3173C50.1543 16.1038 49.0449 15.3791 47.8422 15.3791C46.6482 15.3791 45.543 16.0957 44.8859 17.296C44.5659 17.8802 44.7006 18.6661 45.1868 19.0507Z" fill="#E67F1E"/>
<path d="M34.4125 29.4163C34.8984 29.8011 35.552 29.6393 35.8721 29.0548C36.1382 28.5688 36.5852 28.2787 37.068 28.2787C37.5542 28.2787 38.0031 28.572 38.2686 29.0634C38.5877 29.655 39.2453 29.8138 39.7264 29.4355C40.2145 29.0542 40.353 28.2695 40.0359 27.6828C39.3801 26.4693 38.2705 25.7446 37.0679 25.7446C35.8739 25.7446 34.7688 26.4612 34.1117 27.6613C33.7917 28.2457 33.9263 29.0314 34.4125 29.4163Z" fill="#E67F1E"/>
<path d="M37.4373 12.052C37.9233 12.4368 38.5768 12.2749 38.8969 11.6905C39.163 11.2046 39.6101 10.9144 40.0927 10.9144C40.579 10.9144 41.0278 11.2078 41.2933 11.6991C41.6124 12.2906 42.2699 12.4494 42.7512 12.0713C43.2392 11.69 43.3778 10.9053 43.0607 10.3184C42.4048 9.10489 41.2954 8.38036 40.0927 8.38036C38.8987 8.38036 37.7937 9.09694 37.1365 10.2971C36.8166 10.8814 36.9511 11.6672 37.4373 12.052Z" fill="#E67F1E"/>
<path d="M56.8693 13.8178C57.3554 14.2024 58.0089 14.0406 58.3289 13.4561C58.5948 12.9701 59.0419 12.6802 59.5247 12.6802C60.011 12.6802 60.4597 12.9735 60.7252 13.4649C61.0443 14.0565 61.7019 14.2153 62.183 13.837C62.6711 13.4559 62.8097 12.671 62.4925 12.0843C61.8368 10.8708 60.7273 10.1461 59.5247 10.1461C58.3307 10.1461 57.2255 10.8627 56.5683 12.063C56.2485 12.6474 56.3831 13.4331 56.8693 13.8178Z" fill="#E67F1E"/>
</svg>
