<svg width="25" height="28" viewBox="0 0 25 28" fill="none" xmlns="http://www.w3.org/2000/svg">
<path d="M19.6171 18.6669C18.915 18.6695 18.2226 18.8313 17.5921 19.1403C16.9616 19.4492 16.4095 19.8972 15.9772 20.4505L8.67127 16.3915C9.11608 15.6733 9.35173 14.8452 9.35173 14.0004C9.35173 13.1556 9.11608 12.3275 8.67127 11.6092L15.9772 7.55028C16.6648 8.40367 17.6323 8.98611 18.7082 9.1944C19.7842 9.40268 20.8991 9.22336 21.8555 8.68821C22.8118 8.15306 23.5479 7.29663 23.9332 6.27068C24.3185 5.24474 24.3282 4.11551 23.9606 3.08309C23.5929 2.05068 22.8717 1.18174 21.9247 0.630251C20.9776 0.0787593 19.8659 -0.119677 18.7865 0.070103C17.7072 0.259883 16.7298 0.825628 16.0277 1.66709C15.3256 2.50855 14.944 3.57139 14.9506 4.66729C14.9566 5.07799 15.0174 5.48604 15.1316 5.88059L7.36931 10.1925C6.67116 9.69646 5.84997 9.40213 4.99569 9.34172C4.14141 9.28132 3.28698 9.45717 2.52598 9.85001C1.76498 10.2428 1.12676 10.8375 0.681215 11.5689C0.235676 12.3003 0 13.1402 0 13.9966C0 14.8531 0.235676 15.693 0.681215 16.4244C1.12676 17.1558 1.76498 17.7504 2.52598 18.1433C3.28698 18.5361 4.14141 18.712 4.99569 18.6516C5.84997 18.5912 6.67116 18.2968 7.36931 17.8008L15.1316 22.1127C15.0168 22.5096 14.9559 22.9203 14.9506 23.3335C14.9506 24.2564 15.2243 25.1586 15.737 25.926C16.2498 26.6935 16.9786 27.2916 17.8313 27.6448C18.684 27.998 19.6223 28.0904 20.5275 27.9103C21.4327 27.7303 22.2642 27.2858 22.9169 26.6332C23.5695 25.9806 24.0139 25.1491 24.194 24.2439C24.374 23.3386 24.2816 22.4003 23.9284 21.5476C23.5752 20.695 22.9771 19.9661 22.2097 19.4534C21.4423 18.9406 20.5401 18.6669 19.6171 18.6669ZM19.6171 1.86737C20.1709 1.86737 20.7122 2.03158 21.1727 2.33924C21.6331 2.6469 21.992 3.08419 22.2039 3.59581C22.4158 4.10743 22.4713 4.6704 22.3632 5.21353C22.2552 5.75666 21.9885 6.25556 21.597 6.64714C21.2054 7.03872 20.7065 7.30538 20.1634 7.41342C19.6202 7.52145 19.0572 7.46601 18.5456 7.25409C18.034 7.04217 17.5967 6.68329 17.2891 6.22285C16.9814 5.7624 16.8172 5.22107 16.8172 4.66729C16.8172 3.92471 17.1122 3.21254 17.6373 2.68745C18.1624 2.16236 18.8745 1.86737 19.6171 1.86737ZM4.68418 16.8003C4.13041 16.8003 3.58907 16.6361 3.12862 16.3284C2.66818 16.0208 2.30931 15.5835 2.09739 15.0719C1.88547 14.5602 1.83002 13.9973 1.93805 13.4541C2.04609 12.911 2.31276 12.4121 2.70433 12.0205C3.09591 11.629 3.59481 11.3623 4.13794 11.2543C4.68107 11.1462 5.24404 11.2017 5.75566 11.4136C6.26728 11.6255 6.70457 11.9844 7.01223 12.4448C7.31989 12.9053 7.4841 13.4466 7.4841 14.0004C7.4841 14.743 7.18911 15.4551 6.66403 15.9802C6.13894 16.5053 5.42677 16.8003 4.68418 16.8003ZM19.6171 26.1334C19.0633 26.1334 18.522 25.9692 18.0616 25.6615C17.6011 25.3539 17.2422 24.9166 17.0303 24.4049C16.8184 23.8933 16.763 23.3304 16.871 22.7872C16.979 22.2441 17.2457 21.7452 17.6373 21.3536C18.0288 20.962 18.5277 20.6954 19.0709 20.5873C19.614 20.4793 20.177 20.5347 20.6886 20.7467C21.2002 20.9586 21.6375 21.3175 21.9452 21.7779C22.2528 22.2383 22.417 22.7797 22.417 23.3335C22.417 24.076 22.122 24.7882 21.597 25.3133C21.0719 25.8384 20.3597 26.1334 19.6171 26.1334Z" fill="white"/>
</svg>
