<svg width="20" height="20" viewBox="0 0 20 20" fill="none" xmlns="http://www.w3.org/2000/svg">
<path d="M10.8967 0.557815L13.2127 5.25099C13.3586 5.54519 13.6387 5.74996 13.9659 5.79704L19.1439 6.5502C19.963 6.67024 20.2901 7.6776 19.697 8.25424L15.95 11.9071C15.7146 12.1378 15.6064 12.4673 15.6628 12.7921L16.5478 17.9489C16.6867 18.7656 15.83 19.387 15.098 19.0034L10.466 16.5673C10.1741 16.4143 9.8258 16.4143 9.5363 16.5673L4.90197 19.0034C4.16763 19.3894 3.3109 18.7656 3.45212 17.9489L4.33709 12.7921C4.39358 12.4673 4.28531 12.1378 4.04995 11.9071L0.302942 8.25424C-0.290178 7.67525 0.0369794 6.66789 0.856049 6.5502L6.03407 5.79704C6.35888 5.74996 6.64132 5.54519 6.78724 5.25099L9.10323 0.557815C9.4704 -0.185938 10.5295 -0.185938 10.8967 0.557815Z" fill="#696464"/>
</svg>
