<svg width="72" height="72" viewBox="0 0 72 72" fill="none" xmlns="http://www.w3.org/2000/svg">
<path d="M70.8 42.1164V38.8848C70.7983 37.2286 69.4561 35.8865 67.7999 35.8848C67.4687 35.8843 67.2003 35.616 67.1999 35.2847V34.0847C67.1982 32.4285 65.856 31.0864 64.1998 31.0847H62.6037C62.3264 31.085 62.0865 30.892 62.0271 30.6212L61.4552 28.3682C61.3077 27.7452 60.914 27.2084 60.3642 26.8805C59.8184 26.5532 59.1655 26.4552 58.5477 26.6079C57.9171 26.7677 57.2486 26.6609 56.699 26.3129C56.1494 25.9647 55.7675 25.4058 55.6424 24.7675L55.5884 24.5085L70.5256 13.5828C71.2968 13.0211 71.8122 12.1752 71.9578 11.2324C72.1033 10.2897 71.8672 9.32763 71.3013 8.55951C70.7395 7.78788 69.8933 7.2722 68.9501 7.12665C68.0069 6.98096 67.0445 7.21749 66.2762 7.7838L50.5065 19.312C49.9986 19.1702 49.4746 19.0937 48.9473 19.0844H47.0512C46.776 19.0815 46.502 19.0472 46.2345 18.9822L57.0908 5.89882C57.9151 4.91189 58.1496 3.55975 57.7055 2.35301C57.2614 1.14614 56.2064 0.268615 54.9387 0.0516251C53.6713 -0.165365 52.3844 0.311225 51.5641 1.30153L37.4115 18.3571C36.436 18.6094 35.3991 18.4354 34.5594 17.8785C33.3849 17.1009 32.0077 16.6856 30.599 16.6843H30.0828C28.8812 16.6807 27.7583 17.2816 27.095 18.2834C26.8185 18.6928 26.3904 18.9752 25.9053 19.0681C25.4201 19.1611 24.9179 19.0569 24.5098 18.7786C23.4024 18.1024 21.9791 18.2537 21.0387 19.1477L19.9582 20.2282C19.5977 20.5939 19.2959 21.0134 19.0634 21.4716C18.6865 22.2112 17.9288 22.679 17.0987 22.6845C14.9458 22.6873 13.2013 24.4318 13.1986 26.5846C13.1992 26.6799 13.1443 26.7668 13.058 26.8072L10.6233 28.0242C9.25794 28.7169 8.39574 30.116 8.39082 31.6471L6.94052 32.618C5.60173 33.5079 4.79748 35.0091 4.79832 36.6166V37.0848C3.47332 37.086 2.39962 38.1599 2.39822 39.4849V41.885H2.11344C1.31847 41.8851 0.590857 42.3313 0.230145 43.0397C-0.130567 43.748 -0.063347 44.599 0.404243 45.2419L0.790409 46.1865C4.25676 54.609 10.2752 61.7336 17.9998 66.5588V68.421C18.0019 70.3334 19.5515 71.8834 21.4639 71.8858H50.5359C52.4485 71.8836 53.9984 70.3337 54.0007 68.421V66.5582C61.7236 61.7337 67.7411 54.6109 71.2078 46.1906L71.5956 45.2419C72.0352 44.6375 72.123 43.846 71.8265 43.16C71.6212 42.6999 71.2567 42.3294 70.8 42.1164ZM67.6991 9.71618C67.95 9.5283 68.266 9.44941 68.5756 9.49764C68.8894 9.54377 69.1713 9.71393 69.3585 9.96988C69.5125 10.1765 69.597 10.4265 69.6 10.6841C69.5973 11.0652 69.4143 11.4226 69.1066 11.6474L38.7314 33.8652L37.5659 34.2535C37.3277 34.3332 37.0699 34.3332 36.8317 34.2535L35.0738 33.6675C35.0384 33.6558 35.0018 33.6554 34.9662 33.6448L67.6991 9.71618ZM47.0513 21.4844H47.5348L38.9522 27.7587L44.5979 20.9549C45.3691 21.3027 46.2053 21.4833 47.0513 21.4844ZM53.4142 2.83073C53.6149 2.58603 53.9053 2.4319 54.2204 2.40293C54.7018 2.36131 55.1612 2.61275 55.3857 3.04054C55.6101 3.46834 55.556 3.98922 55.2481 4.36175L31.0253 33.5534L29.521 34.6531C29.5082 34.6415 29.4914 34.6363 29.4791 34.6239C29.0202 34.1639 28.4439 33.8385 27.8129 33.6829L53.4142 2.83073ZM4.79832 39.4849C6.12333 39.4836 7.19703 38.4098 7.19843 37.0848V36.6166C7.19857 35.8109 7.60218 35.059 8.27368 34.6138L9.73157 33.6375C10.3974 33.1891 10.7973 32.4394 10.7985 31.6365C10.8061 31.0159 11.1557 30.4502 11.7073 30.1658L14.1209 28.9588C15.0241 28.512 15.5966 27.5923 15.5986 26.5844C15.601 25.757 16.2712 25.0869 17.0987 25.0844C18.8287 25.0752 20.4098 24.1039 21.1997 22.5647C21.3184 22.3297 21.4718 22.114 21.6549 21.9249L22.7354 20.8444C22.8688 20.7365 23.0532 20.7169 23.2065 20.7941C24.143 21.4199 25.2902 21.6471 26.3945 21.4256C27.4989 21.2041 28.4696 20.552 29.0923 19.6135C29.3124 19.2817 29.6845 19.0829 30.0826 19.0844H30.5989C31.5349 19.0854 32.4501 19.3611 33.231 19.8773C33.892 20.3156 34.6339 20.6176 35.4132 20.7654L24.2381 34.2325C24.0384 34.2495 23.8379 34.2135 23.6565 34.1283C22.2859 33.4422 20.6301 33.7112 19.5472 34.7957L18.35 35.9929C17.8848 36.462 17.8865 37.2191 18.3537 37.6862C18.8208 38.1534 19.5777 38.1551 20.047 37.6899L21.2441 36.4927C21.5984 36.1386 22.1398 36.0517 22.5871 36.2771C23.431 36.7025 24.4102 36.7721 25.3059 36.4705L26.5943 36.041C27.0113 35.8998 27.4722 36.0085 27.7821 36.3211C28.9838 37.5177 30.8614 37.7039 32.2746 36.7665L33.3047 36.0804C33.6027 35.8821 33.9752 35.8322 34.3149 35.9451L36.0727 36.5311C36.8037 36.7737 37.5935 36.7737 38.3245 36.5311L40.0834 35.9451C40.4232 35.8339 40.7952 35.8838 41.0936 36.0804L43.7333 37.8401C44.2846 38.2023 45.0248 38.0516 45.3908 37.5028C45.7567 36.954 45.611 36.2127 45.0646 35.8431L42.4637 34.1089L53.5168 26.0242C54.2281 27.8649 55.9975 29.0793 57.9708 29.0812C58.3591 29.0795 58.746 29.0336 59.124 28.9446L59.6959 31.1959C60.0156 32.5417 61.2201 33.4901 62.6034 33.4852H64.1996C64.5307 33.4856 64.7992 33.754 64.7996 34.0853V35.2853C64.8013 36.9414 66.1435 38.2836 67.7996 38.2853C68.1308 38.2857 68.3993 38.5542 68.3997 38.8854V41.8854H4.79832V39.4849ZM68.9858 45.2817C65.6621 53.3366 59.8697 60.1301 52.4416 64.6855H49.2005C48.5377 64.6855 48.0005 65.2227 48.0005 65.8855C48.0005 66.5483 48.5379 67.0855 49.2005 67.0855H51.6006V68.4209C51.6001 69.0087 51.1236 69.485 50.5359 69.4856H21.4639C20.8764 69.4847 20.4004 69.0084 20.3998 68.4209V67.0855H34.8002C35.4629 67.0855 36.0001 66.5483 36.0001 65.8855C36.0001 65.2227 35.4629 64.6855 34.8002 64.6855H19.557C12.1254 60.1326 6.33188 53.3368 3.01234 45.2782L2.60564 44.2849H69.3937L68.9858 45.2817Z" fill="#E67F1E"/>
<path d="M52.8051 61.083C53.0162 61.083 53.2233 61.0273 53.4057 60.9213C58.309 57.9142 62.2342 53.549 64.7052 48.355C64.8731 47.9605 64.8179 47.5066 64.5602 47.164C64.3026 46.8214 63.8818 46.6423 63.4563 46.694C63.0308 46.7458 62.6653 47.0207 62.4974 47.415C60.2365 52.1513 56.6486 56.1288 52.1699 58.8646L52.1652 58.8675C51.7118 59.1519 51.5017 59.7023 51.6503 60.2165C51.7988 60.7306 52.2699 61.0841 52.8051 61.083Z" fill="#E67F1E"/>
</svg>
