<svg width="98" height="82" viewBox="0 0 98 82" fill="none" xmlns="http://www.w3.org/2000/svg">
<path d="M87.1488 11.4419H68.0432L66.1853 5.86777C65.0151 2.35798 61.7433 0 58.044 0H39.5932C35.8939 0 32.6221 2.35798 31.4522 5.86777L29.594 11.4419H24.9814V6.67442C24.9814 2.99414 21.9873 0 18.307 0H14.493C10.8127 0 7.81861 2.99414 7.81861 6.67442V11.7874C3.32424 12.9713 0 17.0694 0 21.9302V71.5116C0 77.2949 4.70508 82 10.4884 82H87.1488C92.9321 82 97.6372 77.2949 97.6372 71.5116V21.9302C97.6372 16.1469 92.9321 11.4419 87.1488 11.4419ZM13.5395 6.67442C13.5395 6.14867 13.9673 5.72093 14.493 5.72093H18.307C18.8327 5.72093 19.2605 6.14867 19.2605 6.67442V11.4419H13.5395V6.67442ZM91.9163 71.5116C91.9163 74.1404 89.7776 76.2791 87.1488 76.2791H10.4884C7.85961 76.2791 5.72093 74.1404 5.72093 71.5116V21.9302C5.72093 19.3015 7.85961 17.1628 10.4884 17.1628H31.6558C32.887 17.1628 33.98 16.375 34.3694 15.2068L36.8794 7.67692C37.2696 6.50699 38.36 5.72093 39.5932 5.72093H58.044C59.2772 5.72093 60.3678 6.50699 60.7576 7.67673L63.2676 15.2068C63.6572 16.375 64.7503 17.1628 65.9814 17.1628H87.1488C89.7776 17.1628 91.9163 19.3015 91.9163 21.9302V71.5116Z" fill="#696464"/>
<path d="M83.1442 28.6046C84.724 28.6046 86.0047 27.324 86.0047 25.7442C86.0047 24.1644 84.724 22.8837 83.1442 22.8837C81.5645 22.8837 80.2838 24.1644 80.2838 25.7442C80.2838 27.324 81.5645 28.6046 83.1442 28.6046Z" fill="#696464"/>
<path d="M20.2139 22.8837H14.493C12.9133 22.8837 11.6325 24.1644 11.6325 25.7442C11.6325 27.3239 12.9133 28.6046 14.493 28.6046H20.2139C21.7937 28.6046 23.0744 27.3239 23.0744 25.7442C23.0744 24.1644 21.7937 22.8837 20.2139 22.8837Z" fill="#696464"/>
<path d="M48.8186 70.5581C34.6232 70.5581 23.0744 59.0093 23.0744 44.8139C23.0744 30.6186 34.6232 19.0698 48.8186 19.0698C63.0139 19.0698 74.5628 30.6186 74.5628 44.8139C74.5628 59.0093 63.0139 70.5581 48.8186 70.5581ZM48.8186 24.7907C37.7778 24.7907 28.7953 33.7731 28.7953 44.8139C28.7953 55.8548 37.7778 64.8372 48.8186 64.8372C59.8594 64.8372 68.8418 55.8548 68.8418 44.8139C68.8418 33.7731 59.8594 24.7907 48.8186 24.7907Z" fill="#696464"/>
<path d="M48.8186 59.1163C40.9323 59.1163 34.5162 52.7003 34.5162 44.814C34.5162 36.9277 40.9323 30.5116 48.8186 30.5116C56.7049 30.5116 63.1209 36.9277 63.1209 44.814C63.1209 52.7003 56.7049 59.1163 48.8186 59.1163ZM48.8186 36.2326C44.0868 36.2326 40.2372 40.0822 40.2372 44.814C40.2372 49.5457 44.0868 53.3954 48.8186 53.3954C53.5504 53.3954 57.4 49.5457 57.4 44.814C57.4 40.0822 53.5504 36.2326 48.8186 36.2326Z" fill="#696464"/>
</svg>
