<svg width="188" height="159" viewBox="0 0 188 159" fill="none" xmlns="http://www.w3.org/2000/svg">
<path d="M26.8088 37.1405C28.4838 34.377 30.8463 32.0895 33.6684 30.4987C36.4905 28.908 39.6769 28.0677 42.9204 28.0588H65.8V9.35294C65.8 6.87239 66.7904 4.49343 68.5532 2.73941C70.316 0.985398 72.707 0 75.2 0H169.2C179.568 0 188 8.38959 188 18.7059V112.235C188 119.213 184.09 125.245 178.384 128.453C177.228 145.466 163.09 159 145.7 159C129.165 159 115.582 146.757 113.279 130.941H84.1206C81.8176 146.757 68.2346 159 51.7 159C35.1654 159 21.5824 146.757 19.2794 130.941H18.8C8.43181 130.941 0 122.552 0 112.235V84.1765C-0.00183105 82.479 0.462997 80.8133 1.34421 79.3597L26.8088 37.1405ZM65.8 46.7647H42.9204L26.0004 74.8235H65.8V46.7647ZM145.7 140.294C153.474 140.294 159.8 134 159.8 126.265C159.8 118.53 153.474 112.235 145.7 112.235C137.926 112.235 131.6 118.53 131.6 126.265C131.6 134 137.926 140.294 145.7 140.294ZM51.7 140.294C59.4738 140.294 65.8 134 65.8 126.265C65.8 118.53 59.4738 112.235 51.7 112.235C43.9262 112.235 37.6 118.53 37.6 126.265C37.6 134 43.9262 140.294 51.7 140.294Z" fill="#696464"/>
</svg>
