<svg width="21" height="22" viewBox="0 0 21 22" fill="none" xmlns="http://www.w3.org/2000/svg">
<path d="M20.9413 10.7907C20.885 10.9277 20.7895 11.045 20.6667 11.1277C20.5439 11.2105 20.3993 11.255 20.2512 11.2558H18.0009V18.7567C18.0009 19.3536 17.7639 19.9259 17.3418 20.3479C16.9198 20.77 16.3475 21.007 15.7507 21.007H12.7503C12.5513 21.007 12.3605 20.928 12.2199 20.7873C12.0792 20.6467 12.0002 20.4559 12.0002 20.2569V15.7564C12.0002 15.5574 11.9211 15.3666 11.7805 15.226C11.6398 15.0853 11.449 15.0063 11.2501 15.0063H9.74989C9.55095 15.0063 9.36016 15.0853 9.21949 15.226C9.07882 15.3666 8.99979 15.5574 8.99979 15.7564V20.2569C8.99979 20.4559 8.92076 20.6467 8.78009 20.7873C8.63942 20.928 8.44863 21.007 8.2497 21.007H5.24931C4.6525 21.007 4.08013 20.77 3.65812 20.3479C3.23611 19.9259 2.99902 19.3536 2.99902 18.7567V11.2558H0.748736C0.600648 11.255 0.456092 11.2105 0.333286 11.1277C0.21048 11.045 0.11492 10.9277 0.0586472 10.7907C0.00120533 10.6541 -0.0144887 10.5036 0.0135455 10.3581C0.0415797 10.2126 0.112086 10.0786 0.216167 9.97312L9.96742 0.221877C10.0371 0.151572 10.1201 0.0957689 10.2115 0.0576876C10.3029 0.0196062 10.401 0 10.5 0C10.599 0 10.697 0.0196062 10.7885 0.0576876C10.8799 0.0957689 10.9628 0.151572 11.0326 0.221877L20.7838 9.97312C20.8879 10.0786 20.9584 10.2126 20.9864 10.3581C21.0145 10.5036 20.9988 10.6541 20.9413 10.7907Z" fill="#B1B1B1"/>
</svg>
