<svg width="75" height="63" viewBox="0 0 75 63" fill="none" xmlns="http://www.w3.org/2000/svg">
<rect width="75" height="63" fill="white"/>
<g clip-path="url(#clip0_4739_3647)">
<path d="M44.1775 37.8442C42.6361 37.8428 41.3854 39.0911 41.3839 40.6325C41.3823 42.1739 42.6307 43.4246 44.1721 43.4262C45.7135 43.4276 46.9643 42.1793 46.9658 40.6379V40.6352C46.9643 39.0955 45.7172 37.8472 44.1775 37.8442Z" fill="#E67F1E"/>
<path d="M49.1277 24.4797C49.0609 24.4667 48.9931 24.4602 48.9251 24.4601H31.9317L31.6626 22.6595C31.4949 21.4637 30.4721 20.5741 29.2646 20.5737H27.0765C26.4819 20.5737 25.9999 21.0557 25.9999 21.6502C25.9999 22.2448 26.4819 22.7268 27.0765 22.7268H29.2673C29.4042 22.7258 29.52 22.8277 29.5364 22.9637L31.1943 34.3266C31.4216 35.7705 32.6636 36.8357 34.1252 36.8404H45.324C46.7313 36.8422 47.9453 35.8532 48.228 34.4747L49.9801 25.7411C50.0931 25.1574 49.7114 24.5926 49.1277 24.4797Z" fill="#E67F1E"/>
<path d="M37.3404 40.5157C37.2748 39.0195 36.0401 37.8417 34.5424 37.8469C33.0023 37.9092 31.8042 39.2082 31.8664 40.7483C31.9261 42.2261 33.1283 43.4007 34.607 43.4262H34.6743C36.2142 43.3587 37.4078 42.0556 37.3404 40.5157Z" fill="#E67F1E"/>
</g>
<circle cx="50" cy="25" r="5.992" fill="#FEC54B" stroke="#FAFEFC" stroke-width="1.984"/>
<defs>
<clipPath id="clip0_4739_3647">
<rect width="23.808" height="23.808" fill="white" transform="translate(26 20) scale(1.00806)"/>
</clipPath>
</defs>
</svg>
