<svg width="24" height="24" viewBox="0 0 24 24" fill="none" xmlns="http://www.w3.org/2000/svg">
<g clip-path="url(#clip0_496_980)">
<path d="M18.1776 17.8442C16.6362 17.8428 15.3854 19.0911 15.3839 20.6325C15.3824 22.1739 16.6308 23.4246 18.1722 23.4261C19.7135 23.4276 20.9643 22.1793 20.9658 20.6379V20.6352C20.9643 19.0955 19.7173 17.8472 18.1776 17.8442Z" fill="#B1B1B1"/>
<path d="M23.1277 4.47964C23.061 4.46671 22.9931 4.46014 22.9251 4.46004H5.93177L5.66264 2.6595C5.49495 1.46373 4.47212 0.574049 3.26463 0.573681H1.07652C0.481947 0.573681 -3.07637e-05 1.05566 -3.07637e-05 1.65023C-3.07637e-05 2.2448 0.481947 2.72678 1.07652 2.72678H3.26731C3.40419 2.72578 3.52005 2.82771 3.53645 2.96364L5.19433 14.3266C5.42162 15.7705 6.6636 16.8357 8.12525 16.8404H19.3241C20.7313 16.8422 21.9453 15.8532 22.2281 14.4746L23.9801 5.74112C24.0931 5.15738 23.7115 4.59261 23.1277 4.47964Z" fill="#B1B1B1"/>
<path d="M11.3404 20.5157C11.2749 19.0195 10.0401 17.8417 8.54243 17.8469C7.0023 17.9091 5.80421 19.2082 5.86645 20.7483C5.92616 22.2261 7.1283 23.4007 8.60703 23.4261H8.67432C10.2142 23.3587 11.4079 22.0556 11.3404 20.5157Z" fill="#B1B1B1"/>
</g>
<defs>
<clipPath id="clip0_496_980">
<rect width="23.808" height="23.808" fill="white" transform="scale(1.00806)"/>
</clipPath>
</defs>
</svg>
