<svg width="176" height="221" viewBox="0 0 176 221" fill="none" xmlns="http://www.w3.org/2000/svg">
<path d="M118.112 98.401C118.525 98.5411 118.949 98.6072 119.361 98.6072C120.983 98.6072 122.496 97.588 123.045 95.9659C124.262 92.395 128.156 90.4772 131.727 91.687C139.359 94.2699 147.687 90.1738 150.274 82.5379C150.967 80.5073 149.877 78.2939 147.843 77.6015C145.801 76.913 143.599 78.0022 142.907 80.0366C141.693 83.6115 137.799 85.5292 134.224 84.3156C126.604 81.7443 118.268 85.8326 115.677 93.4647C114.989 95.4991 116.078 97.7086 118.112 98.401Z" fill="#696464"/>
<path d="M127.316 71.2958C127.728 71.4358 128.152 71.502 128.565 71.502C130.187 71.502 131.7 70.4828 132.248 68.8607C132.836 67.1297 134.061 65.7293 135.703 64.9202C137.344 64.1111 139.2 63.9944 140.931 64.5818C148.563 67.1647 156.887 63.0686 159.478 55.4288C160.17 53.3982 159.077 51.1848 157.047 50.4924C155.012 49.7922 152.803 50.8931 152.114 52.9275C150.901 56.5063 147.014 58.424 143.432 57.2103C139.729 55.9539 135.765 56.2106 132.264 57.9417C128.763 59.6688 126.141 62.6601 124.885 66.3595C124.192 68.3939 125.281 70.6034 127.316 71.2958Z" fill="#696464"/>
<path d="M136.515 44.1907C136.932 44.3307 137.352 44.3969 137.768 44.3969C139.39 44.3969 140.903 43.3777 141.452 41.7556C142.346 39.1182 145.229 37.6984 147.862 38.5931C151.111 39.6939 154.592 39.4683 157.669 37.9551C160.742 36.4381 163.041 33.8162 164.146 30.5681C164.838 28.5376 163.749 26.3242 161.714 25.6318C159.672 24.9355 157.471 26.0325 156.778 28.0669C156.342 29.3467 155.436 30.3814 154.226 30.9766C153.017 31.5717 151.647 31.6612 150.364 31.2217C143.665 28.9616 136.356 32.5559 134.084 39.2505C133.392 41.2888 134.481 43.4983 136.515 44.1907Z" fill="#696464"/>
<path d="M162.465 97.3196C170.202 72.1906 174.442 47.5673 175.049 24.1227C175.224 17.4009 172.295 9.76494 167.767 5.11647C162.364 -0.426681 155.016 -1.55865 147.765 2.17568C136.146 8.17007 127.837 25.8031 121.162 39.9781C120.777 40.7949 120.4 41.5924 120.026 42.382C118.552 35.6019 114.071 29.802 107.699 26.7756C106.197 19.5559 100.471 13.8999 93.275 12.4334C93.1972 12.0289 93.1 11.6321 92.9794 11.2315C91.4973 6.16676 87.0239 2.35462 81.8581 1.74001C78.8706 1.37436 76.0387 2.00453 73.5881 3.43602C71.4875 2.26904 69.1302 1.64665 66.7107 1.64665C59.9461 1.64665 54.2629 6.36514 52.7808 12.6785C45.386 14.6935 39.9635 21.4814 39.9051 29.3702C31.4679 31.5486 25.3218 39.1728 25.3218 48.2403C25.3218 50.6443 25.773 53.0249 26.6405 55.2694C24.4504 57.9729 23.2368 61.3571 23.2368 64.9086C23.2368 67.0403 23.6763 69.0942 24.5049 70.9925C20.6188 66.7525 15.1496 63.2865 9.00739 63.5122C6.86015 63.5822 5.17192 65.3754 5.23805 67.5227C5.30418 69.6271 7.03131 71.292 9.12409 71.292C9.25635 71.2959 9.37694 71.2842 9.50142 71.2842C13.1463 71.2842 16.5344 73.696 19.0006 76.4968C12.8312 78.2744 5.39364 81.1686 1.92382 87.7114C-0.16118 91.6442 -0.406245 96.4716 0.966901 101.995C0.274493 103.127 -0.0639305 104.454 0.00997827 105.874L6.63064 199.963C7.23358 211.761 16.9584 221 28.7683 221H137.963C149.772 221 159.497 211.761 160.096 200.033L166.888 102.606C166.962 101.213 166.452 99.8286 165.492 98.8172C164.702 97.9653 163.605 97.4752 162.465 97.3196ZM123.204 53.5111C124.745 50.6365 126.425 47.0733 128.203 43.2962C134.049 30.8795 142.063 13.8766 151.332 9.09199C155.533 6.92918 159.124 7.39598 162.197 10.5468C165.667 14.1022 167.374 19.9682 167.273 23.9204C166.678 46.9177 162.477 71.1209 154.783 95.8608C154.53 96.6738 153.97 98.3154 153.172 100.568L146.544 103.512C146.4 103.578 146.26 103.648 146.124 103.734C144.249 104.858 142.082 105.415 139.915 105.438C137.749 105.415 135.586 104.858 133.711 103.734L130.937 102.069C127.814 100.198 124.239 99.2062 120.598 99.2062C119.614 99.2062 118.637 99.2918 117.673 99.4357C114.977 99.7819 112.347 100.661 109.998 102.073L107.228 103.738C105.715 104.644 104 105.088 102.261 105.278C102.346 104.987 102.444 104.699 102.529 104.407C103.607 100.735 104.77 97.1134 105.983 93.523C106.427 92.2082 106.89 90.9051 107.357 89.6019C108.372 86.7467 109.434 83.9226 110.531 81.1258C111.001 79.9316 111.453 78.7218 111.939 77.5393C115.331 69.242 119.077 61.2093 123.204 53.5111ZM78.2599 99.5329C77.832 99.6068 77.408 99.6846 76.9879 99.7858C75.7042 100.07 74.4439 100.455 73.2341 100.988L72.4872 97.5724C73.6075 97.6658 74.7239 97.7591 75.7703 97.7591C82.5544 97.7591 88.0158 95.7403 94.2942 91.2746C96.2703 89.8665 98.0207 88.8006 99.6856 87.9176C99.3277 88.9329 98.9738 89.9443 98.6276 90.9634C98.3786 91.6947 98.1102 92.4144 97.869 93.1496C96.7254 96.6116 95.6362 100.101 94.6209 103.621L92.0341 102.073C88.9105 100.202 85.3357 99.2101 81.6947 99.2101C80.7533 99.2101 79.8236 99.2995 78.8978 99.4318C78.6878 99.4551 78.4738 99.5018 78.2599 99.5329ZM72.0788 46.9566C71.2074 47.1355 70.3439 46.552 70.1649 45.7274C69.9782 44.8755 70.5422 44.0002 71.3941 43.8135L93.2167 39.0795C93.9713 39.0795 94.6326 39.6124 94.7921 40.3437C94.9166 40.9039 94.7065 41.3434 94.5665 41.5574C94.4303 41.7674 94.123 42.137 93.5629 42.2615L72.0788 46.9566ZM73.6114 62.7342C74.0665 62.1507 74.51 61.5828 74.9379 61.0148C75.2452 60.6064 75.5136 60.1824 75.7392 59.7584C76.6961 57.9573 76.9217 55.9385 76.4783 53.9585L92.7149 50.4109C92.8238 50.9088 92.9405 51.4028 93.1272 51.8618C93.8546 53.6434 95.1539 55.1255 96.9627 56.1602C97.5539 56.4869 98.1724 56.8137 98.8104 57.1521C99.3355 57.4283 99.8607 57.7162 100.39 58.004C100.643 58.1402 100.899 58.2763 101.152 58.4163C101.615 58.677 102.062 58.9648 102.514 59.2488C102.899 59.4861 103.28 59.7311 103.653 59.9918C104.085 60.2913 104.497 60.6219 104.91 60.9565C105.272 61.2521 105.618 61.575 105.96 61.9056C106.33 62.2674 106.695 62.6369 107.034 63.0415C107.633 63.7572 108.208 64.5002 108.679 65.391C107.03 69.032 105.478 72.7468 103.976 76.4929C103.743 77.0725 103.494 77.6365 103.264 78.2161C99.001 79.2975 94.8816 81.3203 89.7935 84.9418C83.3829 89.4969 78.61 90.7067 70.7445 89.5669L68.3833 78.7568C66.7807 71.4437 70.2544 67.017 73.6114 62.7342ZM50.5791 159.457C52.7264 159.457 54.469 161.196 54.469 163.347C54.469 165.498 52.7264 167.237 50.5791 167.237H23.3496C21.2023 167.237 19.4596 165.498 19.4596 163.347C19.4596 161.196 21.2023 159.457 23.3496 159.457H50.5791ZM23.3496 175.017H58.359C60.5062 175.017 62.2489 176.756 62.2489 178.907C62.2489 181.058 60.5062 182.797 58.359 182.797H23.3496C21.2023 182.797 19.4596 181.058 19.4596 178.907C19.4596 176.756 21.2023 175.017 23.3496 175.017ZM33.8018 59.0504L36.3497 56.9498L34.6965 54.0985C33.6618 52.3091 33.1133 50.2864 33.1133 48.2403C33.1133 41.9386 38.0496 36.8 44.3513 36.5355L49.0737 36.3371L47.9729 31.7431C47.7861 30.9729 47.6928 30.2143 47.6928 29.4947C47.6928 24.4845 51.606 20.2639 56.6007 19.8827L60.195 19.6104V15.7399C60.3078 12.2428 63.1903 9.43041 66.7184 9.43041C68.749 9.43041 70.2038 10.3562 71.0635 11.1342L73.7903 13.5965L76.4044 11.0136C77.5986 9.83107 79.2051 9.25536 80.9439 9.4732C83.0289 9.71827 84.9117 11.3443 85.5185 13.4332C85.7247 14.1333 85.783 14.8102 85.7013 15.4987L85.2462 19.8399H89.6263C95.2161 19.8399 99.8918 24.2083 100.277 29.7864L100.452 32.3421L102.868 33.1901C108.948 35.3257 112.946 41.0789 112.81 47.5168C112.752 50.2669 111.865 52.916 110.258 55.2383C107.656 53.0288 104.851 51.5389 102.494 50.2981C101.883 49.9752 101.292 49.664 100.697 49.3333C100.53 49.24 100.327 49.0766 100.257 48.6682C100.164 48.108 100.374 47.4351 100.798 46.941C102.494 44.9727 103.175 42.2887 102.626 39.7563L102.156 37.613C101.203 33.2524 96.6476 30.3077 92.287 31.2841L91.2484 31.5097C91.2367 31.5136 91.225 31.5097 91.2172 31.5136L79.8003 34.0109L68.6595 36.4421C64.1939 37.4185 61.3542 41.8452 62.3345 46.3148L62.5679 47.3728C62.5679 47.3767 62.5679 47.3806 62.5679 47.3845C62.5679 47.3884 62.5718 47.3923 62.5718 47.4001L62.8013 48.4542C63.3653 51.0449 65.1664 53.2272 67.6131 54.2775C68.22 54.5381 68.7256 55.0321 68.9007 55.5339C69.0018 55.8218 68.9435 55.9696 68.7179 56.343C68.3289 56.8604 67.9165 57.3894 67.4925 57.9262C67.0608 58.4747 66.6134 59.0543 66.1622 59.6495C66.0221 59.8323 65.8899 60.0229 65.7498 60.2096C65.4153 60.6608 65.0847 61.1276 64.7501 61.61C64.5829 61.855 64.4195 62.1079 64.2522 62.3607C63.9527 62.8236 63.661 63.2982 63.377 63.7922C63.2175 64.0684 63.0619 64.3407 62.9063 64.6247C62.6107 65.1732 62.3423 65.7528 62.0816 66.3401C61.9727 66.5852 61.856 66.8186 61.7549 67.0714C61.4126 67.9233 61.1092 68.8102 60.8641 69.7438C60.8291 69.8839 60.8135 70.0356 60.7785 70.1795C60.5879 70.9808 60.4401 71.8055 60.3389 72.6729C60.3 73.0153 60.2923 73.3731 60.2689 73.7271C60.2378 74.1861 60.1795 74.6257 60.1795 75.1042C60.0667 74.9563 59.9577 74.8319 59.8449 74.6879C59.5882 74.3534 59.3315 74.05 59.0747 73.731C58.499 73.0192 57.9194 72.3423 57.3398 71.7082C57.0558 71.397 56.768 71.0897 56.484 70.798C55.8733 70.1756 55.2548 69.6038 54.6402 69.067C54.4107 68.8686 54.1851 68.6469 53.9556 68.4602C53.1348 67.7911 52.3062 67.1998 51.4699 66.6825C51.2171 66.5268 50.9603 66.4101 50.7075 66.2662C50.1045 65.9278 49.4977 65.6166 48.887 65.356C48.5524 65.2121 48.214 65.0876 47.8756 64.9709C47.3193 64.7725 46.7631 64.613 46.2029 64.4807C45.8645 64.3991 45.5261 64.3096 45.1877 64.2512C44.4797 64.1307 43.7678 64.0684 43.0521 64.049C42.8887 64.0451 42.7253 64.0023 42.562 64.0023C38.5203 64.0023 34.8404 65.5777 31.5768 67.7055C31.2189 66.8264 31.0322 65.8811 31.0322 64.9047C31.0283 62.633 32.0397 60.4975 33.8018 59.0504ZM8.80901 91.3485C10.4544 88.2482 14.4494 85.8832 21.3852 83.8993C24.6294 82.9735 27.6402 81.2425 30.0831 78.9085C31.1683 77.8699 32.1953 76.9713 33.1872 76.1661C34.0702 75.4465 34.9221 74.8163 35.7429 74.2756C35.774 74.2561 35.8051 74.2367 35.8363 74.2173C37.4623 73.1592 38.9716 72.4551 40.3836 72.0934C40.4419 72.0778 40.4964 72.0661 40.5547 72.0544C41.2472 71.8911 41.9201 71.7977 42.5697 71.7977C47.4633 71.7977 52.7108 76.6796 58.1684 86.3072C61.0275 91.3524 61.9805 98.8016 60.7396 105.298C60.4479 105.271 60.1639 105.232 59.876 105.185C58.4796 104.917 57.1259 104.469 55.9122 103.742L53.1387 102.077C50.0151 100.206 46.4402 99.214 42.7992 99.214C41.8151 99.214 40.8387 99.2995 39.874 99.4435C37.1783 99.7897 34.5487 100.669 32.1992 102.081L30.8494 102.89C28.5426 104.271 25.8858 104.967 23.2212 104.991C20.5566 104.967 17.8959 104.275 15.5931 102.89L10.3533 99.743C9.67257 99.3384 8.92959 99.0545 8.15939 98.9105C7.54089 95.8219 7.75872 93.3324 8.80901 91.3485ZM66.1388 198.357H23.3496C21.2023 198.357 19.4596 196.618 19.4596 194.467C19.4596 192.316 21.2023 190.577 23.3496 190.577H66.1388C68.2861 190.577 70.0288 192.316 70.0288 194.467C70.0288 196.618 68.2861 198.357 66.1388 198.357ZM89.4784 198.357H81.6986C79.5513 198.357 77.8086 196.618 77.8086 194.467C77.8086 192.316 79.5513 190.577 81.6986 190.577H89.4784C91.6257 190.577 93.3684 192.316 93.3684 194.467C93.3684 196.618 91.6257 198.357 89.4784 198.357Z" fill="#696464"/>
</svg>
