<svg width="20" height="20" viewBox="0 0 20 20" fill="none" xmlns="http://www.w3.org/2000/svg">
<path d="M19.857 15.4858C18.073 12.5109 16.9996 11.212 16.9996 7.99999C16.9978 6.31758 16.3906 4.69202 15.2889 3.42049C14.1872 2.14896 12.6647 1.31639 10.9997 1.075V0.999998C10.9997 0.734782 10.8943 0.480429 10.7068 0.292893C10.5192 0.105357 10.2649 0 9.99966 0C9.73444 0 9.48009 0.105357 9.29255 0.292893C9.10501 0.480429 8.99966 0.734782 8.99966 0.999998V1.0792C7.32434 1.39644 5.81079 2.28461 4.71677 3.59247C3.62276 4.90032 3.01595 6.54697 2.99967 8.25199C2.99967 11.212 1.73767 12.826 0.14227 15.4859C0.0513277 15.6376 0.00226127 15.8107 7.63052e-05 15.9876C-0.00210866 16.1645 0.042666 16.3388 0.129832 16.4927C0.216999 16.6467 0.343437 16.7747 0.496248 16.8638C0.649058 16.9529 0.822773 16.9999 0.999668 17H18.9996C19.1766 16.9999 19.3503 16.9529 19.5031 16.8638C19.6559 16.7747 19.7824 16.6466 19.8696 16.4927C19.9567 16.3388 20.0015 16.1644 19.9993 15.9876C19.9971 15.8107 19.948 15.6375 19.857 15.4858Z" fill="#384144"/>
<path d="M11.9998 18H7.99977C7.73456 18 7.4802 18.1054 7.29267 18.2929C7.10513 18.4804 6.99978 18.7348 6.99978 19C6.99978 19.2652 7.10513 19.5196 7.29267 19.7071C7.4802 19.8947 7.73456 20 7.99977 20H11.9998C12.265 20 12.5193 19.8947 12.7069 19.7071C12.8944 19.5196 12.9998 19.2652 12.9998 19C12.9998 18.7348 12.8944 18.4804 12.7069 18.2929C12.5193 18.1054 12.265 18 11.9998 18Z" fill="#384144"/>
</svg>
