<svg width="24" height="24" viewBox="0 0 24 24" fill="none" xmlns="http://www.w3.org/2000/svg">
<g clip-path="url(#clip0_496_1259)">
<path d="M9.16349 18.3281C7.3508 18.3285 5.57874 17.7912 4.07146 16.7842C2.56418 15.7773 1.38941 14.3459 0.695737 12.6712C0.0020688 10.9965 -0.179326 9.15367 0.174498 7.37586C0.528322 5.59804 1.40147 3.9651 2.68349 2.68359C6.25536 -0.888752 12.0674 -0.888752 15.6397 2.68359C19.2121 6.25594 19.2116 12.0675 15.6397 15.6398C14.79 16.4917 13.7806 17.1676 12.6693 17.6289C11.558 18.0902 10.3667 18.3278 9.16349 18.3281ZM9.16349 2.34843C7.70024 2.34984 6.27626 2.8219 5.10193 3.69486C3.92761 4.56782 3.06525 5.79537 2.64225 7.19615C2.21926 8.59692 2.25808 10.0966 2.75298 11.4736C3.24788 12.8506 4.1726 14.0319 5.39052 14.843C5.77233 15.0974 6.17913 15.3121 6.60458 15.4837C7.84564 15.9869 9.20748 16.1129 10.5198 15.8461C11.8321 15.5793 13.0366 14.9315 13.9827 13.9837C16.641 11.3255 16.641 6.99937 13.9827 4.34203C13.3501 3.70833 12.5986 3.20586 11.7712 2.8635C10.9439 2.52113 10.057 2.34562 9.16161 2.34703L9.16349 2.34843Z" fill="#898989"/>
<path d="M22.828 24C22.674 24.0002 22.5216 23.97 22.3794 23.9111C22.2371 23.8523 22.1079 23.7658 21.9992 23.6569L13.9836 15.6413C13.7638 15.4215 13.6403 15.1233 13.6403 14.8125C13.6403 14.5017 13.7638 14.2036 13.9836 13.9838C14.2034 13.764 14.5015 13.6405 14.8123 13.6405C15.1232 13.6405 15.4213 13.764 15.6411 13.9838L23.6567 21.9994C23.8206 22.1633 23.9323 22.3721 23.9775 22.5995C24.0228 22.8268 23.9995 23.0625 23.9108 23.2766C23.8221 23.4908 23.6719 23.6738 23.4791 23.8026C23.2864 23.9314 23.0598 24.0001 22.828 24Z" fill="#898989"/>
</g>
<defs>
<clipPath id="clip0_496_1259">
<rect width="24" height="24" fill="white"/>
</clipPath>
</defs>
</svg>
