<svg width="24" height="24" viewBox="0 0 24 24" fill="none" xmlns="http://www.w3.org/2000/svg">
<g clip-path="url(#clip0_496_976)">
<path d="M23.5607 6.62189L19.4997 10.6829C19.2067 10.9758 18.8229 11.1223 18.439 11.1223C18.0551 11.1223 17.6712 10.9758 17.3783 10.6829C16.7925 10.0971 16.7925 9.14737 17.3783 8.56158L18.8787 7.06125H3.15234C2.32392 7.06125 1.65234 6.38967 1.65234 5.56125C1.65234 4.73283 2.32392 4.06125 3.15234 4.06125H18.8787L17.3783 2.56092C16.7925 1.97512 16.7925 1.02539 17.3783 0.439594C17.9641 -0.146203 18.9138 -0.146203 19.4997 0.439594L23.5607 4.50061C24.1464 5.08636 24.1464 6.03614 23.5607 6.62189ZM20.0273 16.9392H5.12133L6.6217 15.4389C7.20745 14.8531 7.20745 13.9034 6.6217 13.3176C6.03586 12.7318 5.08617 12.7318 4.50033 13.3176L0.439312 17.3786C-0.146437 17.9644 -0.146437 18.9141 0.439312 19.4999L4.50033 23.5609C4.79325 23.8538 5.17711 24.0003 5.56101 24.0003C5.94492 24.0003 6.32878 23.8538 6.6217 23.5609C7.20745 22.9751 7.20745 22.0254 6.6217 21.4396L5.12133 19.9393H20.0273C20.8558 19.9393 21.5273 19.2677 21.5273 18.4393C21.5273 17.6108 20.8558 16.9392 20.0273 16.9392Z" fill="#B1B1B1"/>
</g>
<defs>
<clipPath id="clip0_496_976">
<rect width="23.808" height="23.808" fill="white" transform="scale(1.00806)"/>
</clipPath>
</defs>
</svg>
