<svg width="24" height="24" viewBox="0 0 24 24" fill="none" xmlns="http://www.w3.org/2000/svg">
<path d="M20.835 4.55245C19.7695 3.49083 18.3266 2.89474 16.8225 2.89474C15.3184 2.89474 13.8755 3.49083 12.81 4.55245L12 5.36245L11.19 4.55245C10.1245 3.49083 8.68164 2.89474 7.17751 2.89474C5.67338 2.89474 4.23055 3.49083 3.16501 4.55245C2.10293 5.61926 1.50665 7.06334 1.50665 8.5687C1.50665 10.0741 2.10293 11.5181 3.16501 12.585L11.4675 20.8875C11.5372 20.9577 11.6202 21.0135 11.7116 21.0516C11.803 21.0897 11.901 21.1093 12 21.1093C12.099 21.1093 12.197 21.0897 12.2884 21.0516C12.3798 21.0135 12.4628 20.9577 12.5325 20.8875L20.835 12.585C21.8971 11.5181 22.4934 10.0741 22.4934 8.5687C22.4934 7.06334 21.8971 5.61926 20.835 4.55245Z" fill="#B1B1B1"/>
</svg>
