<svg width="28" height="28" viewBox="0 0 28 28" fill="none" xmlns="http://www.w3.org/2000/svg">
<path d="M3.5 7.875H7C7 8.84013 7.78487 9.625 8.75 9.625H10.5C11.4651 9.625 12.25 8.84013 12.25 7.875H24.5C24.983 7.875 25.375 7.48388 25.375 7C25.375 6.51612 24.983 6.125 24.5 6.125H12.25C12.25 5.15987 11.4651 4.375 10.5 4.375H8.75C7.78487 4.375 7 5.15987 7 6.125H3.5C3.017 6.125 2.625 6.51612 2.625 7C2.625 7.48388 3.017 7.875 3.5 7.875Z" fill="white"/>
<path d="M24.5 13.125H19.25C19.25 12.1599 18.4651 11.375 17.5 11.375H15.75C14.7849 11.375 14 12.1599 14 13.125H3.5C3.017 13.125 2.625 13.5161 2.625 14C2.625 14.4839 3.017 14.875 3.5 14.875H14C14 15.8401 14.7849 16.625 15.75 16.625H17.5C18.4651 16.625 19.25 15.8401 19.25 14.875H24.5C24.983 14.875 25.375 14.4839 25.375 14C25.375 13.5161 24.983 13.125 24.5 13.125Z" fill="white"/>
<path d="M24.5 20.125H12.25C12.25 19.1599 11.4651 18.375 10.5 18.375H8.75C7.78487 18.375 7 19.1599 7 20.125H3.5C3.017 20.125 2.625 20.5161 2.625 21C2.625 21.4839 3.017 21.875 3.5 21.875H7C7 22.8401 7.78487 23.625 8.75 23.625H10.5C11.4651 23.625 12.25 22.8401 12.25 21.875H24.5C24.983 21.875 25.375 21.4839 25.375 21C25.375 20.5161 24.983 20.125 24.5 20.125Z" fill="white"/>
</svg>
