<svg width="75" height="63" viewBox="0 0 75 63" fill="none" xmlns="http://www.w3.org/2000/svg">
<rect width="75" height="63" fill="white"/>
<g clip-path="url(#clip0_4739_5986)">
<path d="M44.1771 37.8443C42.6357 37.8428 41.385 39.0911 41.3834 40.6325C41.3819 42.1739 42.6303 43.4247 44.1717 43.4262C45.7131 43.4277 46.9638 42.1793 46.9654 40.6379V40.6353C46.9639 39.0955 45.7168 37.8473 44.1771 37.8443Z" fill="#B1B1B1"/>
<path d="M49.1273 24.4797C49.0605 24.4668 48.9927 24.4602 48.9246 24.4601H31.9313L31.6622 22.6595C31.4945 21.4638 30.4717 20.5741 29.2642 20.5737H27.0761C26.4815 20.5737 25.9995 21.0557 25.9995 21.6503C25.9995 22.2449 26.4815 22.7268 27.0761 22.7268H29.2669C29.4037 22.7258 29.5196 22.8278 29.536 22.9637L31.1939 34.3267C31.4212 35.7705 32.6631 36.8357 34.1248 36.8404H45.3236C46.7309 36.8423 47.9449 35.8532 48.2276 34.4747L49.9797 25.7412C50.0927 25.1574 49.711 24.5927 49.1273 24.4797Z" fill="#B1B1B1"/>
<path d="M37.34 40.5157C37.2744 39.0196 36.0396 37.8418 34.542 37.847C33.0018 37.9092 31.8038 39.2082 31.866 40.7483C31.9257 42.2261 33.1278 43.4007 34.6066 43.4262H34.6739C36.2138 43.3587 37.4074 42.0557 37.34 40.5157Z" fill="#B1B1B1"/>
</g>
<circle cx="50" cy="25" r="6" fill="#FEC54B" stroke="#FAFEFC" stroke-width="2"/>
<defs>
<clipPath id="clip0_4739_5986">
<rect width="24" height="24" fill="white" transform="translate(25.9998 20)"/>
</clipPath>
</defs>
</svg>
