<svg width="28" height="28" viewBox="0 0 28 28" fill="none" xmlns="http://www.w3.org/2000/svg">
<g clip-path="url(#clip0_4739_2412)">
<path d="M23.8989 4.1C21.9409 2.14221 19.4464 0.808985 16.7307 0.268908C14.015 -0.271169 11.2001 0.00616073 8.64204 1.06583C6.08396 2.1255 3.89754 3.91991 2.35927 6.22217C0.820989 8.52442 -6.10352e-05 11.2311 -6.10352e-05 14C-6.10352e-05 16.7689 0.820989 19.4756 2.35927 21.7778C3.89754 24.0801 6.08396 25.8745 8.64204 26.9342C11.2001 27.9938 14.015 28.2712 16.7307 27.7311C19.4464 27.191 21.9409 25.8578 23.8989 23.9C25.1991 22.6 26.2305 21.0565 26.9341 19.3579C27.6378 17.6592 27.9999 15.8386 27.9999 14C27.9999 12.1614 27.6378 10.3408 26.9341 8.64211C26.2305 6.94345 25.1991 5.40004 23.8989 4.1ZM18.9989 17.54C19.0988 17.6335 19.1785 17.7466 19.2329 17.8722C19.2874 17.9977 19.3155 18.1331 19.3155 18.27C19.3155 18.4069 19.2874 18.5423 19.2329 18.6678C19.1785 18.7934 19.0988 18.9065 18.9989 19C18.9055 19.0927 18.7947 19.166 18.6728 19.2158C18.551 19.2655 18.4205 19.2908 18.2889 19.29C18.0266 19.2889 17.7752 19.1847 17.5889 19L13.9989 15.41L10.4589 19C10.2727 19.1847 10.0213 19.2889 9.75893 19.29C9.62732 19.2908 9.49686 19.2655 9.37502 19.2158C9.25319 19.166 9.14237 19.0927 9.04893 19C8.86268 18.8126 8.75814 18.5592 8.75814 18.295C8.75814 18.0308 8.86268 17.7774 9.04893 17.59L12.5889 14L9.04893 10.46C8.8851 10.2687 8.7995 10.0226 8.80922 9.77095C8.81894 9.51927 8.92327 9.28053 9.10137 9.10244C9.27946 8.92435 9.5182 8.82001 9.76988 8.81029C10.0216 8.80057 10.2676 8.88618 10.4589 9.05L13.9989 12.59L17.5389 9.05C17.6315 8.95414 17.7421 8.87745 17.8643 8.82431C17.9865 8.77117 18.118 8.74263 18.2513 8.7403C18.3845 8.73798 18.5169 8.76193 18.6409 8.81078C18.7649 8.85963 18.8781 8.93242 18.9739 9.025C19.0698 9.11758 19.1465 9.22814 19.1996 9.35036C19.2528 9.47258 19.2813 9.60407 19.2836 9.73732C19.2859 9.87058 19.262 10.003 19.2132 10.127C19.1643 10.251 19.0915 10.3641 18.9989 10.46L15.4089 14L18.9989 17.54Z" fill="black"/>
</g>
<defs>
<clipPath id="clip0_4739_2412">
<rect width="28" height="28" fill="white"/>
</clipPath>
</defs>
</svg>
