<svg width="303" height="179" viewBox="0 0 303 179" fill="none" xmlns="http://www.w3.org/2000/svg">
<path d="M26.4122 120.464H71.4897V85.6956H26.4122L26.4122 120.464Z" fill="#F5F5F5"/>
<path d="M37.7068 120.219C37.7674 120.219 37.8193 112.467 37.8193 102.91C37.8193 93.3494 37.7674 85.6021 37.7068 85.6021C37.6462 85.6021 37.5942 93.3494 37.5942 102.91C37.5942 112.471 37.6418 120.219 37.7068 120.219Z" fill="#EBEBEB"/>
<path d="M30.2351 116.46H33.689V112.551H30.2351V116.46Z" fill="#FAFAFA"/>
<path d="M57.7374 85.7839H52.6172V93.2024H57.7374V85.7839Z" fill="#EBEBEB"/>
<path d="M57.7374 112.943H52.6172V120.361H57.7374V112.943Z" fill="#EBEBEB"/>
<path d="M88.6705 120.954H14.2524V178.35H88.6705V120.954Z" fill="#EBEBEB"/>
<path d="M70.0248 177.947C69.9426 177.947 69.8777 165.153 69.8777 149.377C69.8777 133.593 69.9426 120.803 70.0248 120.803C70.1071 120.803 70.172 133.593 70.172 149.377C70.172 165.153 70.1027 177.947 70.0248 177.947Z" fill="#E0E0E0"/>
<path d="M82.3556 165.287H76.6511V171.736H82.3556V165.287Z" fill="#FAFAFA"/>
<path d="M45.4065 121.101H36.9536V133.35H45.4065V121.101Z" fill="#E0E0E0"/>
<path d="M45.4065 165.932H36.9536V178.181H45.4065V165.932Z" fill="#E0E0E0"/>
<path d="M146.81 19.849C146.81 19.9096 146.326 19.9615 145.728 19.9615C145.131 19.9615 144.646 19.9096 144.646 19.849C144.646 19.7884 145.131 19.7365 145.728 19.7365C146.326 19.7365 146.81 19.7841 146.81 19.849Z" fill="#EBEBEB"/>
<path d="M151.138 19.8489C151.138 19.9095 150.654 19.9614 150.056 19.9614C149.459 19.9614 148.974 19.9095 148.974 19.8489C148.974 19.7883 149.459 19.7363 150.056 19.7363C150.654 19.7363 151.138 19.7839 151.138 19.8489Z" fill="#EBEBEB"/>
<path d="M155.467 19.8489C155.467 19.9095 154.982 19.9614 154.385 19.9614C153.787 19.9614 153.302 19.9095 153.302 19.8489C153.302 19.7883 153.787 19.7363 154.385 19.7363C154.982 19.7363 155.467 19.7839 155.467 19.8489Z" fill="#EBEBEB"/>
<path d="M159.795 19.8489C159.795 19.9095 159.31 19.9614 158.713 19.9614C158.115 19.9614 157.631 19.9095 157.631 19.8489C157.631 19.7883 158.115 19.7363 158.713 19.7363C159.31 19.7363 159.795 19.7839 159.795 19.8489Z" fill="#EBEBEB"/>
<path d="M164.123 19.8489C164.123 19.9095 163.638 19.9614 163.041 19.9614C162.443 19.9614 161.959 19.9095 161.959 19.8489C161.959 19.7883 162.443 19.7363 163.041 19.7363C163.638 19.7363 164.123 19.7839 164.123 19.8489Z" fill="#EBEBEB"/>
<path d="M168.451 19.8489C168.451 19.9095 167.966 19.9614 167.369 19.9614C166.772 19.9614 166.287 19.9095 166.287 19.8489C166.287 19.7883 166.772 19.7363 167.369 19.7363C167.966 19.7363 168.451 19.7839 168.451 19.8489Z" fill="#EBEBEB"/>
<path d="M172.779 19.8489C172.779 19.9095 172.294 19.9614 171.697 19.9614C171.1 19.9614 170.615 19.9095 170.615 19.8489C170.615 19.7883 171.1 19.7363 171.697 19.7363C172.294 19.7363 172.779 19.7839 172.779 19.8489Z" fill="#EBEBEB"/>
<path d="M177.107 19.8489C177.107 19.9095 176.622 19.9614 176.025 19.9614C175.428 19.9614 174.943 19.9095 174.943 19.8489C174.943 19.7883 175.428 19.7363 176.025 19.7363C176.622 19.7363 177.107 19.7839 177.107 19.8489Z" fill="#EBEBEB"/>
<path d="M181.435 19.8489C181.435 19.9095 180.951 19.9614 180.353 19.9614C179.756 19.9614 179.271 19.9095 179.271 19.8489C179.271 19.7883 179.756 19.7363 180.353 19.7363C180.951 19.7363 181.435 19.7839 181.435 19.8489Z" fill="#EBEBEB"/>
<path d="M185.764 19.8489C185.764 19.9095 185.279 19.9614 184.682 19.9614C184.084 19.9614 183.6 19.9095 183.6 19.8489C183.6 19.7883 184.084 19.7363 184.682 19.7363C185.279 19.7363 185.764 19.7839 185.764 19.8489Z" fill="#EBEBEB"/>
<path d="M190.092 19.8489C190.092 19.9095 189.607 19.9614 189.01 19.9614C188.412 19.9614 187.928 19.9095 187.928 19.8489C187.928 19.7883 188.412 19.7363 189.01 19.7363C189.607 19.7363 190.092 19.7839 190.092 19.8489Z" fill="#EBEBEB"/>
<path d="M194.42 19.8489C194.42 19.9095 193.935 19.9614 193.338 19.9614C192.741 19.9614 192.256 19.9095 192.256 19.8489C192.256 19.7883 192.741 19.7363 193.338 19.7363C193.935 19.7363 194.42 19.7839 194.42 19.8489Z" fill="#EBEBEB"/>
<path d="M198.748 19.8489C198.748 19.9095 198.263 19.9614 197.666 19.9614C197.069 19.9614 196.584 19.9095 196.584 19.8489C196.584 19.7883 197.069 19.7363 197.666 19.7363C198.263 19.7363 198.748 19.7839 198.748 19.8489Z" fill="#EBEBEB"/>
<path d="M203.076 19.8489C203.076 19.9095 202.591 19.9614 201.994 19.9614C201.397 19.9614 200.912 19.9095 200.912 19.8489C200.912 19.7883 201.397 19.7363 201.994 19.7363C202.591 19.7363 203.076 19.7839 203.076 19.8489Z" fill="#EBEBEB"/>
<path d="M207.404 19.8489C207.404 19.9095 206.92 19.9614 206.322 19.9614C205.725 19.9614 205.24 19.9095 205.24 19.8489C205.24 19.7883 205.725 19.7363 206.322 19.7363C206.92 19.7363 207.404 19.7839 207.404 19.8489Z" fill="#EBEBEB"/>
<path d="M211.732 19.8489C211.732 19.9095 211.248 19.9614 210.65 19.9614C210.053 19.9614 209.568 19.9095 209.568 19.8489C209.568 19.7883 210.053 19.7363 210.65 19.7363C211.248 19.7363 211.732 19.7839 211.732 19.8489Z" fill="#EBEBEB"/>
<path d="M216.061 19.8489C216.061 19.9095 215.576 19.9614 214.979 19.9614C214.381 19.9614 213.896 19.9095 213.896 19.8489C213.896 19.7883 214.381 19.7363 214.979 19.7363C215.576 19.7363 216.061 19.7839 216.061 19.8489Z" fill="#EBEBEB"/>
<path d="M220.389 19.8489C220.389 19.9095 219.904 19.9614 219.307 19.9614C218.709 19.9614 218.225 19.9095 218.225 19.8489C218.225 19.7883 218.709 19.7363 219.307 19.7363C219.904 19.7363 220.389 19.7839 220.389 19.8489Z" fill="#EBEBEB"/>
<path d="M224.717 19.8489C224.717 19.9095 224.232 19.9614 223.635 19.9614C223.037 19.9614 222.553 19.9095 222.553 19.8489C222.553 19.7883 223.037 19.7363 223.635 19.7363C224.232 19.7363 224.717 19.7839 224.717 19.8489Z" fill="#EBEBEB"/>
<path d="M229.045 19.8489C229.045 19.9095 228.56 19.9614 227.963 19.9614C227.366 19.9614 226.881 19.9095 226.881 19.8489C226.881 19.7883 227.366 19.7363 227.963 19.7363C228.56 19.7363 229.045 19.7839 229.045 19.8489Z" fill="#EBEBEB"/>
<path d="M233.373 19.8489C233.373 19.9095 232.888 19.9614 232.291 19.9614C231.694 19.9614 231.209 19.9095 231.209 19.8489C231.209 19.7883 231.694 19.7363 232.291 19.7363C232.888 19.7363 233.373 19.7839 233.373 19.8489Z" fill="#EBEBEB"/>
<path d="M237.701 19.8489C237.701 19.9095 237.216 19.9614 236.619 19.9614C236.022 19.9614 235.537 19.9095 235.537 19.8489C235.537 19.7883 236.022 19.7363 236.619 19.7363C237.216 19.7363 237.701 19.7839 237.701 19.8489Z" fill="#EBEBEB"/>
<path d="M242.029 19.8489C242.029 19.9095 241.545 19.9614 240.947 19.9614C240.35 19.9614 239.865 19.9095 239.865 19.8489C239.865 19.7883 240.35 19.7363 240.947 19.7363C241.545 19.7363 242.029 19.7839 242.029 19.8489Z" fill="#EBEBEB"/>
<path d="M243.137 23.0647C243.077 23.0647 243.025 22.58 243.025 21.9827C243.025 21.3854 243.077 20.9006 243.137 20.9006C243.198 20.9006 243.25 21.3854 243.25 21.9827C243.25 22.5843 243.198 23.0647 243.137 23.0647Z" fill="#EBEBEB"/>
<path d="M243.137 27.3928C243.077 27.3928 243.025 26.9081 243.025 26.3108C243.025 25.7135 243.077 25.2288 243.137 25.2288C243.198 25.2288 243.25 25.7135 243.25 26.3108C243.25 26.9124 243.198 27.3928 243.137 27.3928Z" fill="#EBEBEB"/>
<path d="M243.137 31.7211C243.077 31.7211 243.025 31.2363 243.025 30.639C243.025 30.0418 243.077 29.557 243.137 29.557C243.198 29.557 243.25 30.0418 243.25 30.639C243.25 31.2407 243.198 31.7211 243.137 31.7211Z" fill="#EBEBEB"/>
<path d="M243.137 36.0492C243.077 36.0492 243.025 35.5644 243.025 34.9672C243.025 34.3699 243.077 33.8851 243.137 33.8851C243.198 33.8851 243.25 34.3699 243.25 34.9672C243.25 35.5688 243.198 36.0492 243.137 36.0492Z" fill="#EBEBEB"/>
<path d="M243.137 40.3773C243.077 40.3773 243.025 39.8926 243.025 39.2953C243.025 38.698 243.077 38.2133 243.137 38.2133C243.198 38.2133 243.25 38.698 243.25 39.2953C243.25 39.8969 243.198 40.3773 243.137 40.3773Z" fill="#EBEBEB"/>
<path d="M243.981 43.8615C243.981 43.9134 243.622 43.961 243.137 43.9697L243.029 43.974V43.8615C243.029 43.7792 243.029 43.7013 243.025 43.6234C243.025 43.0261 243.077 42.5414 243.137 42.5414C243.198 42.5414 243.25 43.0261 243.25 43.6234C243.25 43.7013 243.25 43.7792 243.246 43.8615L243.137 43.7533C243.622 43.7662 243.981 43.8095 243.981 43.8615Z" fill="#EBEBEB"/>
<path d="M248.31 43.8614C248.31 43.922 247.825 43.974 247.228 43.974C246.63 43.974 246.146 43.922 246.146 43.8614C246.146 43.8008 246.63 43.7489 247.228 43.7489C247.825 43.7489 248.31 43.8008 248.31 43.8614Z" fill="#EBEBEB"/>
<path d="M252.638 43.8614C252.638 43.922 252.153 43.974 251.556 43.974C250.958 43.974 250.474 43.922 250.474 43.8614C250.474 43.8008 250.958 43.7489 251.556 43.7489C252.153 43.7489 252.638 43.8008 252.638 43.8614Z" fill="#EBEBEB"/>
<path d="M256.966 43.8614C256.966 43.922 256.481 43.974 255.884 43.974C255.287 43.974 254.802 43.922 254.802 43.8614C254.802 43.8008 255.287 43.7489 255.884 43.7489C256.481 43.7489 256.966 43.8008 256.966 43.8614Z" fill="#EBEBEB"/>
<path d="M261.294 43.8614C261.294 43.922 260.809 43.974 260.212 43.974C259.615 43.974 259.13 43.922 259.13 43.8614C259.13 43.8008 259.615 43.7489 260.212 43.7489C260.809 43.7489 261.294 43.8008 261.294 43.8614Z" fill="#EBEBEB"/>
<path d="M265.622 43.8614C265.622 43.922 265.137 43.974 264.54 43.974C263.943 43.974 263.458 43.922 263.458 43.8614C263.458 43.8008 263.943 43.7489 264.54 43.7489C265.137 43.7489 265.622 43.8008 265.622 43.8614Z" fill="#EBEBEB"/>
<path d="M269.95 43.8614C269.95 43.922 269.465 43.974 268.868 43.974C268.271 43.974 267.786 43.922 267.786 43.8614C267.786 43.8008 268.271 43.7489 268.868 43.7489C269.465 43.7489 269.95 43.8008 269.95 43.8614Z" fill="#EBEBEB"/>
<path d="M274.278 43.8614C274.278 43.922 273.794 43.974 273.196 43.974C272.599 43.974 272.114 43.922 272.114 43.8614C272.114 43.8008 272.599 43.7489 273.196 43.7489C273.794 43.7489 274.278 43.8008 274.278 43.8614Z" fill="#EBEBEB"/>
<path d="M278.606 43.8614C278.606 43.922 278.122 43.974 277.524 43.974C276.927 43.974 276.442 43.922 276.442 43.8614C276.442 43.8008 276.927 43.7489 277.524 43.7489C278.122 43.7489 278.606 43.8008 278.606 43.8614Z" fill="#EBEBEB"/>
<path d="M280.29 46.5103C280.229 46.5103 280.177 46.0255 280.177 45.4282C280.177 44.8309 280.229 44.3462 280.29 44.3462C280.351 44.3462 280.403 44.8309 280.403 45.4282C280.403 46.0255 280.351 46.5103 280.29 46.5103Z" fill="#EBEBEB"/>
<path d="M280.29 50.8384C280.229 50.8384 280.177 50.3536 280.177 49.7564C280.177 49.1591 280.229 48.6743 280.29 48.6743C280.351 48.6743 280.403 49.1591 280.403 49.7564C280.403 50.3536 280.351 50.8384 280.29 50.8384Z" fill="#EBEBEB"/>
<path d="M280.29 55.1665C280.229 55.1665 280.177 54.6818 280.177 54.0845C280.177 53.4872 280.229 53.0024 280.29 53.0024C280.351 53.0024 280.403 53.4872 280.403 54.0845C280.403 54.6818 280.351 55.1665 280.29 55.1665Z" fill="#EBEBEB"/>
<path d="M280.29 59.4946C280.229 59.4946 280.177 59.0099 280.177 58.4126C280.177 57.8153 280.229 57.3306 280.29 57.3306C280.351 57.3306 280.403 57.8153 280.403 58.4126C280.403 59.0099 280.351 59.4946 280.29 59.4946Z" fill="#EBEBEB"/>
<path d="M280.29 63.8228C280.229 63.8228 280.177 63.338 280.177 62.7407C280.177 62.1434 280.229 61.6587 280.29 61.6587C280.351 61.6587 280.403 62.1434 280.403 62.7407C280.403 63.338 280.351 63.8228 280.29 63.8228Z" fill="#EBEBEB"/>
<path d="M280.29 68.1509C280.229 68.1509 280.177 67.6661 280.177 67.0689C280.177 66.4716 280.229 65.9868 280.29 65.9868C280.351 65.9868 280.403 66.4716 280.403 67.0689C280.403 67.6661 280.351 68.1509 280.29 68.1509Z" fill="#EBEBEB"/>
<path d="M280.29 72.4791C280.229 72.4791 280.177 71.9944 280.177 71.3971C280.177 70.7998 280.229 70.3151 280.29 70.3151C280.351 70.3151 280.403 70.7998 280.403 71.3971C280.403 71.9944 280.351 72.4791 280.29 72.4791Z" fill="#EBEBEB"/>
<path d="M280.29 76.8073C280.229 76.8073 280.177 76.3225 280.177 75.7252C280.177 75.1279 280.229 74.6432 280.29 74.6432C280.351 74.6432 280.403 75.1279 280.403 75.7252C280.403 76.3225 280.351 76.8073 280.29 76.8073Z" fill="#EBEBEB"/>
<path d="M280.29 81.1354C280.229 81.1354 280.177 80.6506 280.177 80.0533C280.177 79.4561 280.229 78.9713 280.29 78.9713C280.351 78.9713 280.403 79.4561 280.403 80.0533C280.403 80.6506 280.351 81.1354 280.29 81.1354Z" fill="#EBEBEB"/>
<path d="M280.29 85.4635C280.229 85.4635 280.177 84.9788 280.177 84.3815C280.177 83.7842 280.229 83.2994 280.29 83.2994C280.351 83.2994 280.403 83.7842 280.403 84.3815C280.403 84.9788 280.351 85.4635 280.29 85.4635Z" fill="#EBEBEB"/>
<path d="M280.29 89.7916C280.229 89.7916 280.177 89.3069 280.177 88.7096C280.177 88.1123 280.229 87.6276 280.29 87.6276C280.351 87.6276 280.403 88.1123 280.403 88.7096C280.403 89.3069 280.351 89.7916 280.29 89.7916Z" fill="#EBEBEB"/>
<path d="M169.52 27.2328C169.52 27.2328 166.162 25.3717 162.868 33.3182C159.574 41.2647 158.445 45.7832 158.445 45.7832C158.445 45.7832 157.54 47.4626 156.358 46.506C155.177 45.5452 153.437 42.6973 151.61 43.3768C149.715 44.0823 149.247 46.2983 149.866 49.4448C150.485 52.5957 151.589 59.5424 151.688 60.1743C151.784 60.7932 151.502 61.7324 150.589 61.2087C149.68 60.685 144.279 55.5432 141.993 58.2526C139.708 60.962 142.876 69.4495 143.205 70.3844C143.534 71.3193 143.378 71.7434 142.945 72.0118C142.513 72.2844 140.859 70.3844 139.262 68.9864C137.665 67.5884 135.57 66.2467 134.384 67.9173C133.199 69.5923 133.289 76.1408 140.323 86.2383L143.889 90.705L149.576 89.9389C161.652 87.5584 166.265 82.91 166.573 80.8801C166.88 78.8502 164.439 78.3611 162.323 78.2616C160.202 78.162 157.696 78.3784 157.57 77.8807C157.445 77.383 157.627 76.9718 158.514 76.526C159.401 76.0802 167.573 72.1719 167.811 68.6358C168.049 65.0997 160.591 65.0478 159.574 64.7924C158.557 64.5371 159.007 63.6628 159.505 63.2862C160.011 62.901 165.634 58.6681 168.265 56.833C170.897 54.9978 172.1 53.0805 171.226 51.254C170.386 49.4968 167.153 50.3364 165.638 50.2066C164.123 50.0767 164.638 48.2416 164.638 48.2416C164.638 48.2416 166.967 44.2035 170.113 36.2007C173.26 28.198 169.455 27.1982 169.455 27.1982" fill="#EBEBEB"/>
<path d="M144.084 89.5234C146.417 83.6544 149.71 75.5738 153.376 66.6578C157.042 57.7462 160.353 49.6742 162.721 43.8182C163.898 40.8967 164.854 38.5292 165.517 36.8802C165.846 36.0665 166.101 35.4346 166.278 34.9931C166.365 34.7854 166.434 34.6209 166.482 34.5041C166.529 34.3959 166.555 34.3396 166.555 34.3396C166.555 34.3396 166.538 34.4002 166.499 34.5127C166.456 34.6339 166.395 34.7984 166.313 35.0105C166.144 35.4519 165.898 36.0925 165.586 36.9105C164.95 38.5595 164.015 40.9357 162.846 43.8702C160.513 49.7391 157.22 57.8197 153.554 66.7314C149.888 75.6474 146.572 83.7193 144.209 89.5753" fill="#E0E0E0"/>
<path d="M153.887 47.4625C153.9 47.4582 153.961 47.5923 154.064 47.8347C154.168 48.0814 154.307 48.4363 154.471 48.8821C154.8 49.7737 155.229 51.0116 155.67 52.3923C156.099 53.7513 156.488 54.9762 156.787 55.924C156.921 56.3438 157.038 56.6987 157.129 56.9931C157.211 57.2441 157.25 57.3869 157.237 57.3913C157.224 57.3956 157.159 57.2614 157.055 57.019C156.951 56.7723 156.813 56.4131 156.653 55.9673C156.328 55.0757 155.921 53.8292 155.48 52.4485C155.043 51.0938 154.644 49.8733 154.337 48.9254C154.199 48.5056 154.082 48.1507 153.987 47.8564C153.913 47.6097 153.874 47.4668 153.887 47.4625Z" fill="#E0E0E0"/>
<path d="M157.774 57.4561C157.756 57.4042 160.275 56.4131 163.4 55.2445C166.53 54.0715 169.079 53.167 169.096 53.2146C169.113 53.2665 166.595 54.2576 163.47 55.4262C160.34 56.5992 157.791 57.5081 157.774 57.4561Z" fill="#E0E0E0"/>
<path d="M151.524 70.8908C151.524 70.8778 151.671 70.8562 151.944 70.8345C152.255 70.8086 152.636 70.7826 153.086 70.748C154.052 70.6744 155.385 70.5619 156.848 70.3931C158.315 70.2243 159.635 70.0252 160.591 69.8737C161.037 69.8044 161.414 69.7438 161.725 69.6962C161.994 69.6573 162.141 69.64 162.145 69.6529C162.15 69.6659 162.002 69.7092 161.738 69.7698C161.474 69.8304 161.089 69.917 160.613 70.0079C159.661 70.194 158.336 70.4147 156.869 70.5835C155.398 70.7566 154.06 70.8432 153.091 70.8821C152.606 70.8995 152.212 70.9124 151.944 70.9081C151.675 70.9081 151.524 70.9038 151.524 70.8908Z" fill="#E0E0E0"/>
<path d="M146.018 62.624C146.031 62.6154 146.118 62.7236 146.269 62.9227C146.421 63.1218 146.633 63.4161 146.893 63.7796C147.412 64.5068 148.122 65.5239 148.892 66.6492C149.663 67.7745 150.355 68.8046 150.844 69.5534C151.091 69.9256 151.286 70.2329 151.416 70.445C151.545 70.657 151.615 70.7782 151.602 70.7869C151.589 70.7955 151.502 70.6873 151.351 70.4882C151.199 70.2891 150.987 69.9948 150.727 69.6313C150.208 68.9041 149.498 67.887 148.728 66.7617C147.957 65.6364 147.265 64.6106 146.776 63.8619C146.529 63.4896 146.334 63.1823 146.204 62.9703C146.075 62.7539 146.01 62.6327 146.018 62.624Z" fill="#E0E0E0"/>
<path d="M138.998 73.782C139.011 73.7733 139.119 73.9118 139.314 74.1672C139.526 74.4572 139.794 74.8251 140.119 75.2622C140.79 76.1928 141.707 77.4869 142.712 78.9195C143.716 80.3564 144.612 81.6592 145.257 82.6114C145.56 83.0659 145.811 83.4424 146.01 83.741C146.183 84.0094 146.274 84.1652 146.265 84.1695C146.252 84.1782 146.144 84.0397 145.949 83.7843C145.737 83.4943 145.469 83.1265 145.144 82.6893C144.473 81.7588 143.556 80.4646 142.551 79.032C141.547 77.5994 140.651 76.2923 140.007 75.3401C139.704 74.8857 139.453 74.5091 139.253 74.2105C139.076 73.9421 138.985 73.7907 138.998 73.782Z" fill="#E0E0E0"/>
<path d="M146.157 83.8794C146.157 83.8664 146.343 83.8361 146.685 83.7972C147.062 83.7539 147.551 83.6976 148.131 83.6327C149.351 83.4942 151.035 83.2951 152.892 83.0268C154.748 82.7584 156.419 82.4771 157.627 82.2607C158.202 82.1612 158.683 82.0746 159.059 82.0097C159.397 81.9534 159.587 81.9274 159.592 81.9404C159.596 81.9534 159.41 82.0053 159.076 82.0832C158.743 82.1655 158.258 82.2737 157.653 82.3949C156.449 82.6416 154.774 82.9489 152.918 83.2172C151.061 83.4856 149.368 83.663 148.144 83.7669C147.529 83.8188 147.036 83.8535 146.689 83.8708C146.347 83.8881 146.157 83.8924 146.157 83.8794Z" fill="#E0E0E0"/>
<path d="M295.495 100.383C295.495 91.0209 287.034 83.6327 277.338 85.4506C271.24 86.5932 266.384 91.5749 265.315 97.6862C264.648 101.508 265.436 105.1 267.176 108.065H267.167L267.211 108.121C267.795 109.104 268.526 109.805 269.262 110.839L278.092 122.534C279.191 123.988 281.377 123.988 282.476 122.534L291.158 111.03C291.158 111.03 292.777 109.095 293.366 108.104L293.396 108.061H293.392C294.725 105.81 295.495 103.187 295.495 100.383ZM280.29 107.005C276.594 107.005 273.599 104.01 273.599 100.313C273.599 96.6172 276.594 93.6221 280.29 93.6221C283.986 93.6221 286.982 96.6172 286.982 100.313C286.982 104.005 283.986 107.005 280.29 107.005Z" fill="#F5F5F5"/>
<path d="M223.696 32.7641V50.648C223.696 51.0332 224.007 51.3448 224.393 51.3448H261.892C262.281 51.3448 262.593 51.0288 262.588 50.6393L262.502 44.0908C262.502 43.9437 262.45 43.8008 262.363 43.684L256.984 36.4949C256.854 36.3218 256.65 36.2179 256.429 36.2136L250.232 36.166C249.851 36.1617 249.539 35.8501 249.539 35.4692V32.7641C249.539 32.3789 249.227 32.0673 248.842 32.0673H224.388C224.007 32.0673 223.696 32.3789 223.696 32.7641Z" fill="#F5F5F5"/>
<path d="M251.288 37.7241V43.4632C251.288 43.6883 251.469 43.8657 251.694 43.8614L259.974 43.7143C260.29 43.7099 260.476 43.355 260.299 43.091L256.429 37.3822C256.351 37.2697 256.226 37.2047 256.087 37.2091L251.681 37.3259C251.461 37.3303 251.288 37.5077 251.288 37.7241Z" fill="#EBEBEB"/>
<path d="M263.333 51.8901H222.938V53.1366H263.333V51.8901Z" fill="#F5F5F5"/>
<path d="M235.126 55.1916C236.686 53.6315 236.686 51.1021 235.126 49.542C233.566 47.982 231.037 47.982 229.477 49.5421C227.917 51.1021 227.917 53.6315 229.477 55.1916C231.037 56.7517 233.566 56.7517 235.126 55.1916Z" fill="#EBEBEB"/>
<path d="M234.654 52.3663C234.654 53.6647 233.603 54.7165 232.304 54.7165C231.006 54.7165 229.954 53.6647 229.954 52.3663C229.954 51.0679 231.006 50.0161 232.304 50.0161C233.603 50.0161 234.654 51.0679 234.654 52.3663Z" fill="#FAFAFA"/>
<path d="M249.513 51.3448C249.414 51.3448 249.331 47.0296 249.331 41.706C249.331 36.3824 249.414 32.0673 249.513 32.0673C249.613 32.0673 249.695 36.3824 249.695 41.706C249.695 47.0296 249.613 51.3448 249.513 51.3448Z" fill="#EBEBEB"/>
<path d="M256.897 55.1935C258.458 53.6335 258.458 51.1041 256.897 49.544C255.337 47.9839 252.808 47.9839 251.248 49.544C249.688 51.1041 249.688 53.6335 251.248 55.1935C252.808 56.7536 255.337 56.7536 256.897 55.1935Z" fill="#EBEBEB"/>
<path d="M256.43 52.3663C256.43 53.6647 255.378 54.7165 254.079 54.7165C252.781 54.7165 251.729 53.6647 251.729 52.3663C251.729 51.0679 252.781 50.0161 254.079 50.0161C255.374 50.0161 256.43 51.0679 256.43 52.3663Z" fill="#FAFAFA"/>
<path d="M254.088 44.9954C254.088 45.0949 253.516 45.1772 252.811 45.1772C252.105 45.1772 251.534 45.0949 251.534 44.9954C251.534 44.8958 252.105 44.8136 252.811 44.8136C253.512 44.8136 254.088 44.8958 254.088 44.9954Z" fill="#EBEBEB"/>
<path d="M303 178.35C303 178.41 235.165 178.462 151.506 178.462C67.8219 178.462 0 178.415 0 178.35C0 178.289 67.8219 178.237 151.506 178.237C235.165 178.237 303 178.289 303 178.35Z" fill="black"/>
<path d="M60.5074 176.445C66.3374 172.403 67.6834 164.863 67.48 158.081C67.4454 156.947 67.5752 155.757 67.0385 154.761C66.5018 153.766 65.251 153.082 64.2339 153.558C63.3899 153.952 63.022 154.926 62.5502 155.735C61.9227 156.809 60.9834 157.696 59.8884 158.263C59.1656 158.635 58.274 158.86 57.5642 158.466C56.5904 157.925 56.4779 156.575 56.4908 155.45C56.5125 153.35 56.5298 151.251 56.5514 149.156C56.5644 148.031 56.5687 146.88 56.2225 145.811C55.8762 144.742 55.1058 143.746 54.0368 143.443C52.9677 143.14 51.639 143.751 51.4096 144.854C51.3144 145.313 51.4053 145.789 51.3707 146.257C51.336 146.724 51.1196 147.239 50.6738 147.369C50.2237 147.499 49.7736 147.179 49.4403 146.85C48.2804 145.707 47.497 144.24 46.7655 142.781C46.0341 141.323 45.3242 139.829 44.2725 138.587C43.2208 137.345 41.7665 136.354 40.1564 136.259C38.542 136.163 36.8238 137.15 36.4083 138.734C35.9928 140.318 36.9147 141.933 37.9188 143.223C39.4077 145.136 41.1692 146.828 43.1342 148.23C43.4891 148.481 43.87 148.758 44.0042 149.174C44.2465 149.927 43.5324 150.667 42.7923 150.914C41.9526 151.191 41.0437 151.1 40.1651 151.199C39.2865 151.299 38.3343 151.684 38.001 152.511C37.5379 153.658 38.4944 154.87 39.438 155.662C41.3294 157.25 43.4891 158.51 45.796 159.362C46.6227 159.67 47.4926 159.938 48.1592 160.522C48.8257 161.106 49.2239 162.119 48.8171 162.911C48.4102 163.703 47.3758 163.954 46.5058 163.79C45.6402 163.625 44.8655 163.154 44.0388 162.838C42.4936 162.249 40.494 162.349 39.4986 163.682C38.845 164.56 38.7844 165.781 39.109 166.833C39.4336 167.88 40.1002 168.785 40.8057 169.62C43.277 172.537 46.4409 174.892 50.0289 176.147C53.6126 177.389 56.9366 177.735 60.5074 176.445Z" fill="#054F31"/>
<path d="M60.122 178.354C59.884 175.666 59.7628 175.61 58.7717 172.187C57.7848 168.759 56.3912 165.097 54.8071 161.31C54.4046 160.366 54.0107 159.431 53.6212 158.514C53.2316 157.596 52.8421 156.687 52.405 155.822C51.5437 154.086 50.5828 152.481 49.622 150.987C48.6611 149.494 47.696 148.109 46.787 146.824C45.8738 145.538 44.9952 144.357 44.1512 143.314C42.4676 141.219 40.9181 139.695 39.8058 138.691C39.2518 138.189 38.8103 137.812 38.5073 137.557C38.3602 137.436 38.2476 137.345 38.1611 137.271C38.0832 137.211 38.0399 137.176 38.0399 137.181C38.0355 137.185 38.0745 137.219 38.1481 137.289C38.2303 137.362 38.3428 137.462 38.4813 137.587C38.7757 137.847 39.2085 138.237 39.7538 138.747C40.8445 139.769 42.3767 141.305 44.0387 143.404C44.874 144.452 45.7396 145.633 46.6442 146.923C47.5488 148.213 48.5096 149.598 49.4618 151.091C50.414 152.584 51.3662 154.186 52.2232 155.913C52.656 156.774 53.0369 157.679 53.4307 158.596C53.8203 159.514 54.2141 160.449 54.6166 161.392C56.2051 165.175 57.5987 168.828 58.5899 172.238C59.5897 175.649 59.7239 175.688 59.9749 178.363" fill="black"/>
<path d="M52.3445 155.813C52.3575 155.818 52.3965 155.644 52.4571 155.333C52.5177 155.021 52.5912 154.571 52.6691 154.008C52.8336 152.887 53.0067 151.334 53.1885 149.62C53.3703 147.906 53.5651 146.356 53.7469 145.24C53.8334 144.681 53.9113 144.231 53.9676 143.919C54.0239 143.608 54.0455 143.435 54.0325 143.43C54.0195 143.426 53.9676 143.595 53.8897 143.902C53.8074 144.209 53.7122 144.655 53.604 145.214C53.3876 146.326 53.1669 147.88 52.9851 149.594C52.8076 151.286 52.6475 152.818 52.5263 153.987C52.4657 154.515 52.4181 154.961 52.3792 155.32C52.3445 155.636 52.3316 155.813 52.3445 155.813Z" fill="black"/>
<path d="M37.8799 153.056C37.8799 153.069 38.0833 153.095 38.4555 153.125C38.8277 153.16 39.3644 153.208 40.0266 153.286C41.3511 153.433 43.1775 153.701 45.1728 154.086C47.1724 154.476 48.9642 154.9 50.254 155.251C50.8989 155.419 51.4183 155.571 51.7775 155.67C52.1368 155.774 52.3359 155.826 52.3402 155.809C52.3445 155.796 52.1541 155.718 51.7992 155.592C51.4486 155.467 50.9336 155.294 50.2887 155.108C49.0075 154.722 47.2113 154.272 45.2074 153.883C43.2035 153.498 41.3684 153.251 40.0353 153.143C39.3688 153.082 38.8277 153.056 38.4555 153.047C38.0876 153.039 37.8799 153.043 37.8799 153.056Z" fill="black"/>
<path d="M58.5943 171.922C58.603 171.927 58.6332 171.866 58.6938 171.745C58.7631 171.602 58.8453 171.429 58.9449 171.221C59.1613 170.767 59.4513 170.1 59.8062 169.274C60.5117 167.616 61.4119 165.3 62.3684 162.73C63.3293 160.159 64.2079 157.834 64.8744 156.168C65.2034 155.359 65.4717 154.692 65.6708 154.194C65.7574 153.978 65.8266 153.801 65.8829 153.658C65.9305 153.532 65.9521 153.467 65.9435 153.463C65.9348 153.459 65.9045 153.519 65.8439 153.64C65.7747 153.783 65.6924 153.952 65.5929 154.164C65.3765 154.619 65.0865 155.285 64.7316 156.112C64.0261 157.769 63.1259 160.085 62.165 162.656C61.2042 165.227 60.3255 167.551 59.659 169.217C59.3301 170.027 59.0617 170.693 58.8626 171.191C58.7761 171.407 58.7068 171.585 58.6506 171.728C58.6116 171.853 58.59 171.918 58.5943 171.922Z" fill="black"/>
<path d="M39.3816 165.655C39.3816 165.664 39.4465 165.69 39.572 165.733C39.7235 165.785 39.9053 165.846 40.1304 165.924C40.6454 166.092 41.3422 166.322 42.1862 166.599C43.9218 167.17 46.3153 167.984 48.9554 168.888C51.5956 169.793 53.9977 170.585 55.7463 171.122C56.6206 171.39 57.3304 171.598 57.8238 171.732C58.0532 171.793 58.2393 171.845 58.3951 171.884C58.5249 171.914 58.5942 171.931 58.5985 171.922C58.5985 171.914 58.5336 171.888 58.4081 171.845C58.2566 171.793 58.0748 171.732 57.8498 171.654C57.3347 171.485 56.6379 171.256 55.7939 170.979C54.0583 170.408 51.6648 169.594 49.0247 168.689C46.3845 167.785 43.9867 166.993 42.2338 166.456C41.3596 166.188 40.6497 165.98 40.1563 165.846C39.9269 165.785 39.7408 165.733 39.585 165.694C39.4508 165.66 39.3816 165.647 39.3816 165.655Z" fill="black"/>
<path d="M130.788 178.35H70.5529C63.2729 178.315 57.1226 172.109 57.1529 164.833L57.7935 13.1274C57.8238 5.84314 63.7534 -0.0344729 71.0376 0.0001522L131.549 0.281481C138.829 0.316106 144.703 6.24133 144.668 13.5169L144.027 165.223C143.997 172.507 138.067 178.384 130.788 178.35Z" fill="black"/>
<path d="M131.463 6.04613L119.729 5.99419C118.158 5.98554 116.873 7.31427 116.868 8.95897L116.86 11.0841C116.851 12.7288 115.57 14.0575 113.999 14.0489L91.1289 13.945C89.5578 13.9363 88.2853 12.5989 88.294 10.9542L88.3026 8.82479C88.3113 7.1801 87.0388 5.83838 85.4677 5.83405L81.343 5.81674L71.0723 5.76913C65.9738 5.74749 61.8187 9.86355 61.7971 14.9621L61.1695 163.041C61.1479 168.139 65.2596 172.29 70.3582 172.312L130.749 172.589C135.847 172.61 140.002 168.494 140.024 163.396L140.651 15.317C140.673 10.2185 136.561 6.06777 131.463 6.04613Z" fill="#F5F5F5"/>
<path d="M105.832 144.603C105.762 146.391 105.697 148.07 105.641 149.464H114.315L113.254 144.136L105.832 144.603Z" fill="#F5F5F5"/>
<path d="M70.5789 146.832L70.6524 149.459H104.78C104.836 147.983 104.901 146.343 104.966 144.655L70.5789 146.832Z" fill="#F5F5F5"/>
<path d="M113.691 144.106L114.76 149.464H130.753L130.562 143.041L113.691 144.106Z" fill="#F5F5F5"/>
<path d="M106.701 69.233L109.722 51.6997L101.802 51.1111V69.233H106.701Z" fill="#F5F5F5"/>
<path d="M69.8648 137.098L61.2691 140.466L61.2432 146.555L70.1202 145.993L69.8648 137.098Z" fill="#F5F5F5"/>
<path d="M69.8258 135.73L69.3541 119.4H69.3497V113.64L61.3773 114.484L61.2734 139.072L69.8215 135.722L69.8258 135.73Z" fill="#F5F5F5"/>
<path d="M69.3497 100.785L61.4379 99.7421L61.3816 113.181L69.3497 112.337V100.785Z" fill="#F5F5F5"/>
<path d="M128.29 113.882L127.957 118.565L118.617 119.569L119.34 123.274L129.944 122.473L129.784 117.163L130.632 113.648L128.29 113.882Z" fill="#F5F5F5"/>
<path d="M111.458 123.867L118.907 123.309L117.284 114.994L110.783 115.652L111.458 123.867Z" fill="#F5F5F5"/>
<path d="M111.527 124.733L112.099 131.662L113.107 141.167L113.523 143.249L130.537 142.175L129.97 123.339L111.527 124.733Z" fill="#F5F5F5"/>
<path d="M82.2475 92.0076L82.901 93.1286L69.7825 100.781V118.933L83.6282 117.955L110.315 115.263L109.337 103.365L83.8403 100.032L84.0091 98.7465L109.229 102.04L107.576 81.9014L82.6154 84.3035L82.5332 83.4422L107.507 81.0401L106.645 70.5314H82.6327L61.546 74.3704L61.4421 98.4349L69.4276 99.4866L82.2475 92.0076ZM71.1242 117.202C71.1242 117.202 71.2237 102.235 71.1242 101.672L81.832 95.9765L83.2213 116.436L71.1242 117.202Z" fill="#F5F5F5"/>
<path d="M127.416 113.973L117.717 114.951L118.452 118.717L127.148 117.782L127.416 113.973Z" fill="#F5F5F5"/>
<path d="M105.957 141.396C105.927 142.184 105.897 142.963 105.866 143.733L113.086 143.275L112.713 141.413L105.957 141.396Z" fill="#F5F5F5"/>
<path d="M90.406 69.233L91.6785 63.4679H101.369V51.0808L71.0635 48.8345V60.4642L61.5979 62.6066L61.5503 73.0461L82.5158 69.233H90.406Z" fill="#F5F5F5"/>
<path d="M110.627 34.7681L110.368 33.7077L121.941 29.1285L114.414 14.019C114.28 14.0407 114.142 14.0536 113.999 14.0536L101.209 13.993L101.555 35.1403L110.627 34.7681Z" fill="#F5F5F5"/>
<path d="M128.169 26.6615L128.156 6.02923L119.734 5.99028C118.162 5.98162 116.877 7.31036 116.873 8.95505L116.86 11.0845C116.855 12.1016 116.366 12.9932 115.622 13.5256L123.153 28.6481L128.169 26.6615Z" fill="#F5F5F5"/>
<path d="M84.6627 27.5487L83.6888 5.8258L81.343 5.81281L72.189 5.76953L68.2893 25.1985L84.6627 27.5487ZM82.5722 8.02449L82.8838 25.7179L70.7174 23.9391L73.3835 8.02882L82.5722 8.02449Z" fill="#F5F5F5"/>
<path d="M85.1041 27.6135L85.1085 27.7997C85.1301 29.4963 85.1647 32.5476 85.1907 35.811L101.131 35.1618L100.785 13.9929L91.1376 13.9496C89.5665 13.941 88.294 12.6036 88.3026 10.9589L88.3113 8.82942C88.3199 7.18473 87.0475 5.84301 85.4764 5.83868L84.126 5.83435L85.1041 27.6179V27.6135Z" fill="#F5F5F5"/>
<path d="M66.9994 25.0124L70.8601 5.7738C65.8568 5.86469 61.8186 9.92882 61.797 14.9581L61.7581 24.5493L61.797 24.2679L66.9994 25.0124Z" fill="#F5F5F5"/>
<path d="M69.7652 48.7392L61.6586 48.1376L61.6023 61.2735L69.7652 59.4254V48.7392Z" fill="#F5F5F5"/>
<path d="M66.9129 25.4365L61.7581 24.6964L61.6672 45.9692L62.7752 46.0514L66.9129 25.4365Z" fill="#F5F5F5"/>
<path d="M83.2907 135.484L83.4248 118.405L69.7869 119.37L70.2673 136.098L83.2907 135.484Z" fill="#F5F5F5"/>
<path d="M85.7966 131.541L105.113 140.794C105.343 134.748 105.55 129.096 105.529 128.732L105.948 128.71L106.152 128.303C106.425 128.442 106.425 128.442 106.282 132.562C106.199 134.861 106.087 137.921 105.97 140.985H112.648L111.666 131.701L110.35 115.691L85.1128 118.236L85.7966 131.541Z" fill="#F5F5F5"/>
<path d="M133.142 103.2L132.926 100.945L109.774 103.356L110.748 115.219L130.736 113.202L133.142 103.2Z" fill="#F5F5F5"/>
<path d="M101.369 64.7664H92.7217L91.7349 69.233H101.369V64.7664Z" fill="#F5F5F5"/>
<path d="M129.567 66.2726L107.905 64.775L107.022 69.8909L107.935 80.9969L130.779 78.7982L129.567 66.2726ZM108.705 69.8822L109.87 66.6534L128.684 67.8437L129.775 77.0843L109.346 79.508L108.705 69.8822Z" fill="#F5F5F5"/>
<path d="M131.813 89.4844L130.865 79.6638L108.009 81.8582L108.866 92.315L131.813 89.4844Z" fill="#F5F5F5"/>
<path d="M70.1459 146.863L61.2776 147.421L61.2386 146.845L61.23 149.464H70.2195L70.1459 146.863Z" fill="#F5F5F5"/>
<path d="M140.496 21.7836L140.625 22.1125L140.656 15.313C140.677 10.2145 136.566 6.06813 131.467 6.04216L128.589 6.02917L128.602 26.4883L140.496 21.7836Z" fill="#F5F5F5"/>
<path d="M105.096 141.266L85.3811 131.822L84.6843 118.288L83.8576 118.37L83.7191 135.895L70.2803 136.531L70.2933 136.921L70.2976 136.929H70.2933L70.5529 145.967L105.001 143.789C105.031 142.95 105.061 142.106 105.096 141.266ZM71.1243 137.648L89.9343 136.328L102.17 142.006L71.1243 143.686V137.648Z" fill="#F5F5F5"/>
<path d="M134.891 44.5106L135.696 39.728C128.623 37.2047 128.134 29.8339 128.156 27.6006L123.542 29.4271L130.493 43.3767L134.891 44.5106Z" fill="#F5F5F5"/>
<path d="M109.666 102.062L119.279 101.062L117.383 92.5703L108.974 93.6091L109.666 102.062Z" fill="#F5F5F5"/>
<path d="M129.602 51.8425H111.649L110.16 51.73L108.13 63.4895L129.442 64.9611L128.948 59.8496L131.043 52.3013L129.602 51.8425Z" fill="#F5F5F5"/>
<path d="M129.165 49.6785L129.39 44.0649L122.335 29.8989L111.393 34.2271L115.154 49.6742H129.165V49.6785ZM121.906 31.6259L128.373 43.9264L127.438 47.7612L116.375 47.3457L113.609 35.7116L121.906 31.6259Z" fill="#F5F5F5"/>
<path d="M131.956 117.388L132.285 128.412L140.067 127.974L140.089 128.407L132.298 128.844L132.696 142.037L140.05 141.569L140.106 142.435L132.722 142.902L132.917 149.464H140.084L140.24 112.679L132.913 113.419L131.956 117.388Z" fill="#F5F5F5"/>
<path d="M84.6756 27.9858L68.2027 25.6227L64.0823 46.1467L84.7448 47.6789C84.8314 44.5193 84.7578 34.8243 84.6756 27.9858Z" fill="#F5F5F5"/>
<path d="M111.77 49.6785H114.258L110.731 35.1965L101.564 35.5731L101.785 48.9427L111.77 49.6785Z" fill="#F5F5F5"/>
<path d="M61.1868 159.998L61.1738 163.037C61.1738 163.132 61.1825 163.223 61.1868 163.314V159.998Z" fill="#F5F5F5"/>
<path d="M85.1689 47.7091L101.352 48.908L101.131 35.5903L85.1863 36.2439C85.2209 40.7451 85.2382 45.5494 85.1689 47.7091Z" fill="#F5F5F5"/>
<path d="M131.939 90.7784L117.816 92.5183L119.712 101.014L132.8 99.6555L131.939 90.7784Z" fill="#F5F5F5"/>
<path d="M135.769 39.2909L136.674 33.924L140.574 34.227L140.621 22.6665L128.593 27.4275C128.351 35.56 133.462 38.4209 135.769 39.2909Z" fill="#F5F5F5"/>
<path d="M131.138 60.0444L131.632 65.1126L140.439 65.7229L140.483 55.2791L133.107 52.9506L131.138 60.0444Z" fill="#F5F5F5"/>
<path d="M135.332 103.352L133.017 112.973L140.24 112.246L140.284 102.157C138.068 101.573 136.133 101.097 135.09 100.898L135.332 103.352Z" fill="#F5F5F5"/>
<path d="M130.454 49.8429L140.496 53.0154L140.517 47.3066L130.658 44.7573L130.454 49.8429Z" fill="#F5F5F5"/>
<path d="M134.964 99.5732C135.774 99.6944 137.306 100.019 140.288 100.807L140.383 78.7505L133.017 79.4603L134.964 99.5732Z" fill="#F5F5F5"/>
<path d="M132.934 78.5947L140.387 77.8762L140.435 67.0256L131.757 66.424L132.934 78.5947Z" fill="#F5F5F5"/>
<path d="M136.6 39.5679C138.011 39.9964 139.327 40.3296 140.543 40.572L140.565 35.0969L137.392 34.8502L136.6 39.5679Z" fill="#F5F5F5"/>
<path d="M135.73 44.727L140.522 45.9649L140.543 41.0135C139.306 40.7668 137.968 40.4292 136.527 39.9921L135.73 44.727Z" fill="#F5F5F5"/>
<path d="M70.146 146.862L70.2196 149.464H70.6524L70.5788 146.837L104.966 144.659C104.901 146.347 104.836 147.988 104.78 149.464H105.645C105.702 148.07 105.767 146.391 105.836 144.603L113.259 144.136L114.319 149.464H114.76L113.691 144.105L130.558 143.036L130.753 149.459H132.917L132.718 142.898L140.102 142.43L140.045 141.565L132.692 142.028L132.294 128.836L140.084 128.399L140.058 127.966L132.281 128.403L131.952 117.379L132.908 113.406L140.24 112.666V112.229L133.017 112.956L135.332 103.334L135.094 100.876C136.133 101.075 138.067 101.551 140.288 102.135L140.292 100.785C137.31 100.002 135.778 99.6771 134.968 99.5516L133.021 79.4344L140.387 78.7246L140.392 77.8546L132.939 78.5731L131.761 66.4024L140.439 67.004L140.444 65.7012L131.632 65.091L131.142 60.0184L133.112 52.9289L140.487 55.2574L140.496 52.9895L130.459 49.8213L130.662 44.7357L140.521 47.285L140.526 45.9476L135.735 44.7098L136.531 39.9791C137.968 40.4163 139.305 40.7538 140.547 41.0005V40.5547C139.331 40.3124 138.016 39.9791 136.605 39.5506L137.401 34.833L140.573 35.0797L140.578 34.2097L136.678 33.9067L135.774 39.2736C133.467 38.4037 128.355 35.5428 128.597 27.4059L140.625 22.6449L140.63 22.0952L140.5 21.7663L128.606 26.471L128.593 6.01187H128.16L128.173 26.6441L123.161 28.6264L115.63 13.5039C115.275 13.7592 114.869 13.928 114.423 13.993L121.949 29.1025L110.376 33.6817L110.636 34.7421L101.564 35.1143L101.218 13.967H100.785L101.131 35.1359L85.1906 35.7851C85.1646 32.5217 85.13 29.4704 85.1083 27.7738L85.104 27.5876H85.0997L84.1215 5.80412H83.6887L84.6625 27.5271L68.2892 25.1769L72.1888 5.74786L71.0722 5.74353C71.0029 5.74353 70.9337 5.75219 70.8601 5.75219L66.9994 24.9908L61.797 24.242L61.758 24.5233V24.6705L66.9172 25.4106L62.7795 46.0212L61.6671 45.9389L61.6585 48.1074L69.7651 48.709V59.3995L61.6022 61.2476L61.5979 62.5806L71.0635 60.4382V48.8085L101.369 51.0548V63.4419H91.6785L90.406 69.207H82.5158L61.5546 73.0201L61.5503 74.3402L82.637 70.5011H106.649L107.511 81.0099L82.5374 83.412L82.6197 84.2733L107.58 81.8712L109.233 102.01L84.0133 98.7163L83.8445 100.002L109.342 103.334L110.32 115.232L83.6324 117.925L69.7867 118.903V100.75L82.9053 93.0984L82.2518 91.9774L69.4318 99.4521L61.4464 98.4003L61.4421 99.7074L69.3496 100.75V112.302L61.3858 113.146L61.3815 114.453L69.3539 113.609V119.37H69.3582L69.83 135.7L69.8257 135.692L61.2776 139.042L61.2733 140.44L69.869 137.072L70.1243 145.967L61.2473 146.529V146.819L61.2819 147.395L70.146 146.862ZM105.866 143.733C105.896 142.963 105.927 142.184 105.957 141.396L112.718 141.413L113.09 143.274L105.866 143.733ZM113.523 143.248L113.107 141.167L112.099 131.662L111.527 124.733L129.969 123.343L130.536 142.175L113.523 143.248ZM117.717 114.951L127.416 113.973L127.143 117.782L118.448 118.721L117.717 114.951ZM117.284 114.994L118.907 123.304L111.458 123.867L110.783 115.648L117.284 114.994ZM129.944 122.473L119.34 123.274L118.617 119.569L127.957 118.561L128.29 113.882L130.627 113.644L129.783 117.163L129.944 122.473ZM117.383 92.5703L119.279 101.058L109.666 102.058L108.974 93.6047L117.383 92.5703ZM119.712 101.015L117.816 92.5184L131.939 90.7785L132.8 99.6555L119.712 101.015ZM129.441 64.9611L108.13 63.4852L110.16 51.73L111.648 51.8425L129.602 51.8469L131.043 52.3013L128.944 59.8539L129.441 64.9611ZM128.156 27.5963C128.134 29.8296 128.623 37.2004 135.696 39.7237L134.891 44.5063L130.493 43.368L123.542 29.4184L128.156 27.5963ZM122.33 29.9032L129.385 44.0692L129.16 49.6828H115.15L111.389 34.2357L122.33 29.9032ZM110.731 35.1965L114.258 49.6785H111.765L101.785 48.9384L101.564 35.5687L110.731 35.1965ZM101.131 35.5904L101.352 48.9081L85.1689 47.7092C85.2382 45.5494 85.2209 40.7452 85.1906 36.2396L101.131 35.5904ZM68.2026 25.6227L84.6755 27.9858C84.7578 34.8243 84.8313 44.515 84.7491 47.6745L64.0866 46.1424L68.2026 25.6227ZM109.722 51.6997L106.697 69.233H101.802V51.1111L109.722 51.6997ZM92.7215 64.7664H101.369V69.233H91.7347L92.7215 64.7664ZM107.026 69.8909L107.909 64.775L129.571 66.2725L130.783 78.8025L107.939 81.0012L107.026 69.8909ZM130.865 79.6638L131.818 89.4887L108.87 92.3149L108.013 81.8625L130.865 79.6638ZM109.774 103.356L132.926 100.95L133.142 103.2L130.736 113.203L110.744 115.219L109.774 103.356ZM111.666 131.701L112.653 140.981H105.974C106.091 137.921 106.204 134.861 106.286 132.558C106.429 128.438 106.429 128.438 106.156 128.299L105.953 128.706L105.533 128.728C105.55 129.087 105.347 134.744 105.117 140.79L85.8008 131.537L85.117 118.236L110.354 115.691L111.666 131.701ZM83.4247 118.405L83.2905 135.484L70.2715 136.103L69.7911 119.374L83.4247 118.405ZM70.2931 136.929V136.921L70.2801 136.531L83.719 135.895L83.8575 118.37L84.6842 118.288L85.381 131.822L105.096 141.266C105.065 142.106 105.031 142.95 105 143.79L70.5528 145.967L70.2931 136.929Z" fill="white"/>
<path d="M89.9344 136.328L71.1243 137.648V143.686L102.17 142.002L89.9344 136.328Z" fill="#EBEBEB"/>
<path d="M128.68 67.8437L109.866 66.6534L108.706 69.8822L109.342 79.5037L129.771 77.0799L128.68 67.8437Z" fill="#EBEBEB"/>
<path d="M70.3624 172.308L130.753 172.585C135.851 172.606 140.006 168.49 140.028 163.392L140.089 149.459H132.917H130.753H114.76H114.319H105.645H104.78H70.6524H70.2196H61.2301L61.1868 159.994V163.309C61.3123 168.282 65.3591 172.282 70.3624 172.308Z" fill="#EBEBEB"/>
<path d="M82.888 25.7178L82.5721 8.02441H73.3834L70.7173 23.939L82.888 25.7178Z" fill="#EBEBEB"/>
<path d="M127.438 47.7612L128.373 43.9264L121.906 31.6259L113.605 35.7116L116.375 47.3457L127.438 47.7612Z" fill="#EBEBEB"/>
<path d="M71.1243 101.677C71.2238 102.235 71.1243 117.206 71.1243 117.206L83.2171 116.44L81.8278 95.9808L71.1243 101.677Z" fill="#EBEBEB"/>
<path d="M111.458 113.83L110.822 104.555L131.562 101.889V103.49L129.056 112.021L111.458 113.83Z" fill="#EBEBEB"/>
<path d="M96.1151 36.9063C96.1151 38.3 94.9854 39.4339 93.5874 39.4339C92.1938 39.4339 91.0598 38.3043 91.0598 36.9063C91.0598 35.5126 92.1895 34.3787 93.5874 34.3787C94.9854 34.3787 96.1151 35.5126 96.1151 36.9063Z" fill="#FEC54B"/>
<g opacity="0.6">
<path opacity="0.6" d="M96.115 36.798C96.1755 38.1917 95.0935 39.3689 93.6999 39.4295C92.3062 39.4901 91.1289 38.4081 91.0683 37.0144C91.0077 35.6208 92.0898 34.4435 93.4834 34.3829C94.8771 34.3223 96.0544 35.4044 96.115 36.798Z" fill="white"/>
</g>
<path d="M93.5917 38.499C94.5191 38.499 95.271 37.7472 95.271 36.8197C95.271 35.8922 94.5191 35.1404 93.5917 35.1404C92.6642 35.1404 91.9124 35.8922 91.9124 36.8197C91.9124 37.7472 92.6642 38.499 93.5917 38.499Z" fill="#FEC54B"/>
<path d="M132.64 137.817C132.64 138.414 132.155 138.895 131.562 138.895C130.969 138.895 130.485 138.41 130.485 137.817C130.485 137.22 130.969 136.739 131.562 136.739C132.155 136.739 132.64 137.22 132.64 137.817Z" fill="#FEC54B"/>
<path d="M130.913 137.466L130.654 131.415L112.419 132.303C111.943 132.329 111.467 132.225 111.043 132.008L85.1821 118.946C84.5848 118.643 84.191 118.042 84.1563 117.371L80.6376 49.0986C80.6203 48.7697 80.7458 48.4537 80.9795 48.2243C81.2132 47.9949 81.5378 47.8781 81.8624 47.8997L92.9468 48.7221V36.6033H94.2452V48.8865C94.2452 49.2025 94.1111 49.5098 93.8817 49.7219C93.648 49.9383 93.3363 50.0465 93.0204 50.0248L81.9447 49.2025L85.4548 117.297C85.4634 117.501 85.5846 117.687 85.7707 117.782L111.631 130.844C111.856 130.957 112.107 131.013 112.363 131L130.749 130.104C131.06 130.091 131.35 130.195 131.58 130.403C131.809 130.61 131.939 130.892 131.952 131.203L132.22 137.406L130.913 137.466Z" fill="#FEC54B"/>
<path d="M82.7496 82.0141C84.5567 82.0141 86.0217 80.5492 86.0217 78.742C86.0217 76.9349 84.5567 75.47 82.7496 75.47C80.9425 75.47 79.4775 76.9349 79.4775 78.742C79.4775 80.5492 80.9425 82.0141 82.7496 82.0141Z" fill="#FEC54B"/>
<path d="M82.7498 81.0143C84.0048 81.0143 85.0221 79.9969 85.0221 78.742C85.0221 77.4871 84.0048 76.4697 82.7498 76.4697C81.4949 76.4697 80.4775 77.4871 80.4775 78.742C80.4775 79.9969 81.4949 81.0143 82.7498 81.0143Z" fill="#FAFAFA"/>
<path d="M82.7497 81.1788C81.408 81.1788 80.313 80.0881 80.313 78.742C80.313 77.4003 81.4037 76.3053 82.7497 76.3053C84.0915 76.3053 85.1865 77.396 85.1865 78.742C85.1865 80.0881 84.0915 81.1788 82.7497 81.1788ZM82.7497 76.6342C81.5855 76.6342 80.6376 77.5821 80.6376 78.7464C80.6376 79.9106 81.5855 80.8585 82.7497 80.8585C83.914 80.8585 84.8619 79.9106 84.8619 78.7464C84.8619 77.5778 83.914 76.6342 82.7497 76.6342Z" fill="#FEC54B"/>
<path d="M102.027 65.0176H86.4457C85.6883 65.0176 85.0737 65.6322 85.0737 66.3896V72.0335C85.0737 72.7909 85.6883 73.4055 86.4457 73.4055H86.6275V74.7516L88.1857 73.4055H102.027C102.784 73.4055 103.399 72.7909 103.399 72.0335V66.3896C103.399 65.6322 102.784 65.0176 102.027 65.0176Z" fill="#FEC54B"/>
<g opacity="0.4">
<g opacity="0.4">
<path opacity="0.4" d="M102.027 65.0176H86.4457C85.6883 65.0176 85.0737 65.6322 85.0737 66.3896V72.0335C85.0737 72.7909 85.6883 73.4055 86.4457 73.4055H86.6275V74.7516L88.1857 73.4055H102.027C102.784 73.4055 103.399 72.7909 103.399 72.0335V66.3896C103.399 65.6322 102.784 65.0176 102.027 65.0176Z" fill="white"/>
</g>
</g>
<path d="M88.5752 69.1202C88.5752 68.6052 88.9734 68.22 89.5144 68.22C90.0511 68.22 90.4493 68.6008 90.4493 69.1202C90.4493 69.6396 90.0511 70.0205 89.5144 70.0205C88.9734 70.0205 88.5752 69.6353 88.5752 69.1202ZM90.1982 69.1202C90.1982 68.7307 89.9083 68.445 89.5144 68.445C89.1205 68.445 88.8262 68.7307 88.8262 69.1202C88.8262 69.5098 89.1162 69.7954 89.5144 69.7954C89.9039 69.7997 90.1982 69.5098 90.1982 69.1202Z" fill="white"/>
<path d="M92.1804 69.337C92.1804 69.7439 91.8948 70.0209 91.5052 70.0209C91.3105 70.0209 91.1373 69.9473 91.0291 69.7958V70.0079H90.7954V68.1425H91.0378V68.8782C91.1503 68.7354 91.3148 68.6662 91.5052 68.6662C91.8948 68.6575 92.1804 68.9258 92.1804 69.337ZM91.938 69.337C91.938 69.0514 91.7433 68.8696 91.4879 68.8696C91.2326 68.8696 91.0421 69.0514 91.0421 69.337C91.0421 69.6227 91.2369 69.8088 91.4879 69.8088C91.7433 69.8045 91.938 69.6183 91.938 69.337Z" fill="white"/>
<path d="M92.0549 70.4234L92.1328 70.2373C92.1804 70.2762 92.2497 70.3022 92.3276 70.3022C92.4575 70.3022 92.5267 70.22 92.5267 70.0685V68.6705H92.7691V70.0642C92.7691 70.3368 92.6176 70.5056 92.3449 70.5056C92.2324 70.5056 92.1242 70.4797 92.0549 70.4234ZM92.4834 68.255C92.4834 68.1684 92.5527 68.0948 92.6479 68.0948C92.7431 68.0948 92.8124 68.1641 92.8124 68.2463C92.8124 68.3372 92.7431 68.4065 92.6479 68.4065C92.557 68.4108 92.4834 68.3459 92.4834 68.255Z" fill="white"/>
<path d="M94.4311 69.415H93.3491C93.3794 69.6487 93.5698 69.8045 93.8338 69.8045C93.9896 69.8045 94.1195 69.7525 94.219 69.6443L94.3532 69.8002C94.232 69.943 94.0502 70.0166 93.8252 70.0166C93.3967 70.0166 93.1067 69.7309 93.1067 69.3327C93.1067 68.9389 93.3923 68.6532 93.7776 68.6532C94.1628 68.6532 94.4354 68.9302 94.4354 69.3414C94.4354 69.363 94.4311 69.3933 94.4311 69.415ZM93.3491 69.2418H94.206C94.1801 69.0168 94.0113 68.861 93.7776 68.861C93.5438 68.861 93.375 69.0168 93.3491 69.2418Z" fill="white"/>
<path d="M94.6475 69.3371C94.6475 68.9389 94.9418 68.6576 95.3529 68.6576C95.591 68.6576 95.7901 68.7571 95.8983 68.9432L95.7165 69.0601C95.6299 68.9303 95.5001 68.8697 95.3529 68.8697C95.0933 68.8697 94.8942 69.0514 94.8942 69.3371C94.8942 69.6271 95.0889 69.8089 95.3529 69.8089C95.5001 69.8089 95.6299 69.7483 95.7165 69.6184L95.8983 69.7353C95.7944 69.9214 95.5953 70.021 95.3529 70.021C94.9418 70.0166 94.6475 69.7353 94.6475 69.3371Z" fill="white"/>
<path d="M96.9717 69.9256C96.8981 69.9906 96.7899 70.0165 96.6817 70.0165C96.4133 70.0165 96.2575 69.8694 96.2575 69.601V68.8696H96.0325V68.6705H96.2575V68.3805H96.4999V68.6705H96.8808V68.8696H96.4999V69.5924C96.4999 69.7352 96.5735 69.8174 96.7077 69.8174C96.7769 69.8174 96.8462 69.7958 96.8981 69.7525L96.9717 69.9256Z" fill="white"/>
<path d="M97.2229 68.255C97.2229 68.1684 97.2921 68.0948 97.3874 68.0948C97.4783 68.0948 97.5518 68.1641 97.5518 68.2463C97.5518 68.3372 97.4826 68.4065 97.3874 68.4065C97.2921 68.4108 97.2229 68.3459 97.2229 68.255ZM97.2662 68.6705H97.5086V70.0036H97.2662V68.6705Z" fill="white"/>
<path d="M99.1489 68.6705L98.5646 70.0036H98.3179L97.7336 68.6705H97.9847L98.4435 69.7396L98.9109 68.6705H99.1489Z" fill="white"/>
<path d="M100.538 69.415H99.4562C99.4865 69.6487 99.677 69.8045 99.941 69.8045C100.097 69.8045 100.227 69.7525 100.326 69.6443L100.46 69.8002C100.339 69.943 100.157 70.0166 99.9323 70.0166C99.5039 70.0166 99.2139 69.7309 99.2139 69.3327C99.2139 68.9389 99.4995 68.6532 99.8847 68.6532C100.27 68.6532 100.543 68.9302 100.543 69.3414C100.543 69.363 100.538 69.3933 100.538 69.415ZM99.4562 69.2418H100.313C100.287 69.0168 100.118 68.861 99.8847 68.861C99.651 68.861 99.4779 69.0168 99.4562 69.2418Z" fill="white"/>
<path d="M96.8808 28.4188C96.8808 26.4235 95.0803 24.8524 93.0158 25.2376C91.7174 25.48 90.683 26.5404 90.4536 27.8432C90.3107 28.6569 90.4795 29.4229 90.8517 30.0549L90.8604 30.0678C90.9859 30.2756 91.1417 30.4271 91.2975 30.6478L93.1803 33.1408C93.414 33.4524 93.8814 33.4524 94.1152 33.1408L95.9633 30.6911C95.9633 30.6911 96.3095 30.2799 96.435 30.0678L96.4437 30.0592C96.7164 29.5744 96.8808 29.0161 96.8808 28.4188ZM93.6391 29.8298C92.8513 29.8298 92.2151 29.1936 92.2151 28.4058C92.2151 27.6181 92.8513 26.9819 93.6391 26.9819C94.4268 26.9819 95.063 27.6181 95.063 28.4058C95.063 29.1936 94.4268 29.8298 93.6391 29.8298Z" fill="#FEC54B"/>
<path d="M75.9067 156.042H75.3008V155.821H76.7594V156.042H76.1534V157.583H75.9024V156.042H75.9067Z" fill="black"/>
<path d="M76.7378 156.917C76.7378 156.519 77.0321 156.237 77.4303 156.237C77.8285 156.237 78.1228 156.519 78.1228 156.917C78.1228 157.315 77.8328 157.601 77.4303 157.601C77.0321 157.601 76.7378 157.315 76.7378 156.917ZM77.8804 156.917C77.8804 156.631 77.69 156.449 77.4346 156.449C77.1793 156.449 76.9845 156.631 76.9845 156.917C76.9845 157.202 77.1793 157.389 77.4346 157.389C77.6857 157.389 77.8804 157.202 77.8804 156.917Z" fill="black"/>
<path d="M79.209 157.505C79.1354 157.57 79.0272 157.601 78.919 157.601C78.6507 157.601 78.4948 157.454 78.4948 157.181V156.449H78.2698V156.25H78.4948V155.96H78.7372V156.25H79.1181V156.449H78.7372V157.172C78.7372 157.315 78.8108 157.397 78.945 157.397C79.0142 157.397 79.0835 157.376 79.1354 157.332L79.209 157.505Z" fill="black"/>
<path d="M80.5552 156.778V157.583H80.3258V157.406C80.2436 157.527 80.0964 157.596 79.8887 157.596C79.5857 157.596 79.3953 157.436 79.3953 157.203C79.3953 156.99 79.5338 156.813 79.9319 156.813H80.3128V156.765C80.3128 156.562 80.196 156.445 79.9536 156.445C79.7934 156.445 79.6333 156.501 79.5294 156.588L79.4299 156.406C79.5684 156.294 79.7675 156.233 79.9796 156.233C80.3518 156.237 80.5552 156.415 80.5552 156.778ZM80.3128 157.177V156.99H79.9406C79.7026 156.99 79.6333 157.081 79.6333 157.198C79.6333 157.332 79.7458 157.415 79.9276 157.415C80.1094 157.415 80.2522 157.332 80.3128 157.177Z" fill="black"/>
<path d="M81.0051 155.718H81.2475V157.583H81.0051V155.718Z" fill="black"/>
<path d="M83.6411 155.718V157.583H83.4074V157.371C83.2992 157.523 83.1304 157.596 82.9313 157.596C82.5418 157.596 82.2561 157.324 82.2561 156.912C82.2561 156.506 82.5418 156.233 82.9313 156.233C83.1217 156.233 83.2862 156.302 83.3987 156.445V155.709H83.6411V155.718ZM83.4031 156.917C83.4031 156.631 83.2083 156.449 82.9573 156.449C82.7019 156.449 82.5071 156.631 82.5071 156.917C82.5071 157.202 82.7019 157.389 82.9573 157.389C83.2083 157.389 83.4031 157.202 83.4031 156.917Z" fill="black"/>
<path d="M84.0566 155.839C84.0566 155.753 84.1259 155.679 84.2211 155.679C84.312 155.679 84.3856 155.748 84.3856 155.835C84.3856 155.926 84.3163 155.995 84.2211 155.995C84.1259 155.995 84.0566 155.926 84.0566 155.839ZM84.0999 156.25H84.3423V157.583H84.0999V156.25Z" fill="black"/>
<path d="M84.6321 157.445L84.7316 157.254C84.8442 157.337 85.0259 157.393 85.1991 157.393C85.4241 157.393 85.515 157.324 85.515 157.211C85.515 156.912 84.671 157.172 84.671 156.64C84.671 156.402 84.8831 156.242 85.225 156.242C85.3982 156.242 85.5973 156.285 85.7098 156.363L85.6059 156.553C85.4847 156.475 85.3506 156.449 85.2207 156.449C85.0086 156.449 84.9048 156.527 84.9048 156.631C84.9048 156.947 85.7487 156.687 85.7487 157.207C85.7487 157.449 85.528 157.601 85.1731 157.601C84.961 157.601 84.7446 157.531 84.6321 157.445Z" fill="black"/>
<path d="M86.8137 157.505C86.7401 157.57 86.6319 157.601 86.5237 157.601C86.2554 157.601 86.0996 157.454 86.0996 157.181V156.449H85.8745V156.25H86.0996V155.96H86.342V156.25H86.7228V156.449H86.342V157.172C86.342 157.315 86.4155 157.397 86.5497 157.397C86.619 157.397 86.6882 157.376 86.7401 157.332L86.8137 157.505Z" fill="black"/>
<path d="M88.1597 156.778V157.583H87.9303V157.406C87.8481 157.527 87.7009 157.596 87.4932 157.596C87.1902 157.596 86.9998 157.436 86.9998 157.203C86.9998 156.99 87.1383 156.813 87.5364 156.813H87.9173V156.765C87.9173 156.562 87.8005 156.445 87.5581 156.445C87.3979 156.445 87.2378 156.501 87.1339 156.588L87.0344 156.406C87.1729 156.294 87.372 156.233 87.5841 156.233C87.9519 156.237 88.1597 156.415 88.1597 156.778ZM87.9173 157.177V156.99H87.5451C87.3071 156.99 87.2378 157.081 87.2378 157.198C87.2378 157.332 87.3503 157.415 87.5321 157.415C87.7139 157.415 87.8567 157.332 87.9173 157.177Z" fill="black"/>
<path d="M89.8736 156.817V157.583H89.6312V156.843C89.6312 156.584 89.5014 156.454 89.272 156.454C89.0166 156.454 88.8478 156.605 88.8478 156.895V157.583H88.6055V156.25H88.8392V156.449C88.9387 156.315 89.1075 156.237 89.3196 156.237C89.6442 156.237 89.8736 156.423 89.8736 156.817Z" fill="black"/>
<path d="M90.2068 156.917C90.2068 156.519 90.5011 156.237 90.9123 156.237C91.1503 156.237 91.3494 156.337 91.4576 156.523L91.2758 156.64C91.1893 156.51 91.0594 156.449 90.9123 156.449C90.6526 156.449 90.4535 156.631 90.4535 156.917C90.4535 157.207 90.6483 157.389 90.9123 157.389C91.0594 157.389 91.1893 157.328 91.2758 157.198L91.4576 157.315C91.3537 157.501 91.1547 157.601 90.9123 157.601C90.5011 157.601 90.2068 157.315 90.2068 156.917Z" fill="black"/>
<path d="M92.9465 156.999H91.8644C91.8947 157.233 92.0852 157.389 92.3492 157.389C92.505 157.389 92.6349 157.337 92.7344 157.228L92.8686 157.384C92.7474 157.527 92.5656 157.601 92.3405 157.601C91.9121 157.601 91.6221 157.315 91.6221 156.917C91.6221 156.523 91.9077 156.237 92.2929 156.237C92.6781 156.237 92.9508 156.514 92.9508 156.925C92.9508 156.947 92.9465 156.977 92.9465 156.999ZM91.8644 156.826H92.7214C92.6954 156.601 92.5267 156.445 92.2929 156.445C92.0592 156.441 91.8904 156.597 91.8644 156.826Z" fill="black"/>
<path d="M77.4866 159.561V163.764H76.5128V160.34H75.6731V159.561H77.4866Z" fill="black"/>
<path d="M79.3563 163.223C79.3563 163.379 79.3303 163.491 79.1962 163.824L78.8542 164.69H78.2613L78.5253 163.738C78.3262 163.66 78.2007 163.474 78.2007 163.227C78.2007 162.881 78.4517 162.652 78.785 162.652C79.1139 162.647 79.3563 162.881 79.3563 163.223Z" fill="black"/>
<path d="M81.3169 159.561V163.764H80.3431V160.34H79.5034V159.561H81.3169Z" fill="black"/>
<path d="M82.0483 161.66C82.0483 160.275 82.8187 159.488 83.8488 159.488C84.8876 159.488 85.6493 160.275 85.6493 161.66C85.6493 163.045 84.8876 163.833 83.8488 163.833C82.8187 163.833 82.0483 163.045 82.0483 161.66ZM84.6712 161.66C84.6712 160.704 84.3336 160.31 83.8488 160.31C83.3684 160.31 83.0308 160.708 83.0308 161.66C83.0308 162.617 83.3684 163.011 83.8488 163.011C84.3379 163.011 84.6712 162.617 84.6712 161.66Z" fill="black"/>
<path d="M86.1255 161.66C86.1255 160.275 86.8959 159.488 87.926 159.488C88.9647 159.488 89.7265 160.275 89.7265 161.66C89.7265 163.045 88.9647 163.833 87.926 163.833C86.8959 163.833 86.1255 163.045 86.1255 161.66ZM88.7483 161.66C88.7483 160.704 88.4107 160.31 87.926 160.31C87.4456 160.31 87.108 160.708 87.108 161.66C87.108 162.617 87.4456 163.011 87.926 163.011C88.4151 163.011 88.7483 162.617 88.7483 161.66Z" fill="black"/>
<path d="M97.5561 161.911V163.76H96.6212V162.054C96.6212 161.531 96.3875 161.293 96.0109 161.293C95.5911 161.293 95.2968 161.561 95.2968 162.141V163.764H94.3619V162.059C94.3619 161.535 94.1412 161.297 93.7516 161.297C93.3361 161.297 93.0418 161.565 93.0418 162.145V163.768H92.1069V160.539H93.0029V160.912C93.2409 160.635 93.6045 160.492 94.0156 160.492C94.4658 160.492 94.851 160.665 95.0804 161.02C95.3401 160.691 95.7599 160.492 96.2446 160.492C97.0021 160.483 97.5561 160.929 97.5561 161.911Z" fill="black"/>
<path d="M73.0879 160.06C73.5458 158.112 72.3383 156.162 70.3908 155.704C68.4433 155.246 66.4932 156.454 66.0353 158.401C65.5773 160.349 66.7848 162.299 68.7323 162.757C70.6799 163.215 72.6299 162.007 73.0879 160.06Z" fill="#FEC54B"/>
<path d="M68.1075 159.89C68.1075 159.869 68.4451 159.851 69.0381 159.834C69.631 159.817 70.475 159.804 71.4878 159.795L71.4142 159.955C71.1286 159.626 70.817 159.263 70.488 158.886L70.4274 158.817L70.4837 158.748C70.7737 158.384 71.081 158.003 71.3969 157.605L71.4835 157.787C71.3536 157.787 71.2108 157.787 71.0723 157.787C70.0033 157.782 68.9948 157.778 68.1032 157.774L68.2028 157.674C68.1941 158.774 68.1811 159.7 68.1638 160.349C68.1465 160.998 68.1249 161.375 68.1032 161.375C68.0816 161.375 68.0599 160.998 68.0426 160.349C68.0253 159.7 68.0123 158.774 68.0037 157.674V157.575H68.1075C68.9991 157.57 70.0076 157.566 71.0766 157.562C71.2195 157.562 71.358 157.562 71.4878 157.562H71.7215L71.5744 157.743C71.2541 158.137 70.9468 158.518 70.6525 158.877V158.739C70.9728 159.12 71.2801 159.488 71.5614 159.821L71.6999 159.985H71.4878C70.475 159.977 69.6267 159.964 69.0381 159.946C68.4451 159.933 68.1075 159.912 68.1075 159.89Z" fill="#FAFAFA"/>
<path d="M128.182 153.047H117.228C116.072 153.047 115.133 153.987 115.133 155.142V163.764C115.133 164.92 116.072 165.859 117.228 165.859H117.505V167.915L119.889 165.859H128.182C129.338 165.859 130.277 164.92 130.277 163.764V155.142C130.277 153.987 129.338 153.047 128.182 153.047Z" fill="#FEC54B"/>
<path d="M118.271 157.003V161.427C118.271 161.522 118.349 161.6 118.444 161.6H127.715C127.81 161.6 127.888 161.522 127.888 161.427L127.866 159.808C127.866 159.773 127.853 159.734 127.832 159.708L126.503 157.93C126.473 157.886 126.421 157.86 126.364 157.86L124.832 157.847C124.737 157.847 124.659 157.769 124.659 157.674V157.008C124.659 156.912 124.581 156.835 124.486 156.835H118.44C118.349 156.83 118.271 156.908 118.271 157.003Z" fill="#FAFAFA"/>
<path d="M125.092 158.232V159.652C125.092 159.708 125.135 159.752 125.192 159.752L127.239 159.717C127.317 159.717 127.364 159.626 127.317 159.561L126.36 158.15C126.343 158.124 126.308 158.107 126.274 158.107L125.183 158.137C125.135 158.133 125.092 158.176 125.092 158.232Z" fill="#FEC54B"/>
<path d="M128.07 161.734H118.085V162.041H128.07V161.734Z" fill="#FAFAFA"/>
<path d="M121.387 161.851C121.387 162.396 120.945 162.838 120.4 162.838C119.855 162.838 119.413 162.396 119.413 161.851C119.413 161.305 119.855 160.864 120.4 160.864C120.945 160.864 121.387 161.305 121.387 161.851Z" fill="#FEC54B"/>
<path d="M120.985 161.851C120.985 162.171 120.725 162.431 120.405 162.431C120.084 162.431 119.825 162.171 119.825 161.851C119.825 161.531 120.084 161.271 120.405 161.271C120.721 161.271 120.985 161.531 120.985 161.851Z" fill="#FAFAFA"/>
<path d="M124.655 161.6C124.629 161.6 124.612 160.531 124.612 159.215C124.612 157.899 124.633 156.83 124.655 156.83C124.681 156.83 124.698 157.895 124.698 159.215C124.702 160.531 124.681 161.6 124.655 161.6Z" fill="#FEC54B"/>
<path d="M126.771 161.851C126.771 162.396 126.33 162.838 125.784 162.838C125.239 162.838 124.798 162.396 124.798 161.851C124.798 161.305 125.239 160.864 125.784 160.864C126.33 160.864 126.771 161.305 126.771 161.851Z" fill="#FEC54B"/>
<path d="M126.364 161.851C126.364 162.171 126.105 162.431 125.784 162.431C125.464 162.431 125.204 162.171 125.204 161.851C125.204 161.531 125.464 161.271 125.784 161.271C126.105 161.271 126.364 161.531 126.364 161.851Z" fill="#FAFAFA"/>
<path d="M125.784 160.029C125.784 160.055 125.642 160.072 125.469 160.072C125.295 160.072 125.153 160.05 125.153 160.029C125.153 160.003 125.295 159.985 125.469 159.985C125.646 159.981 125.784 160.003 125.784 160.029Z" fill="#FEC54B"/>
<path d="M229.075 87.4329C229.075 87.4329 236.057 88.6144 236.619 88.7616C237.182 88.9131 239.394 89.9605 239.506 90.6357C239.619 91.3109 239.506 93.2975 239.506 93.2975C239.506 93.2975 239.108 93.6221 238.857 92.9729C238.606 92.3237 238.645 91.0382 238.645 91.0382L237.407 90.5621L238.082 91.761L238.195 94.57C238.195 94.57 237.329 94.4921 237.165 93.8169C236.996 93.146 237 92.3929 237 92.3929L236.096 91.6268L236.771 92.5401L237 94.5656C237 94.5656 236.342 94.7777 236.135 94.3276C235.927 93.8775 235.91 92.5401 235.91 92.5401L233.365 91.6528L231.681 92.592L228.534 90.8131L229.075 87.4329Z" fill="#FFBE9D"/>
<path d="M204.634 70.1766C204.665 70.3151 213.048 81.854 213.048 81.854L229.885 87.091L229.119 93.4144L208.482 89.2594L201.159 80.8542L204.634 70.1766Z" fill="#FEC54B"/>
<g opacity="0.2">
<g opacity="0.2">
<path opacity="0.2" d="M204.634 70.1766C204.665 70.3151 213.048 81.854 213.048 81.854L229.885 87.091L229.119 93.4144L208.482 89.2594L201.159 80.8542L204.634 70.1766Z" fill="black"/>
</g>
</g>
<path d="M175.307 92.7606H140.907C140.18 92.7606 139.587 92.1719 139.587 91.4405V87.3764C139.587 86.6492 140.175 86.0563 140.907 86.0563H175.307C176.034 86.0563 176.627 86.6449 176.627 87.3764V91.4405C176.627 92.1719 176.038 92.7606 175.307 92.7606Z" fill="#F5F5F5"/>
<path d="M175.307 92.7609C175.307 92.7523 175.381 92.7566 175.523 92.7306C175.662 92.7003 175.878 92.6441 176.099 92.4666C176.316 92.2978 176.541 91.9992 176.584 91.5923C176.601 91.1855 176.584 90.7007 176.584 90.1641C176.58 89.623 176.58 89.0258 176.575 88.3679C176.575 88.0389 176.571 87.697 176.571 87.3421C176.562 87.0002 176.406 86.6539 176.125 86.4159C175.987 86.2947 175.818 86.2081 175.636 86.1605C175.454 86.1086 175.259 86.1172 175.052 86.1172C174.641 86.1172 174.221 86.1216 173.788 86.1216C172.918 86.1259 172 86.1259 171.039 86.1302C163.322 86.1389 152.671 86.1519 140.911 86.1649C140.574 86.1605 140.24 86.312 140.02 86.5587C139.79 86.8098 139.682 87.1387 139.704 87.4893C139.704 88.2164 139.704 88.9392 139.704 89.6533C139.704 90.0126 139.704 90.3675 139.704 90.7224V91.2547C139.704 91.4365 139.704 91.5923 139.747 91.7525C139.829 92.0641 140.046 92.3368 140.327 92.4926C140.466 92.5705 140.621 92.6181 140.781 92.6354C140.933 92.6484 141.119 92.6398 141.292 92.6441C144.067 92.6484 146.741 92.6484 149.291 92.6527C154.385 92.6614 158.977 92.6701 162.838 92.6787C166.685 92.6917 169.802 92.7047 171.97 92.7133C173.039 92.722 173.874 92.7306 174.454 92.735C174.731 92.7393 174.943 92.7436 175.099 92.748C175.233 92.7523 175.307 92.7609 175.307 92.7609C175.307 92.7609 175.233 92.7696 175.086 92.7739C174.93 92.7783 174.718 92.7783 174.441 92.7869C173.866 92.7912 173.03 92.7999 171.957 92.8085C169.793 92.8172 166.672 92.8302 162.825 92.8432C158.968 92.8518 154.376 92.8562 149.278 92.8691C146.728 92.8691 144.054 92.8735 141.279 92.8778C141.102 92.8735 140.942 92.8865 140.747 92.8691C140.561 92.8475 140.375 92.7912 140.21 92.7003C139.877 92.5186 139.622 92.194 139.522 91.8261C139.47 91.6443 139.47 91.4409 139.47 91.2721V90.7397C139.47 90.3848 139.47 90.0256 139.47 89.6706C139.47 88.9522 139.47 88.2337 139.47 87.5066C139.444 87.1344 139.574 86.7102 139.842 86.4245C140.106 86.1302 140.504 85.9528 140.903 85.9571C152.662 85.9701 163.314 85.9831 171.031 85.9917C171.996 85.9961 172.914 85.9961 173.779 86.0004C174.212 86.0004 174.636 86.0047 175.043 86.0047C175.242 86.0047 175.459 85.9961 175.658 86.0567C175.857 86.1129 176.043 86.2081 176.194 86.3423C176.502 86.6063 176.67 86.9872 176.675 87.3594C176.675 87.7143 176.675 88.0563 176.67 88.3852C176.666 89.0387 176.662 89.6404 176.662 90.1814C176.653 90.7224 176.666 91.1942 176.64 91.6183C176.584 92.0468 176.346 92.3498 176.116 92.5229C175.883 92.7003 175.662 92.748 175.519 92.7739C175.385 92.7739 175.307 92.7609 175.307 92.7609Z" fill="black"/>
<path d="M268.706 178.416C278.468 177.947 286.002 169.652 285.533 159.89C285.064 150.127 276.769 142.594 267.007 143.063C257.244 143.532 249.711 151.826 250.18 161.589C250.649 171.351 258.943 178.885 268.706 178.416Z" fill="black"/>
<path d="M250.171 160.453C250.171 160.47 250.166 160.483 250.166 160.5C250.023 170.273 257.831 178.311 267.604 178.449C277.377 178.592 285.415 170.784 285.553 161.011C285.553 160.994 285.553 160.981 285.553 160.964L250.171 160.453Z" fill="black"/>
<path d="M255.442 160.574C255.343 167.434 260.826 173.078 267.687 173.178C274.547 173.277 280.191 167.793 280.29 160.933C280.39 154.073 274.906 148.429 268.046 148.33C261.181 148.235 255.542 153.714 255.442 160.574Z" fill="#FAFAFA"/>
<path d="M268.042 148.33C261.181 148.23 255.538 153.714 255.438 160.574L280.286 160.933C280.385 154.073 274.906 148.429 268.042 148.33Z" fill="#E0E0E0"/>
<path d="M260.298 160.648C260.238 164.829 263.579 168.265 267.756 168.326C271.937 168.386 275.373 165.045 275.434 160.868C275.495 156.688 272.153 153.251 267.977 153.19C263.796 153.125 260.355 156.467 260.298 160.648Z" fill="black"/>
<path d="M259.463 134.804C259.463 134.804 277.581 129.325 285.077 149.009L247.163 160.752L259.463 134.804Z" fill="#FEC54B"/>
<path d="M159.517 178.419C169.279 177.95 176.813 169.656 176.344 159.893C175.874 150.131 167.58 142.597 157.818 143.066C148.055 143.536 140.521 151.83 140.991 161.592C141.46 171.355 149.754 178.889 159.517 178.419Z" fill="black"/>
<path d="M140.98 160.453C140.98 160.47 140.976 160.483 140.976 160.501C140.833 170.274 148.641 178.311 158.414 178.449C168.187 178.592 176.224 170.784 176.363 161.011C176.363 160.994 176.363 160.981 176.363 160.964L140.98 160.453Z" fill="black"/>
<path d="M146.248 160.574C146.148 167.434 151.632 173.078 158.492 173.178C165.352 173.277 170.996 167.793 171.096 160.933C171.195 154.073 165.712 148.429 158.851 148.33C151.987 148.235 146.347 153.714 146.248 160.574Z" fill="#FAFAFA"/>
<path d="M158.851 148.33C151.991 148.23 146.347 153.714 146.248 160.574L171.096 160.933C171.195 154.073 165.711 148.429 158.851 148.33Z" fill="#E0E0E0"/>
<path d="M151.104 160.648C151.043 164.829 154.385 168.265 158.561 168.326C162.742 168.386 166.179 165.045 166.24 160.868C166.3 156.688 162.959 153.251 158.782 153.19C154.601 153.125 151.165 156.467 151.104 160.648Z" fill="black"/>
<path d="M183.842 153.649C183.743 153.701 174.528 152.225 174.528 152.225C173.519 153.541 171.979 154.346 170.325 154.424C166.343 154.614 162.452 154.792 159.081 154.939C155.939 155.077 153.502 157.739 153.632 160.881V160.886C153.757 163.859 156.142 166.235 159.115 166.352L178.713 167.123C181.938 167.248 186.218 165.292 188.231 162.769L183.842 153.649Z" fill="black"/>
<path d="M135.696 145.82C135.696 145.82 134.852 128.572 151.061 124.98V122.768H207.841V128.04C207.841 128.04 199.505 138.077 202.228 146.408C204.95 154.744 205.799 155.592 205.799 155.592H238.112C238.112 155.592 242.025 150.658 242.194 143.348C242.363 136.034 239.324 123.53 237.056 115.536C234.992 108.269 233.689 102.188 233.689 102.188L243.384 98.9545C243.384 98.9545 261.324 122.409 262.056 123.729C262.787 125.049 265.28 128.126 264.692 134.865C264.107 141.608 247.985 162.418 243.735 164.759C239.485 167.105 235.676 167.252 231.863 167.837C228.556 168.348 204.089 168.01 197.692 167.91C195.467 167.876 193.273 167.309 191.373 166.157C189.46 164.998 188.019 163.076 186.43 159.925L183.059 153.329L135.696 145.82Z" fill="#FEC54B"/>
<path d="M140.041 144.621L132.887 155.822C131.969 157.255 133.454 159.059 135.012 158.384C135.769 158.055 136.583 157.545 137.41 156.757C140.682 153.645 146.512 145.447 146.512 145.447L140.041 144.621Z" fill="black"/>
<path d="M191.326 146.638C191.321 146.638 191.334 146.581 191.369 146.473C191.403 146.356 191.451 146.2 191.512 146.001C191.633 145.586 191.78 144.967 191.888 144.153C192.07 142.539 191.988 140.076 190.78 137.393C190.192 136.055 189.322 134.688 188.144 133.432C186.963 132.186 185.504 131.035 183.799 130.117C182.102 129.195 180.181 128.468 178.129 128.005C176.073 127.542 173.887 127.334 171.65 127.334C169.412 127.334 167.231 127.533 165.136 127.81C163.041 128.092 161.033 128.438 159.137 128.871C155.35 129.723 152.056 130.983 149.507 132.433C146.949 133.874 145.136 135.449 144.002 136.631C143.43 137.22 143.019 137.709 142.746 138.046C142.617 138.206 142.517 138.336 142.439 138.431C142.37 138.518 142.331 138.561 142.327 138.557C142.327 138.557 142.811 137.778 143.937 136.57C145.053 135.363 146.863 133.761 149.425 132.294C151.978 130.814 155.289 129.533 159.09 128.667C160.99 128.23 163.002 127.875 165.106 127.589C167.205 127.308 169.399 127.105 171.65 127.105C173.9 127.105 176.103 127.317 178.177 127.784C180.25 128.252 182.184 128.987 183.898 129.927C185.617 130.857 187.093 132.03 188.283 133.298C189.469 134.575 190.343 135.964 190.927 137.323C192.126 140.046 192.187 142.539 191.975 144.158C191.854 144.976 191.693 145.599 191.555 146.01C191.486 146.205 191.429 146.361 191.39 146.473C191.351 146.586 191.33 146.638 191.326 146.638Z" fill="black"/>
<path d="M188.053 142.764C188.027 142.755 188.149 142.491 188.265 141.998C188.4 141.504 188.456 140.756 188.33 139.855C188.205 138.951 187.859 137.908 187.274 136.847C186.989 136.315 186.638 135.787 186.227 135.272C185.824 134.753 185.353 134.259 184.82 133.813C183.751 132.917 182.565 132.285 181.444 131.84C180.315 131.403 179.25 131.143 178.345 130.991C177.441 130.84 176.696 130.775 176.186 130.745C175.67 130.714 175.389 130.701 175.389 130.684C175.389 130.675 175.458 130.671 175.597 130.662C175.731 130.658 175.934 130.649 176.19 130.654C176.705 130.658 177.454 130.697 178.371 130.831C179.289 130.961 180.371 131.208 181.522 131.641C182.665 132.086 183.877 132.723 184.967 133.636C185.513 134.095 185.993 134.597 186.404 135.129C186.82 135.653 187.175 136.198 187.46 136.743C188.045 137.825 188.382 138.899 188.49 139.829C188.599 140.756 188.516 141.522 188.352 142.015C188.3 142.27 188.192 142.448 188.144 142.578C188.092 142.703 188.062 142.768 188.053 142.764Z" fill="#F5F5F5"/>
<g opacity="0.4">
<g opacity="0.4">
<g opacity="0.4">
<path opacity="0.4" d="M176.934 127.654C180.107 128.26 182.881 129.399 185.482 131.134C188.084 132.87 190.079 135.333 191.209 138.25C192.343 141.167 192.174 145.032 190.979 147.447L194.991 147.78C196.342 143.275 194.87 137.748 191.624 134.22C187.82 130.082 182.583 127.654 176.934 127.654Z" fill="black"/>
</g>
</g>
</g>
<path d="M175.658 122.768H140.561C138.509 122.768 136.847 121.106 136.847 119.054V96.1369C136.847 94.0853 138.509 92.4233 140.561 92.4233H175.658C177.709 92.4233 179.371 94.0853 179.371 96.1369V119.054C179.371 121.106 177.709 122.768 175.658 122.768Z" fill="black"/>
<path d="M179.371 99.1926C179.371 99.2532 169.81 99.3051 158.02 99.3051C146.226 99.3051 136.665 99.2532 136.665 99.1926C136.665 99.132 146.226 99.0801 158.02 99.0801C169.81 99.0801 179.371 99.132 179.371 99.1926Z" fill="black"/>
<path d="M207.816 124.776C207.816 124.837 195.056 124.889 179.315 124.889C163.569 124.889 150.814 124.837 150.814 124.776C150.814 124.716 163.573 124.664 179.315 124.664C195.052 124.664 207.816 124.716 207.816 124.776Z" fill="black"/>
<path d="M207.841 122.768C207.841 122.768 208.776 121.651 208.867 120.223C208.958 118.795 208.305 117.016 206.772 117.016H187.166C183.989 117.016 181.414 119.591 181.414 122.768H207.841Z" fill="black"/>
<path d="M233.694 102.188L230.283 95.0765C229.352 93.0553 230.093 90.6532 232.006 89.5149L242.203 83.4339C242.735 83.1179 243.345 82.9491 243.964 82.9491H246.167L247.05 97.3228L243.653 98.6213L245.804 102.118L233.694 102.188Z" fill="#FEC54B"/>
<path d="M246.202 83.4684C246.202 83.4684 249.69 84.2691 250.128 89.6446C250.565 95.0245 247.05 96.6952 247.05 96.6952L246.202 83.4684Z" fill="#EBEBEB"/>
<path d="M234.884 92.2892C234.884 92.2892 227.833 95.6306 226.972 96.1802C226.375 96.5611 225.864 97.2277 226.331 98.4006C227.132 100.4 230.426 98.5174 230.426 98.5174L236.987 95.2367C236.987 95.2367 239.511 94.0465 238.58 92.5533C237.537 90.8869 234.884 92.2892 234.884 92.2892Z" fill="black"/>
<path d="M224.903 91.073C224.903 91.073 231.525 92.207 232.088 92.3585C232.65 92.5099 234.862 93.5574 234.975 94.2325C235.087 94.9077 234.975 96.8943 234.975 96.8943C234.975 96.8943 234.576 97.219 234.325 96.5697C234.074 95.9205 234.113 94.6351 234.113 94.6351L232.875 94.159L233.551 95.3579L233.663 98.1668C233.663 98.1668 232.798 98.0889 232.633 97.4137C232.464 96.7429 232.469 95.9898 232.469 95.9898L231.568 95.2237L232.244 96.1369L232.473 98.1625C232.473 98.1625 231.815 98.3746 231.607 97.9244C231.4 97.4743 231.382 96.1369 231.382 96.1369L228.837 95.2497L227.154 96.1889L224.505 94.7389L224.903 91.073Z" fill="#FFBE9D"/>
<path d="M235.221 81.8454C235.221 84.5289 233.988 86.7016 232.469 86.7016C230.95 86.7016 229.716 84.5289 229.716 81.8454C229.716 79.162 230.95 76.9893 232.469 76.9893C233.988 76.9893 235.221 79.1663 235.221 81.8454Z" fill="black"/>
<path d="M232.919 85.1824L234.429 90.4238C235.105 90.0819 235.247 89.4067 235.135 88.8743C234.754 87.0781 234.542 85.8013 234.122 84.2259C234.075 84.0744 232.919 85.1824 232.919 85.1824Z" fill="black"/>
<g opacity="0.4">
<g opacity="0.4">
<path opacity="0.4" d="M202.977 148.65C202.825 148.217 202.674 147.776 202.531 147.322C202.397 146.897 202.237 146.46 202.124 146.04C201.916 145.287 201.795 144.513 201.748 144.067C199.194 154.463 203.094 161.782 209.785 162.297C219.562 163.05 231.486 163.595 236.308 162.331C245.098 160.025 248.323 152.697 249.093 151.485C249.864 150.278 256.854 137.497 252.569 125.192C248.284 112.887 240.813 99.8202 240.813 99.8202L233.694 102.192C233.694 102.192 234.996 108.269 237.061 115.54C239.329 123.534 242.367 136.038 242.198 143.353C242.03 150.667 238.117 155.597 238.117 155.597H205.803C205.799 155.593 205.106 154.9 202.977 148.65Z" fill="black"/>
</g>
</g>
<path d="M134.406 143.115L134.635 140.647L193.619 147.443C196.948 147.832 199.263 150.944 198.679 154.246L198.415 155.74L137.366 146.867C135.536 146.603 134.233 144.954 134.406 143.115Z" fill="#FEC54B"/>
<g opacity="0.6">
<g opacity="0.6">
<path opacity="0.6" d="M134.406 143.115L134.635 140.647L193.619 147.443C196.948 147.832 199.263 150.944 198.679 154.246L198.415 155.74L137.366 146.867C135.536 146.603 134.233 144.954 134.406 143.115Z" fill="black"/>
</g>
</g>
<g opacity="0.3">
<g opacity="0.3">
<g opacity="0.3">
<path opacity="0.3" d="M249.093 159.613C249.093 159.613 262.077 145.331 264.757 134.103C265.657 134.095 267.752 134.186 268.777 134.402C268.773 134.402 261.095 155.277 249.093 159.613Z" fill="black"/>
</g>
</g>
</g>
<path d="M264.566 129.074C264.575 129.074 264.597 129.195 264.636 129.433C264.67 129.671 264.739 130.022 264.783 130.476C264.865 131.385 264.921 132.727 264.683 134.354C264.449 135.982 263.891 137.877 262.969 139.842C262.069 141.816 260.822 143.855 259.533 145.988C256.931 150.269 254.036 153.766 251.932 156.268C250.876 157.514 250.002 158.51 249.396 159.198C249.102 159.527 248.868 159.786 248.695 159.981C248.531 160.159 248.444 160.25 248.44 160.245C248.435 160.241 248.509 160.141 248.66 159.951C248.825 159.752 249.05 159.479 249.331 159.137C249.933 158.419 250.772 157.406 251.811 156.164C253.884 153.64 256.75 150.13 259.342 145.871C260.636 143.738 261.879 141.712 262.783 139.756C263.709 137.808 264.276 135.938 264.527 134.333C264.787 132.723 264.757 131.398 264.696 130.489C264.666 130.035 264.61 129.684 264.592 129.442C264.566 129.199 264.558 129.074 264.566 129.074Z" fill="black"/>
<path d="M242.116 159.51C242.073 159.553 241.142 158.713 240.038 157.631C238.935 156.549 238.074 155.636 238.117 155.593C238.16 155.549 239.091 156.389 240.199 157.471C241.302 158.553 242.164 159.466 242.116 159.51Z" fill="black"/>
<path d="M203.583 159.072C203.531 159.046 203.886 158.176 204.535 157.224C205.18 156.268 205.859 155.614 205.898 155.657C205.946 155.701 205.353 156.411 204.721 157.354C204.085 158.289 203.643 159.098 203.583 159.072Z" fill="black"/>
<path d="M178.635 167.317C178.583 167.274 179.566 166.647 180.405 165.067C180.825 164.288 181.167 163.271 181.275 162.102C181.384 160.942 181.215 159.626 180.643 158.406C180.051 157.194 179.137 156.237 178.168 155.588C177.194 154.935 176.19 154.562 175.32 154.398C173.563 154.056 172.459 154.428 172.459 154.359C172.459 154.35 172.524 154.333 172.654 154.303C172.784 154.277 172.97 154.216 173.221 154.195C173.718 154.117 174.459 154.095 175.35 154.247C176.242 154.394 177.281 154.762 178.285 155.419C179.289 156.073 180.237 157.055 180.847 158.311C181.436 159.574 181.6 160.929 181.479 162.124C181.362 163.318 180.99 164.357 180.544 165.145C180.102 165.932 179.618 166.495 179.241 166.833C179.064 167.015 178.899 167.118 178.795 167.205C178.696 167.283 178.64 167.322 178.635 167.317Z" fill="black"/>
<path d="M157.094 162.795C157.034 162.799 156.938 161.864 156.882 160.713C156.826 159.561 156.835 158.627 156.895 158.622C156.956 158.618 157.051 159.548 157.107 160.704C157.164 161.855 157.159 162.795 157.094 162.795Z" fill="black"/>
<path d="M158.661 162.799C158.6 162.808 158.432 161.877 158.284 160.726C158.137 159.57 158.068 158.631 158.129 158.622C158.189 158.614 158.358 159.544 158.505 160.7C158.652 161.847 158.722 162.79 158.661 162.799Z" fill="black"/>
<path d="M182.985 122.768C182.985 122.829 175.813 122.88 166.971 122.88C158.124 122.88 150.953 122.829 150.953 122.768C150.953 122.707 158.124 122.655 166.971 122.655C175.813 122.655 182.985 122.707 182.985 122.768Z" fill="black"/>
<path d="M159.76 122.746C159.7 122.746 159.648 114.531 159.648 104.404C159.648 94.2714 159.7 86.0566 159.76 86.0566C159.821 86.0566 159.873 94.2671 159.873 104.404C159.873 114.531 159.825 122.746 159.76 122.746Z" fill="black"/>
<path d="M155.372 122.716C155.311 122.712 155.618 114.505 156.055 104.382C156.497 94.2585 156.904 86.0523 156.964 86.0566C157.025 86.061 156.718 94.2671 156.281 104.391C155.839 114.514 155.432 122.72 155.372 122.716Z" fill="black"/>
<path d="M145.439 172.771C145.434 172.775 145.369 172.71 145.248 172.58C145.131 172.446 144.95 172.26 144.742 171.996C144.313 171.481 143.742 170.693 143.145 169.65C141.95 167.586 140.764 164.357 140.777 160.665C140.795 156.969 142.006 153.753 143.218 151.697C143.824 150.658 144.404 149.875 144.833 149.364C145.04 149.1 145.227 148.919 145.343 148.784C145.465 148.655 145.529 148.59 145.534 148.594C145.538 148.598 145.486 148.676 145.378 148.815C145.274 148.958 145.097 149.148 144.902 149.416C144.495 149.944 143.937 150.736 143.357 151.775C142.188 153.835 141.015 157.017 141.002 160.665C140.989 164.309 142.132 167.504 143.283 169.572C143.855 170.616 144.404 171.412 144.811 171.944C145.006 172.217 145.179 172.412 145.283 172.55C145.391 172.689 145.443 172.762 145.439 172.771Z" fill="black"/>
<path d="M207.443 139.795L207.309 140.05L204.704 144.954L201.051 148.473L208.352 158.194L214.438 157.185C214.438 157.185 213.754 155.796 210.703 155.527L209.534 149.719L213.823 143.071" fill="black"/>
<path d="M201.051 148.468L208.348 158.189L214.433 157.181L213.598 156.38L208.603 156.925L201.826 147.719L201.051 148.468Z" fill="#E0E0E0"/>
<path d="M210.213 152.853C210.179 152.922 209.794 152.783 209.326 152.874C208.854 152.952 208.547 153.221 208.486 153.164C208.422 153.13 208.703 152.705 209.274 152.606C209.85 152.498 210.261 152.796 210.213 152.853Z" fill="black"/>
<path d="M209.876 151.42C209.824 151.472 209.491 151.16 208.993 151.147C208.491 151.13 208.14 151.42 208.093 151.364C208.067 151.338 208.119 151.225 208.274 151.104C208.426 150.983 208.69 150.866 209.001 150.875C209.313 150.883 209.568 151.018 209.711 151.152C209.854 151.282 209.902 151.398 209.876 151.42Z" fill="black"/>
<path d="M209.603 149.555C209.543 149.598 209.274 149.282 208.828 149.208C208.383 149.126 208.023 149.334 207.98 149.269C207.958 149.243 208.023 149.144 208.179 149.053C208.335 148.962 208.59 148.888 208.876 148.94C209.157 148.992 209.374 149.144 209.491 149.282C209.607 149.421 209.633 149.533 209.603 149.555Z" fill="black"/>
<path d="M210.993 147.841C210.923 147.88 210.694 147.559 210.278 147.378C209.867 147.183 209.478 147.222 209.46 147.148C209.43 147.083 209.88 146.897 210.391 147.131C210.902 147.356 211.066 147.819 210.993 147.841Z" fill="black"/>
<path d="M211.577 146.46C211.551 146.486 211.309 146.274 210.941 145.91C210.733 145.698 210.521 145.482 210.304 145.266C210.192 145.136 210.049 145.032 209.941 144.82C209.889 144.712 209.872 144.577 209.915 144.443C209.954 144.305 210.114 144.192 210.248 144.192C210.521 144.188 210.69 144.3 210.867 144.391C211.036 144.495 211.183 144.621 211.309 144.75C211.555 145.019 211.698 145.317 211.772 145.577C211.919 146.105 211.793 146.443 211.772 146.43C211.724 146.425 211.772 146.101 211.59 145.638C211.499 145.408 211.352 145.153 211.127 144.924C211.014 144.811 210.88 144.707 210.733 144.621C210.59 144.538 210.404 144.452 210.274 144.46C210.214 144.469 210.188 144.491 210.17 144.534C210.153 144.582 210.157 144.651 210.183 144.707C210.24 144.833 210.378 144.963 210.491 145.092C210.694 145.326 210.889 145.551 211.084 145.776C211.412 146.174 211.607 146.434 211.577 146.46Z" fill="black"/>
<path d="M211.828 146.603C211.798 146.607 211.767 146.283 212.036 145.863C212.3 145.465 212.94 144.975 213.784 145.239C213.849 145.278 213.905 145.356 213.914 145.443C213.923 145.529 213.901 145.594 213.871 145.646C213.814 145.755 213.741 145.811 213.685 145.876C213.559 145.997 213.429 146.105 213.295 146.192C213.031 146.369 212.763 146.482 212.533 146.547C212.07 146.676 211.767 146.633 211.772 146.603C211.767 146.56 212.057 146.534 212.473 146.365C212.68 146.283 212.918 146.161 213.152 145.984C213.269 145.897 213.386 145.798 213.498 145.685C213.555 145.625 213.611 145.568 213.633 145.521C213.654 145.465 213.65 145.478 213.637 145.465C213.615 145.447 213.529 145.434 213.451 145.43C213.373 145.426 213.295 145.426 213.221 145.434C213.07 145.447 212.927 145.486 212.793 145.538C212.529 145.642 212.33 145.811 212.191 145.98C211.914 146.317 211.871 146.611 211.828 146.603Z" fill="black"/>
<path d="M205.872 147.477C205.937 147.875 205.669 148.252 205.271 148.321C204.872 148.386 204.496 148.118 204.427 147.72C204.362 147.321 204.63 146.945 205.028 146.876C205.426 146.811 205.803 147.079 205.872 147.477Z" fill="#E0E0E0"/>
<path d="M229.604 144.469L231.556 157.142L247.336 154.796C247.02 153.303 238.403 151.489 238.403 151.489L237.485 143.318L229.604 144.469Z" fill="black"/>
<path d="M233.425 151.532C233.131 151.662 232.971 152.035 233.088 152.333C233.205 152.632 233.585 152.796 233.88 152.675C234.174 152.55 234.382 152.108 234.23 151.822C234.079 151.541 233.624 151.368 233.369 151.558" fill="#E0E0E0"/>
<path d="M231.556 157.142L231.408 155.856L246.596 154.086C246.596 154.086 247.345 154.285 247.34 154.796L231.556 157.142Z" fill="#E0E0E0"/>
<path d="M238.649 151.372C238.658 151.45 238.277 151.541 237.935 151.848C237.585 152.143 237.437 152.506 237.364 152.485C237.29 152.48 237.338 152.004 237.758 151.641C238.173 151.277 238.654 151.299 238.649 151.372Z" fill="black"/>
<path d="M240.407 151.81C240.437 151.883 240.121 152.061 239.909 152.428C239.684 152.788 239.671 153.151 239.593 153.156C239.524 153.177 239.402 152.736 239.675 152.286C239.943 151.836 240.394 151.736 240.407 151.81Z" fill="black"/>
<path d="M241.64 153.649C241.571 153.675 241.406 153.307 241.545 152.857C241.675 152.403 242.017 152.182 242.056 152.242C242.107 152.299 241.908 152.558 241.804 152.935C241.688 153.303 241.718 153.632 241.64 153.649Z" fill="black"/>
<path d="M238.234 149.533C238.212 149.606 237.844 149.555 237.412 149.65C236.979 149.736 236.663 149.931 236.611 149.87C236.559 149.823 236.845 149.485 237.355 149.381C237.866 149.273 238.26 149.464 238.234 149.533Z" fill="black"/>
<path d="M237.58 147.715C237.585 147.745 237.29 147.841 236.788 147.828C236.542 147.823 236.243 147.784 235.923 147.698C235.762 147.655 235.598 147.598 235.433 147.525C235.356 147.49 235.26 147.455 235.165 147.373C235.066 147.304 234.988 147.109 235.07 146.971C235.135 146.837 235.269 146.763 235.382 146.746C235.498 146.724 235.594 146.733 235.685 146.741C235.866 146.759 236.039 146.793 236.2 146.837C236.52 146.927 236.793 147.066 237 147.204C237.416 147.49 237.585 147.758 237.559 147.776C237.528 147.806 237.312 147.59 236.901 147.369C236.693 147.256 236.433 147.148 236.135 147.075C235.983 147.04 235.827 147.014 235.659 147.001C235.485 146.984 235.343 147.001 235.312 147.083C235.299 147.114 235.299 147.127 235.343 147.17C235.386 147.209 235.459 147.243 235.537 147.278C235.689 147.347 235.845 147.408 235.992 147.455C236.286 147.551 236.563 147.607 236.801 147.633C237.273 147.698 237.572 147.672 237.58 147.715Z" fill="black"/>
<path d="M237.494 147.841C237.468 147.858 237.273 147.603 237.173 147.109C237.121 146.862 237.104 146.559 237.152 146.226C237.178 146.062 237.217 145.889 237.282 145.715C237.351 145.547 237.433 145.322 237.727 145.239C237.883 145.209 238.03 145.313 238.091 145.412C238.16 145.512 238.182 145.603 238.216 145.689C238.273 145.871 238.294 146.049 238.294 146.222C238.294 146.564 238.199 146.867 238.078 147.087C237.831 147.542 237.524 147.68 237.511 147.659C237.481 147.624 237.727 147.434 237.905 147.005C237.991 146.793 238.056 146.525 238.043 146.226C238.039 146.079 238.013 145.923 237.961 145.772C237.913 145.607 237.827 145.482 237.766 145.508C237.688 145.516 237.572 145.664 237.528 145.806C237.468 145.958 237.424 146.114 237.394 146.265C237.338 146.564 237.333 146.845 237.359 147.074C237.411 147.546 237.537 147.823 237.494 147.841Z" fill="black"/>
<path d="M217.186 114.7L203.648 144.192L212.59 149.559L231.3 114.073" fill="black"/>
<path d="M239.502 150.23L229.789 151.788L223.977 117.102L195.26 119.184C194.498 119.232 193.732 119.167 192.996 118.963C184.928 116.752 186.023 106.472 186.798 104.823L226.535 103.681C230.846 103.555 234.559 106.693 235.156 110.965L239.502 150.23Z" fill="black"/>
<path d="M186.409 106.455L186.551 91.7913C186.551 91.7913 184.66 82.2564 184.097 78.5082C183.227 72.6869 182.037 69.9255 191.568 65.7878L193.65 64.9828L196.874 65.0261C200.722 65.3161 204.773 68.7916 204.864 71.0984L208.573 104.144L186.409 106.455Z" fill="#FEC54B"/>
<path d="M187.006 69.1984C187.006 69.1984 184.318 74.9894 184.855 80.2654L194.883 89.8912C197.134 92.3929 199.943 93.4576 203.539 93.674L224.288 95.9419L224.864 90.5144L205.123 84.9225C204.34 84.7797 203.946 83.9573 203.345 83.4336L187.006 69.1984Z" fill="#FEC54B"/>
<path d="M185.387 70.869C185.387 70.869 185.5 70.7435 185.785 70.6007C186.071 70.4622 186.521 70.3194 187.127 70.2241C187.729 70.1376 188.49 70.0726 189.369 70.2285C189.586 70.2804 189.815 70.3323 190.027 70.4535C190.235 70.5747 190.434 70.7175 190.637 70.869C191.04 71.1807 191.442 71.5356 191.849 71.9294C192.68 72.7042 193.468 73.6866 194.39 74.6821C195.307 75.6819 196.32 76.7466 197.419 77.8676C198.514 78.9886 199.696 80.1615 200.964 81.3734C201.6 81.975 202.254 82.5896 202.946 83.1912C203.297 83.4812 203.643 83.8188 203.977 84.1348C204.314 84.4464 204.699 84.7364 205.141 84.8186H205.145H205.149C211.018 86.4763 217.753 88.3807 224.89 90.4019L224.981 90.4279L224.972 90.5231C224.933 90.9083 224.886 91.3238 224.843 91.7393C224.691 93.1806 224.54 94.6089 224.397 95.9506L224.384 96.0631L224.271 96.0501C221.254 95.7169 218.316 95.3966 215.489 95.085C214.074 94.9292 212.689 94.7777 211.334 94.6262C209.975 94.4877 208.651 94.3535 207.357 94.2237C206.063 94.0808 204.808 93.9337 203.591 93.7562C202.375 93.5788 201.194 93.3537 200.107 92.9469C199.017 92.5487 198.043 91.9774 197.168 91.3714C196.29 90.7612 195.493 90.1249 194.745 89.4973C191.78 86.9654 189.603 84.7061 188.092 83.1653C187.344 82.3905 186.768 81.7803 186.383 81.3648C186.197 81.1613 186.054 81.0012 185.95 80.8887C185.855 80.7805 185.807 80.7199 185.807 80.7199C185.807 80.7199 185.863 80.7675 185.963 80.8714C186.071 80.9796 186.218 81.1354 186.413 81.3345C186.816 81.7456 187.4 82.3429 188.149 83.109C189.676 84.6325 191.871 86.8745 194.84 89.3848C195.589 90.0037 196.389 90.6356 197.264 91.2372C198.134 91.8389 199.094 92.3972 200.168 92.7824C201.241 93.1806 202.405 93.397 203.622 93.5701C204.834 93.7432 206.089 93.8904 207.383 94.0289C208.677 94.1587 210.001 94.2886 211.36 94.4228C212.715 94.5699 214.104 94.7214 215.515 94.8729C218.342 95.1802 221.28 95.5005 224.302 95.8294L224.176 95.929C224.319 94.5872 224.47 93.1589 224.622 91.7177C224.665 91.3022 224.708 90.8867 224.752 90.5015L224.834 90.6227C217.697 88.5971 210.967 86.684 205.098 85.0177L205.106 85.022C204.595 84.9268 204.189 84.6065 203.842 84.2863C203.492 83.953 203.176 83.6414 202.817 83.3427C202.124 82.7368 201.466 82.1179 200.83 81.5119C199.566 80.2957 198.389 79.1141 197.294 77.9888C196.203 76.8635 195.195 75.7944 194.277 74.786C193.355 73.7819 192.581 72.7994 191.763 72.0246C191.36 71.6308 190.962 71.2715 190.568 70.9643C190.369 70.8128 190.174 70.6656 189.975 70.5487C189.78 70.4319 189.555 70.38 189.347 70.328C188.49 70.1635 187.729 70.2198 187.131 70.2934C186.53 70.3756 186.08 70.5055 185.794 70.6353C185.513 70.7608 185.392 70.8777 185.387 70.869Z" fill="black"/>
<path d="M190.564 52.2668L191.572 66.541C191.737 68.8696 193.676 70.6787 196.013 70.6787C198.584 70.6787 200.622 68.5017 200.454 65.9351C200.363 64.576 200.285 63.4637 200.285 63.4637C200.285 63.4637 203.739 62.927 203.782 59.4732C203.808 57.4779 203.462 52.9507 203.167 49.4795C202.968 47.1336 201.003 45.3331 198.649 45.3331H196.563C192.966 45.5452 190.257 48.6831 190.564 52.2668Z" fill="#FFBE9D"/>
<path d="M200.289 63.4161C200.289 63.4161 198.103 63.5936 195.783 62.135C195.783 62.135 196.848 64.6237 200.298 64.3121L200.289 63.4161Z" fill="#EB996E"/>
<path d="M202.388 53.9202C202.397 54.1798 202.185 54.4049 201.912 54.4179C201.639 54.4309 201.414 54.2318 201.401 53.9721C201.393 53.7124 201.605 53.4873 201.877 53.4744C202.15 53.4614 202.38 53.6605 202.388 53.9202Z" fill="black"/>
<path d="M202.57 52.9463C202.509 53.0112 202.137 52.7342 201.605 52.7342C201.072 52.7298 200.683 53.0025 200.627 52.9376C200.596 52.9073 200.661 52.7948 200.83 52.6693C200.999 52.5481 201.28 52.4269 201.613 52.4269C201.942 52.4269 202.224 52.5524 202.384 52.6736C202.544 52.8034 202.6 52.916 202.57 52.9463Z" fill="black"/>
<path d="M197.402 53.9202C197.411 54.1798 197.199 54.4049 196.926 54.4179C196.653 54.4309 196.428 54.2318 196.415 53.9721C196.407 53.7124 196.619 53.4873 196.891 53.4744C197.164 53.4614 197.393 53.6605 197.402 53.9202Z" fill="black"/>
<path d="M197.35 53.0459C197.29 53.1108 196.913 52.8338 196.385 52.8338C195.853 52.8295 195.463 53.1021 195.407 53.0372C195.377 53.0069 195.441 52.8944 195.61 52.7689C195.779 52.6477 196.06 52.5265 196.394 52.5265C196.723 52.5265 197.004 52.652 197.164 52.7732C197.324 52.8987 197.38 53.0156 197.35 53.0459Z" fill="black"/>
<path d="M199.276 56.9844C199.272 56.9541 199.605 56.8978 200.137 56.8286C200.272 56.8156 200.401 56.7896 200.423 56.6944C200.453 56.5948 200.397 56.452 200.332 56.2919C200.207 55.9629 200.073 55.621 199.93 55.2574C199.371 53.7859 198.969 52.5783 199.029 52.5567C199.09 52.5351 199.588 53.708 200.146 55.1795C200.28 55.5431 200.41 55.8894 200.531 56.2183C200.583 56.3741 200.67 56.5472 200.601 56.7507C200.566 56.8502 200.466 56.9238 200.376 56.9498C200.289 56.9757 200.211 56.9757 200.146 56.98C199.614 57.0103 199.281 57.0147 199.276 56.9844Z" fill="black"/>
<path d="M197.714 57.3523C197.8 57.3479 197.8 57.9236 198.294 58.3348C198.787 58.7459 199.402 58.681 199.406 58.7589C199.415 58.7935 199.268 58.8714 199.008 58.8758C198.752 58.8844 198.38 58.8022 198.082 58.5512C197.779 58.3001 197.653 57.9669 197.632 57.7288C197.61 57.4908 197.675 57.3479 197.714 57.3523Z" fill="black"/>
<path d="M197.489 50.9641C197.437 51.1069 196.904 51.042 196.281 51.1156C195.658 51.1762 195.156 51.3623 195.074 51.2324C195.035 51.1718 195.125 51.0333 195.329 50.8948C195.528 50.7563 195.853 50.6222 196.225 50.5789C196.597 50.5399 196.943 50.5962 197.168 50.6914C197.398 50.7823 197.51 50.8948 197.489 50.9641Z" fill="black"/>
<path d="M202.375 51.4098C202.28 51.531 201.916 51.4055 201.475 51.4011C201.034 51.3795 200.661 51.4834 200.579 51.3578C200.54 51.2973 200.601 51.1761 200.761 51.0635C200.921 50.951 201.189 50.8558 201.492 50.8644C201.795 50.8731 202.055 50.9813 202.211 51.1068C202.367 51.228 202.419 51.3492 202.375 51.4098Z" fill="black"/>
<path d="M191.728 54.8638C191.667 54.8378 189.352 54.1626 189.43 56.5258C189.503 58.889 191.862 58.3263 191.862 58.2571C191.866 58.1835 191.728 54.8638 191.728 54.8638Z" fill="#FFBE9D"/>
<path d="M191.113 57.3828C191.105 57.3741 191.074 57.4131 191.005 57.4477C190.94 57.4823 190.823 57.504 190.698 57.465C190.447 57.3828 190.222 56.9933 190.196 56.5648C190.183 56.3484 190.222 56.145 190.291 55.9718C190.356 55.7987 190.464 55.6732 190.59 55.6472C190.715 55.6126 190.806 55.6862 190.836 55.7511C190.871 55.816 190.858 55.8636 190.871 55.8679C190.88 55.8723 190.919 55.8247 190.897 55.7294C190.884 55.6818 190.858 55.6299 190.797 55.5823C190.741 55.539 190.655 55.5174 190.568 55.5304C190.386 55.5477 190.226 55.7208 190.148 55.9112C190.062 56.1017 190.014 56.3311 190.027 56.5734C190.057 57.0495 190.317 57.4867 190.659 57.5732C190.828 57.6122 190.962 57.5559 191.031 57.4997C191.109 57.4391 191.122 57.3871 191.113 57.3828Z" fill="#EB996E"/>
<path d="M190.417 54.7814C190.776 54.6949 191.399 55.0281 191.555 55.3657C191.711 55.7033 191.741 56.0842 191.897 56.4218C192.048 56.7594 192.394 57.0667 192.758 56.9801C193.005 56.9195 193.187 56.6902 193.251 56.4391C193.316 56.1924 193.29 55.9327 193.26 55.6774C193.122 54.5737 192.888 53.4787 192.845 52.3707C192.801 51.2583 192.957 50.1071 193.541 49.1592C194.126 48.2113 195.195 47.5145 196.303 47.6054C197.039 47.666 197.709 48.0469 198.441 48.1507C199.307 48.2719 200.22 47.9646 200.839 47.35C200.917 47.2721 201.289 47.0298 201.289 47.0298C201.289 46.9735 201.237 46.4801 201.042 46.2983C199.597 44.9609 196.987 44.5887 195.078 45.0691C193.165 45.5495 191.373 46.8999 190.551 48.6918C189.72 50.4793 189.962 52.968 190.417 54.7814Z" fill="black"/>
<path d="M203.206 48.947C203.206 48.947 194.143 46.0299 190.222 53.8725C190.222 53.8725 189.637 51.9118 189.637 50.8601C189.637 50.1589 190.057 45.9736 194.364 44.6579C194.359 44.6579 200.847 42.1822 203.206 48.947Z" fill="#FEC54B"/>
<path d="M195.416 49.1462C195.736 49.6655 196.307 50.0161 196.913 50.0724C197.519 50.1286 198.147 49.8819 198.553 49.4318C198.731 49.8776 199.211 50.1849 199.692 50.1589C200.172 50.133 200.618 49.7781 200.748 49.315C201.012 49.5703 201.285 49.8343 201.631 49.9598C201.977 50.0854 202.41 50.0378 202.639 49.7478C202.869 49.4535 202.804 49.0077 202.579 48.709C202.354 48.4104 202.003 48.2329 201.661 48.0901C200.583 47.64 199.397 47.4149 198.242 47.5707C197.086 47.7265 195.965 48.2892 195.242 49.2024" fill="black"/>
<g opacity="0.4">
<g opacity="0.4">
<g opacity="0.4">
<g opacity="0.4">
<path opacity="0.4" d="M203.206 48.9471C203.206 48.9471 202.176 47.7179 200.324 47.64C197.649 47.5231 192.646 49.025 190.222 53.8768C190.222 53.8768 189.637 51.9162 189.637 50.8644C189.637 50.1633 190.057 45.978 194.364 44.6622C194.359 44.6579 200.847 42.1822 203.206 48.9471Z" fill="black"/>
</g>
</g>
</g>
</g>
<path d="M190.598 52.9549C191.944 50.899 193.797 49.1981 195.879 47.8953C197.961 46.5925 201.406 45.3071 203.782 44.6752C204.496 44.4847 205.236 44.3203 205.963 44.4458C206.69 44.5713 207.4 45.056 207.582 45.7702C207.807 46.6661 206.219 48.0468 205.474 48.5878C204.73 49.1288 203.206 49.9295 203.206 49.9295C203.206 49.9295 203.228 48.2675 200.57 47.9256C196.952 47.4668 190.598 52.9549 190.598 52.9549Z" fill="#FEC54B"/>
<g opacity="0.3">
<g opacity="0.3">
<g opacity="0.3">
<path opacity="0.3" d="M187.408 82.408C188.343 84.6629 189.287 87.4459 190.642 89.4758C191.996 91.5057 193.805 93.3062 196.06 94.2497C198.887 95.4313 202.232 95.6261 205.046 94.4099C205.275 94.3103 205.725 94.1848 205.682 93.9381C205.682 93.9381 204.751 93.8342 204.461 93.7866C198.774 92.8258 198.16 92.1246 195.437 89.9735C193.741 88.6362 189.979 84.5807 187.408 82.408Z" fill="black"/>
</g>
</g>
</g>
<path d="M205.479 98.8289C205.491 98.8332 205.418 99.028 205.24 99.3569C205.067 99.6859 204.769 100.14 204.323 100.638C203.44 101.642 201.873 102.729 199.917 103.33C197.965 103.932 196.112 104.04 194.792 104.096C194.13 104.122 193.593 104.127 193.226 104.127C192.853 104.127 192.65 104.118 192.65 104.101C192.65 104.083 192.853 104.066 193.221 104.04C193.637 104.014 194.16 103.979 194.784 103.94C196.095 103.845 197.93 103.707 199.852 103.118C201.769 102.525 203.314 101.486 204.206 100.53C205.115 99.5777 205.435 98.8029 205.479 98.8289Z" fill="black"/>
<path d="M229.967 152.822C229.963 152.822 229.95 152.779 229.932 152.688C229.911 152.589 229.885 152.455 229.854 152.29C229.789 151.927 229.694 151.411 229.577 150.754C229.344 149.403 229.006 147.477 228.595 145.101C227.785 140.314 226.669 133.722 225.435 126.442C224.886 123.149 224.362 119.994 223.882 117.115L223.994 117.202C218.952 117.57 214.637 117.886 211.568 118.111C210.053 118.215 208.846 118.297 208.002 118.353C207.599 118.375 207.283 118.396 207.049 118.409C206.95 118.414 206.868 118.418 206.803 118.418C206.746 118.418 206.72 118.418 206.72 118.414C206.72 118.409 206.746 118.405 206.803 118.396C206.868 118.388 206.95 118.379 207.045 118.37C207.274 118.349 207.59 118.319 207.993 118.28C208.837 118.206 210.044 118.106 211.555 117.977C214.619 117.734 218.93 117.388 223.972 116.985L224.068 116.977L224.085 117.072C224.57 119.946 225.102 123.101 225.656 126.395C226.864 133.679 227.959 140.275 228.751 145.066C229.136 147.447 229.448 149.377 229.664 150.728C229.763 151.386 229.846 151.901 229.902 152.268C229.924 152.437 229.945 152.567 229.958 152.671C229.967 152.775 229.967 152.822 229.967 152.822Z" fill="black"/>
<path d="M226.894 114.012C226.933 114.064 226.18 114.713 225.319 115.587C224.457 116.457 223.821 117.228 223.769 117.185C223.722 117.15 224.284 116.31 225.158 115.427C226.033 114.544 226.859 113.964 226.894 114.012Z" fill="black"/>
<path d="M200.367 66.2423C200.376 66.2423 200.393 66.2899 200.419 66.3851C200.449 66.4803 200.475 66.6232 200.501 66.8093C200.544 67.1815 200.523 67.7442 200.289 68.3847C200.055 69.0166 199.601 69.7264 198.865 70.2588C198.134 70.7912 197.121 71.0682 196.086 70.9989C195.048 70.9297 194.096 70.5401 193.39 69.9905C192.676 69.4451 192.187 68.7872 191.858 68.2029C191.533 67.61 191.36 67.0949 191.274 66.7314C191.23 66.5496 191.2 66.4068 191.187 66.3115C191.174 66.2163 191.17 66.1644 191.178 66.1601C191.226 66.1427 191.334 66.9867 192.001 68.125C192.338 68.6834 192.827 69.3109 193.52 69.826C194.204 70.3454 195.117 70.7089 196.108 70.7782C197.095 70.8431 198.051 70.5834 198.753 70.09C199.458 69.6009 199.908 68.9301 200.151 68.3284C200.389 67.7225 200.441 67.1815 200.423 66.8179C200.397 66.45 200.341 66.2509 200.367 66.2423Z" fill="black"/>
<path d="M206.47 85.1433C206.452 85.1433 206.422 84.9832 206.379 84.6932C206.331 84.3513 206.271 83.9401 206.206 83.4553C206.063 82.3517 205.877 80.932 205.673 79.3652C205.478 77.7638 205.323 76.3139 205.227 75.2622C205.18 74.7341 205.145 74.31 205.128 74.0157C205.111 73.7214 205.106 73.5569 205.124 73.5569C205.141 73.5569 205.171 73.717 205.214 74.007C205.262 74.3489 205.318 74.7601 205.383 75.2449C205.522 76.3485 205.699 77.7682 205.894 79.3393C206.089 80.9364 206.262 82.3863 206.361 83.438C206.413 83.9661 206.448 84.3902 206.465 84.6845C206.483 84.9788 206.487 85.1433 206.47 85.1433Z" fill="black"/>
</svg>
