<svg width="40" height="40" viewBox="0 0 40 40" fill="none" xmlns="http://www.w3.org/2000/svg">
<path d="M37.0734 28.085C38.687 28.085 39.9999 26.354 39.9999 24.2255C39.9999 23.1948 39.6954 22.2246 39.1425 21.4961L33.6263 14.2187C32.9167 13.2817 31.9722 12.7659 30.9676 12.7659C29.9631 12.7659 29.0186 13.2817 28.3089 14.2187L27.0877 15.8297C27.0425 14.6629 26.649 13.5608 25.9838 12.7812L16.2316 1.34638C15.4916 0.478296 14.5387 0 13.5483 0C12.558 0 11.6051 0.478296 10.8651 1.34638L1.1129 12.7812C0.405805 13.6102 0 14.8025 0 16.0502C0 18.4629 1.48774 20.4255 3.31676 20.4255H9.67739V22.4008C9.67739 23.8382 9.53223 25.2697 9.24578 26.6561L7.88514 33.2356C7.7903 33.6952 7.74191 34.1693 7.74191 34.6459C7.74191 36.0578 8.16127 37.3403 8.84126 38.2978H2.58064V39.9999H11.8013H15.2961H37.4192V38.2978H35.8986C36.0418 37.9054 36.1289 37.4714 36.1289 37.0075C36.1289 36.6263 36.0747 36.2527 35.967 35.8961C35.218 33.428 34.8386 30.8288 34.8386 28.1701V28.085H37.0734ZM20.4593 8.5804L23.3386 11.9566C22.9767 12.4612 22.4728 12.7659 21.9354 12.7659C20.8683 12.7659 19.9999 11.6204 19.9999 10.2127C19.9999 9.60933 20.169 9.03657 20.4593 8.5804ZM8.36191 6.55828C8.36836 6.64253 8.38707 6.72338 8.38707 6.80849C8.38707 8.21615 7.51869 9.36167 6.45159 9.36167C6.30966 9.36167 6.1703 9.32933 6.03288 9.28933L8.36191 6.55828ZM3.0787 18.7055C2.0729 18.5497 1.29032 17.4187 1.29032 16.0502C1.29032 15.2876 1.53806 14.5591 1.97032 14.0519L4.94579 10.5634C5.40837 10.8868 5.9245 11.0638 6.45159 11.0638C8.2303 11.0638 9.67739 9.15487 9.67739 6.80849C9.67739 6.28168 9.59933 5.76168 9.45674 5.27488L11.7225 2.61786C12.7296 1.43574 14.3677 1.43574 15.3741 2.61786L19.4903 7.44423C18.9922 8.21104 18.7096 9.18976 18.7096 10.2127C18.7096 12.5591 20.1567 14.468 21.9354 14.468C22.8438 14.468 23.6999 13.9514 24.3044 13.0885L25.1264 14.0527C25.5586 14.5591 25.8064 15.2885 25.8064 16.0502C25.8064 17.5123 24.9122 18.7038 23.807 18.7233C21.7515 18.7072 19.958 17.9497 18.0593 17.1463C17.2219 16.7923 16.3709 16.4357 15.4806 16.131C15.4645 13.8034 14.0264 11.9149 12.258 11.9149C10.66 11.9149 9.33868 13.4604 9.08578 15.4757C5.69547 16.0331 3.71676 17.9719 3.0787 18.7055ZM17.5606 18.7233H17.4193V18.6646C17.4664 18.6842 17.5135 18.7038 17.5606 18.7233ZM14.1606 15.7387C13.1696 15.4851 12.12 15.3191 10.9677 15.3191C10.7858 15.3191 10.6129 15.3293 10.4374 15.337C10.7006 14.3395 11.4129 13.617 12.258 13.617C13.2135 13.617 14.0038 14.5361 14.1606 15.7387ZM5.38256 18.7233C6.36063 18.0442 7.7903 17.3404 9.67739 17.1072V18.7233H5.38256ZM15.2954 38.2978H11.8013C10.2742 38.2978 9.03223 36.6595 9.03223 34.6459C9.03223 34.3207 9.06513 33.9973 9.12965 33.6842L10.4903 27.1037C10.8071 25.5727 10.9677 23.9906 10.9677 22.4016V17.0212C12.8948 17.0212 14.5587 17.5234 16.129 18.1361V22.4008C16.129 23.9897 16.2896 25.5727 16.6064 27.1029L17.967 33.6842C18.0316 33.9973 18.0645 34.3207 18.0645 34.6459C18.0645 36.6595 16.8225 38.2978 15.2954 38.2978ZM18.2554 38.2978C18.9354 37.3403 19.3548 36.0578 19.3548 34.6459C19.3548 34.1693 19.3064 33.6952 19.2116 33.2373L17.8509 26.6569C17.5645 25.2706 17.4193 23.8391 17.4193 22.4016V20.4255H23.6038L22.7922 21.4961C22.2399 22.2246 21.9354 23.1948 21.9354 24.2255C21.9354 26.354 23.2483 28.085 24.8619 28.085H27.0967V28.1701C27.0967 30.8288 26.7173 33.4288 25.9677 35.8978C25.8606 36.2535 25.8064 36.6263 25.8064 37.0075C25.8064 37.4714 25.8935 37.9054 26.0367 38.2978H18.2554ZM33.5483 28.085V28.1701C33.5483 31.0467 33.9593 33.8586 34.7683 36.5275C34.8147 36.6816 34.8386 36.8433 34.8386 37.0075C34.8386 37.719 34.3999 38.2978 33.8605 38.2978H28.0748C27.5354 38.2978 27.0967 37.719 27.0967 37.0075C27.0967 36.8433 27.1206 36.6807 27.1664 36.5284C27.976 33.8578 28.387 31.0459 28.387 28.1701V28.085H30.9676V26.3829H24.8619C23.9599 26.3829 23.2257 25.4144 23.2257 24.2255C23.2257 23.6493 23.3961 23.108 23.7051 22.6995L29.2212 15.4221C30.1541 14.1923 31.7812 14.1923 32.7141 15.4221L38.2302 22.6995C38.5392 23.1072 38.7096 23.6493 38.7096 24.2255C38.7096 25.4144 37.9754 26.3829 37.0734 26.3829H32.258V28.085H33.5483Z" fill="#7A1E76"/>
<path d="M32.3458 30.5557L31.0619 30.7216C31.1955 32.5123 31.4729 34.2893 31.8851 36.0025L33.1148 35.4876C32.729 33.8876 32.4703 32.2289 32.3458 30.5557Z" fill="#7A1E76"/>
<path d="M39.9999 38.2979H38.7096V40H39.9999V38.2979Z" fill="#7A1E76"/>
<path d="M1.29032 38.2979H0V40H1.29032V38.2979Z" fill="#7A1E76"/>
<path d="M3.87088 15.3192H2.58056V17.0213H3.87088V15.3192Z" fill="#7A1E76"/>
<path d="M13.5483 5.10643H12.258V6.80855H13.5483V5.10643Z" fill="#7A1E76"/>
<path d="M16.7742 10.2127H15.4838V11.9149H16.7742V10.2127Z" fill="#7A1E76"/>
<path d="M24.5161 15.3192H23.2258V17.0213H24.5161V15.3192Z" fill="#7A1E76"/>
<path d="M25.8064 22.9786H24.516V24.6807H25.8064V22.9786Z" fill="#7A1E76"/>
<path d="M29.6774 20.4255H28.3871V22.1276H29.6774V20.4255Z" fill="#7A1E76"/>
<path d="M32.258 22.9786H30.9677V24.6807H32.258V22.9786Z" fill="#7A1E76"/>
<path d="M36.1288 21.2765H34.8385V22.9787H36.1288V21.2765Z" fill="#7A1E76"/>
<path d="M31.6127 16.1701H30.3224V17.8722H31.6127V16.1701Z" fill="#7A1E76"/>
</svg>
