<svg width="24" height="24" viewBox="0 0 24 24" fill="none" xmlns="http://www.w3.org/2000/svg">
<path d="M20.835 4.5525C19.7694 3.49088 18.3266 2.89479 16.8225 2.89479C15.3183 2.89479 13.8755 3.49088 12.81 4.5525L12 5.3625L11.19 4.5525C10.1244 3.49088 8.68158 2.89479 7.17745 2.89479C5.67332 2.89479 4.23049 3.49088 3.16495 4.5525C2.10287 5.61931 1.50659 7.06339 1.50659 8.56875C1.50659 10.0741 2.10287 11.5182 3.16495 12.585L11.4675 20.8875C11.5372 20.9578 11.6201 21.0136 11.7115 21.0517C11.8029 21.0897 11.9009 21.1093 12 21.1093C12.099 21.1093 12.197 21.0897 12.2884 21.0517C12.3798 21.0136 12.4627 20.9578 12.5325 20.8875L20.835 12.585C21.897 11.5182 22.4933 10.0741 22.4933 8.56875C22.4933 7.06339 21.897 5.61931 20.835 4.5525Z" fill="#696464"/>
</svg>
