<svg width="375" height="113" viewBox="0 0 375 113" fill="none" xmlns="http://www.w3.org/2000/svg">
<path d="M0 0H375V113H0V0Z" fill="white"/>
<path d="M0 0H375V113H0V0Z" fill="white"/>
<path d="M0 112H375V113H0V112Z" fill="#F4F4F4"/>
<path d="M0 112H375V113H0V112Z" fill="#F4F4F4"/>
<g clip-path="url(#clip0_496_1643)">
<path d="M51.899 66.1C49.941 64.1422 47.4464 62.809 44.7307 62.2689C42.015 61.7288 39.2002 62.0062 36.6421 63.0658C34.084 64.1255 31.8976 65.9199 30.3593 68.2222C28.821 70.5244 28 73.2311 28 76C28 78.7689 28.821 81.4756 30.3593 83.7778C31.8976 86.0801 34.084 87.8745 36.6421 88.9342C39.2002 89.9938 42.015 90.2712 44.7307 89.7311C47.4464 89.191 49.941 87.8578 51.899 85.9C53.1992 84.6 54.2305 83.0565 54.9342 81.3579C55.6378 79.6592 56 77.8386 56 76C56 74.1614 55.6378 72.3408 54.9342 70.6421C54.2305 68.9435 53.1992 67.4 51.899 66.1ZM46.999 79.54C47.0989 79.6335 47.1785 79.7466 47.233 79.8722C47.2874 79.9977 47.3155 80.1331 47.3155 80.27C47.3155 80.4069 47.2874 80.5423 47.233 80.6678C47.1785 80.7934 47.0989 80.9065 46.999 81C46.9055 81.0927 46.7947 81.166 46.6729 81.2158C46.5511 81.2655 46.4206 81.2908 46.289 81.29C46.0266 81.2889 45.7752 81.1847 45.589 81L41.999 77.41L38.459 81C38.2727 81.1847 38.0213 81.2889 37.759 81.29C37.6274 81.2908 37.4969 81.2655 37.3751 81.2158C37.2532 81.166 37.1424 81.0927 37.049 81C36.8627 80.8126 36.7582 80.5592 36.7582 80.295C36.7582 80.0308 36.8627 79.7774 37.049 79.59L40.589 76L37.049 72.46C36.8852 72.2687 36.7996 72.0226 36.8093 71.7709C36.819 71.5193 36.9233 71.2805 37.1014 71.1024C37.2795 70.9243 37.5183 70.82 37.7699 70.8103C38.0216 70.8006 38.2677 70.8862 38.459 71.05L41.999 74.59L45.539 71.05C45.6316 70.9541 45.7421 70.8774 45.8643 70.8243C45.9866 70.7712 46.1181 70.7426 46.2513 70.7403C46.3846 70.738 46.517 70.7619 46.641 70.8108C46.765 70.8596 46.8781 70.9324 46.974 71.025C47.0699 71.1176 47.1465 71.2281 47.1997 71.3504C47.2528 71.4726 47.2814 71.6041 47.2837 71.7373C47.286 71.8706 47.2621 72.003 47.2132 72.127C47.1644 72.251 47.0916 72.3641 46.999 72.46L43.409 76L46.999 79.54Z" fill="#696464"/>
</g>
<rect opacity="0.35" x="336.833" y="17.8333" width="21" height="10.3333" rx="2.16667" stroke="#384144"/>
<path opacity="0.4" d="M359.333 21V25C360.138 24.6612 360.661 23.8731 360.661 23C360.661 22.1269 360.138 21.3388 359.333 21Z" fill="#384144"/>
<rect x="338.333" y="19.3333" width="18" height="7.33333" rx="1.33333" fill="#384144"/>
<path fill-rule="evenodd" clip-rule="evenodd" d="M323.667 19.6152C325.892 19.6153 328.031 20.4694 329.644 22.001C329.765 22.1192 329.959 22.1177 330.079 21.9976L331.239 20.8273C331.3 20.7664 331.334 20.6839 331.333 20.598C331.333 20.5122 331.298 20.4301 331.237 20.3699C327.005 16.3176 320.329 16.3176 316.097 20.3699C316.035 20.43 316.001 20.5121 316 20.598C315.999 20.6838 316.033 20.7663 316.094 20.8273L317.255 21.9976C317.374 22.1179 317.568 22.1194 317.69 22.001C319.302 20.4693 321.442 19.6152 323.667 19.6152ZM323.667 23.4227C324.889 23.4227 326.068 23.8766 326.974 24.6964C327.097 24.8127 327.29 24.8102 327.409 24.6907L328.569 23.5204C328.63 23.459 328.663 23.3757 328.663 23.2892C328.662 23.2027 328.626 23.1201 328.564 23.0599C325.805 20.4955 321.532 20.4955 318.773 23.0599C318.71 23.1201 318.675 23.2027 318.674 23.2893C318.673 23.3758 318.707 23.4591 318.768 23.5204L319.927 24.6907C320.047 24.8102 320.24 24.8127 320.362 24.6964C321.268 23.8772 322.446 23.4233 323.667 23.4227ZM325.989 25.9846C325.991 26.0714 325.957 26.155 325.895 26.2158L323.89 28.2378C323.831 28.2972 323.751 28.3307 323.667 28.3307C323.583 28.3307 323.503 28.2972 323.445 28.2378L321.439 26.2158C321.377 26.155 321.343 26.0713 321.345 25.9845C321.347 25.8977 321.384 25.8156 321.449 25.7574C322.729 24.6751 324.605 24.6751 325.886 25.7574C325.95 25.8156 325.988 25.8978 325.989 25.9846Z" fill="#384144"/>
<path fill-rule="evenodd" clip-rule="evenodd" d="M310 17.6667H309C308.448 17.6667 308 18.1144 308 18.6667V27.3334C308 27.8856 308.448 28.3334 309 28.3334H310C310.552 28.3334 311 27.8856 311 27.3334V18.6667C311 18.1144 310.552 17.6667 310 17.6667ZM304.333 20H305.333C305.886 20 306.333 20.4477 306.333 21V27.3334C306.333 27.8856 305.886 28.3334 305.333 28.3334H304.333C303.781 28.3334 303.333 27.8856 303.333 27.3334V21C303.333 20.4477 303.781 20 304.333 20ZM300.667 22.3334H299.667C299.114 22.3334 298.667 22.7811 298.667 23.3334V27.3334C298.667 27.8856 299.114 28.3334 299.667 28.3334H300.667C301.219 28.3334 301.667 27.8856 301.667 27.3334V23.3334C301.667 22.7811 301.219 22.3334 300.667 22.3334ZM296 24.3334H295C294.448 24.3334 294 24.7811 294 25.3334V27.3334C294 27.8856 294.448 28.3334 295 28.3334H296C296.552 28.3334 297 27.8856 297 27.3334V25.3334C297 24.7811 296.552 24.3334 296 24.3334Z" fill="#384144"/>
<path d="M37.0807 28.2563C39.7687 28.2563 41.3654 26.1543 41.3654 22.5874C41.3654 19.0864 39.6662 17.1675 37.1393 17.1675C34.8395 17.1675 33.2135 18.7129 33.2135 20.8735C33.2135 22.9023 34.6784 24.3818 36.6925 24.3818C37.9303 24.3818 38.9337 23.8105 39.4318 22.8071H39.5563C39.5343 25.29 38.6481 26.7109 37.1027 26.7109C36.1945 26.7109 35.4694 26.2129 35.2423 25.4072H33.36C33.6676 27.1284 35.1471 28.2563 37.0807 28.2563ZM37.1466 22.9243C35.9162 22.9243 35.0665 22.0601 35.0665 20.8149C35.0665 19.6211 35.9601 18.7056 37.1539 18.7056C38.3478 18.7056 39.2413 19.6357 39.2413 20.8516C39.2413 22.0527 38.3698 22.9243 37.1466 22.9243ZM44.5165 22.7705C45.2123 22.7705 45.6884 22.2798 45.6884 21.6353C45.6884 20.9834 45.2123 20.5 44.5165 20.5C43.828 20.5 43.3446 20.9834 43.3446 21.6353C43.3446 22.2798 43.828 22.7705 44.5165 22.7705ZM44.5165 28.1465C45.2123 28.1465 45.6884 27.6558 45.6884 27.0039C45.6884 26.3594 45.2123 25.8687 44.5165 25.8687C43.828 25.8687 43.3446 26.3594 43.3446 27.0039C43.3446 27.6558 43.828 28.1465 44.5165 28.1465ZM52.6041 28H54.4132V25.9712H55.8414V24.4111H54.4132V17.4312H51.7472C50.3116 19.6138 48.8102 22.0454 47.4405 24.4258V25.9712H52.6041V28ZM49.191 24.3452C50.2238 22.5508 51.4469 20.5952 52.5309 18.9399H52.6334V24.4551H49.191V24.3452ZM59.93 28H61.8197V17.4312H59.9374L57.1761 19.3721V21.1519L59.8055 19.2915H59.93V28Z" fill="#384144"/>
<defs>
<clipPath id="clip0_496_1643">
<rect width="28" height="28" fill="white" transform="translate(28 62)"/>
</clipPath>
</defs>
</svg>
